<?xml version="1.0" standalone="no"?>
<!DOCTYPE svg PUBLIC "-//W3C//DTD SVG 1.1//EN"
  "http://www.w3.org/Graphics/SVG/1.1/DTD/svg11.dtd">
<svg width="42mm" height="41.999999999999986mm" viewBox="-101 58.999999999999986 42 41.999999999999986" xmlns="http://www.w3.org/2000/svg" version="1.1">
	<title>svgOutput</title>
	<desc>made with tinkercad</desc>
<path d="M -60 99.99999999999997 L -80.87200164794922 99.99999999999997 L -84.62999725341797 99.99999999999997 L -86.13099670410156 99.99999999999997 L -100 99.99999999999997 L -100 59.999999999999986 L -86.13099670410156 59.999999999999986 L -84.62999725341797 59.999999999999986 L -80.87200164794922 59.999999999999986 L -73.86900329589844 59.999999999999986 L -60 59.999999999999986 L -60 83.50299835205077 L -60 99.99999999999997 M -77.80999755859375 83.47499847412108 L -77.37100219726562 83.50299835205077 L -76.93099975585938 83.47499847412108 L -76.49800109863281 83.39199829101561 L -76.0790023803711 83.25700378417967 L -75.68000030517578 83.06900024414061 L -75.30799865722656 82.83399963378905 L -74.96900177001953 82.55300140380858 L -74.66699981689453 82.23300170898436 L -74.43928527832031 81.9199981689453 L -74.40799713134766 81.87699890136717 L -74.19599914550781 81.49099731445311 L -74.03399658203125 81.08200073242186 L -73.92400360107422 80.65599822998045 L -73.86900329589844 80.22000122070311 L -73.86900329589844 79.77999877929686 L -73.92400360107422 79.34400177001952 L -74.03399658203125 78.91799926757811 L -74.19599914550781 78.50900268554686 L -74.40799713134766 78.1230010986328 L -74.62553405761719 77.82399749755858 L -74.66699981689453 77.76699829101561 L -74.96900177001953 77.44699859619139 L -75.30799865722656 77.16600036621092 L -75.68000030517578 76.93099975585936 L -76.0790023803711 76.7429962158203 L -76.49800109863281 76.60800170898436 L -76.93099975585938 76.52500152587889 L -77.37100219726562 76.4980010986328 L -77.80999755859375 76.52500152587889 L -77.8239974975586 76.52768707275389 L -78.24299621582031 76.60800170898436 L -78.66200256347656 76.7429962158203 L -79.06099700927734 76.93099975585936 L -79.43299865722656 77.16600036621092 L -79.77200317382812 77.44699859619139 L -80.0739974975586 77.76699829101561 L -80.33300018310547 78.1230010986328 L -80.54499816894531 78.50900268554686 L -80.70700073242188 78.91799926757811 L -80.81700134277344 79.34400177001952 L -80.87200164794922 79.77999877929686 L -80.87200164794922 80.22000122070311 L -80.81700134277344 80.65599822998045 L -80.70700073242188 81.08200073242186 L -80.54499816894531 81.49099731445311 L -80.33300018310547 81.87699890136717 L -80.30171966552734 81.9199981689453 L -80.0739974975586 82.23300170898436 L -79.77200317382812 82.55300140380858 L -79.43299865722656 82.83399963378905 L -79.06099700927734 83.06900024414061 L -78.66200256347656 83.25700378417967 L -78.24299621582031 83.39199829101561 L -77.80999755859375 83.47499847412108 M -84.62999725341797 77.99900054931639 L -86.13099670410156 77.99900054931639 L -86.13099670410156 82.00099945068358 L -84.62999725341797 82.00099945068358 L -84.62999725341797 77.99900054931639 z" fill="none" stroke="rgb(255,0,0)" stroke-width="0.001mm" />
</svg>