<?xml version="1.0" standalone="no"?>
<!DOCTYPE svg PUBLIC "-//W3C//DTD SVG 1.1//EN"
  "http://www.w3.org/Graphics/SVG/1.1/DTD/svg11.dtd">
<svg width="284mm" height="189.99999999999994mm" viewBox="-101 -88.99999999999999 284 189.99999999999994" xmlns="http://www.w3.org/2000/svg" version="1.1">
	<title>svgOutput</title>
	<desc>made with tinkercad</desc>
<path d="M 182 99.99999999999997 L 103.00399780273438 99.99999999999997 L 10.001999855041504 99.99999999999997 L -33.494998931884766 99.99999999999997 L -85.98699951171875 99.99999999999997 L -89.97899627685547 99.99999999999997 L -100 99.99999999999997 L -100 -87.99999999999999 L -89.97899627685547 -87.99999999999999 L -66.0260009765625 -87.99999999999999 L -56.00199890136719 -87.99999999999999 L -53.25199890136719 -87.99999999999999 L -33.494998931884766 -87.99999999999999 L -26.507999420166016 -87.99999999999999 L -7.801000118255615 -87.99999999999999 L -5.051000118255615 -87.99999999999999 L 10.001999855041504 -87.99999999999999 L 12.996999740600586 -87.99999999999999 L 33.625 -87.99999999999999 L 36.375 -87.99999999999999 L 79.6259994506836 -87.99999999999999 L 82.3759994506836 -87.99999999999999 L 103.00399780273438 -87.99999999999999 L 105.99800109863281 -87.99999999999999 L 121.00199890136719 -87.99999999999999 L 123.75199890136719 -87.99999999999999 L 142.50900268554688 -87.99999999999999 L 149.4949951171875 -87.99999999999999 L 170.0019989013672 -87.99999999999999 L 172.7530059814453 -87.99999999999999 L 182 -87.99999999999999 L 182 -72.00499725341795 L 182 -14.00300025939941 L 182 64.50199890136717 L 182 90.00299835205077 L 182 99.99999999999997 M -32.957000732421875 62.87699890136717 L -32.768001556396484 63.1367835998535 L -32.698001861572266 63.23300170898436 L -32.39699935913086 63.55300140380858 L -32.058998107910156 63.833000183105455 L -31.687999725341797 64.06900024414061 L -31.290000915527344 64.25599670410155 L -30.871999740600586 64.39199829101561 L -30.440000534057617 64.47399902343749 L -30.000999450683594 64.50199890136717 L -29.562999725341797 64.47399902343749 L -29.131000518798828 64.39199829101561 L -28.71299934387207 64.25599670410155 L -28.672000885009766 64.23673248291014 L -28.315000534057617 64.06900024414061 L -27.944000244140625 63.833000183105455 L -27.604999542236328 63.55300140380858 L -27.30500030517578 63.23300170898436 L -27.04599952697754 62.87699890136717 L -26.833999633789062 62.49200057983397 L -26.67300033569336 62.083000183105455 L -26.562999725341797 61.657001495361314 L -26.535625457763672 61.43999862670897 L -26.507999420166016 61.221000671386705 L -26.507999420166016 60.782001495361314 L -26.562999725341797 60.346000671386705 L -26.67300033569336 59.9199981689453 L -26.833999633789062 59.51100158691405 L -27.04599952697754 59.12599945068358 L -27.30500030517578 58.77099990844725 L -27.604999542236328 58.45000076293944 L -27.944000244140625 58.1699981689453 L -28.315000534057617 57.93399810791014 L -28.672000885009766 57.766262054443345 L -28.71299934387207 57.747001647949205 L -29.131000518798828 57.611999511718736 L -29.562999725341797 57.52899932861327 L -30.000999450683594 57.50199890136717 L -30.440000534057617 57.52899932861327 L -30.871999740600586 57.611999511718736 L -31.290000915527344 57.747001647949205 L -31.687999725341797 57.93399810791014 L -32.058998107910156 58.1699981689453 L -32.39699935913086 58.45000076293944 L -32.698001861572266 58.77099990844725 L -32.768001556396484 58.86694717407225 L -32.957000732421875 59.12599945068358 L -33.167999267578125 59.51100158691405 L -33.33000183105469 59.9199981689453 L -33.43899917602539 60.346000671386705 L -33.494998931884766 60.782001495361314 L -33.494998931884766 61.221000671386705 L -33.46687316894531 61.43999862670897 L -33.43899917602539 61.657001495361314 L -33.33000183105469 62.083000183105455 L -33.167999267578125 62.49200057983397 L -32.957000732421875 62.87699890136717 M 145.56300354003906 64.47399902343749 L 146.0019989013672 64.50199890136717 L 146.4409942626953 64.47399902343749 L 146.8719940185547 64.39199829101561 L 147.2899932861328 64.25599670410155 L 147.45599365234375 64.17800140380858 L 147.68800354003906 64.06900024414061 L 148.0590057373047 63.833000183105455 L 148.3979949951172 63.55300140380858 L 148.69900512695312 63.23300170898436 L 148.95700073242188 62.87699890136717 L 149.16900634765625 62.49200057983397 L 149.33099365234375 62.083000183105455 L 149.44000244140625 61.657001495361314 L 149.46737670898438 61.43999862670897 L 149.4949951171875 61.221000671386705 L 149.4949951171875 60.782001495361314 L 149.44000244140625 60.346000671386705 L 149.33099365234375 59.9199981689453 L 149.16900634765625 59.51100158691405 L 148.95700073242188 59.12599945068358 L 148.69900512695312 58.77099990844725 L 148.3979949951172 58.45000076293944 L 148.0590057373047 58.1699981689453 L 147.68800354003906 57.93399810791014 L 147.45599365234375 57.82499313354491 L 147.2899932861328 57.747001647949205 L 146.8719940185547 57.611999511718736 L 146.4409942626953 57.52899932861327 L 146.0019989013672 57.50199890136717 L 145.56300354003906 57.52899932861327 L 145.1320037841797 57.611999511718736 L 144.71400451660156 57.747001647949205 L 144.3159942626953 57.93399810791014 L 143.94500732421875 58.1699981689453 L 143.6060028076172 58.45000076293944 L 143.36000061035156 58.712345123291 L 143.30499267578125 58.77099990844725 L 143.0469970703125 59.12599945068358 L 142.8350067138672 59.51100158691405 L 142.67300415039062 59.9199981689453 L 142.56399536132812 60.346000671386705 L 142.50900268554688 60.782001495361314 L 142.50900268554688 61.221000671386705 L 142.53662109375 61.43999862670897 L 142.56399536132812 61.657001495361314 L 142.67300415039062 62.083000183105455 L 142.8350067138672 62.49200057983397 L 143.0469970703125 62.87699890136717 L 143.30499267578125 63.23300170898436 L 143.6060028076172 63.55300140380858 L 143.94500732421875 63.833000183105455 L 144.3159942626953 64.06900024414061 L 144.71400451660156 64.25599670410155 L 145.1320037841797 64.39199829101561 L 145.56300354003906 64.47399902343749 M 170.9530029296875 -72.0699996948242 L 171.00799560546875 -72.0558395385742 L 171.1199951171875 -72.02700042724608 L 171.29100036621094 -72.00499725341795 L 171.46400451660156 -72.00499725341795 L 171.63499450683594 -72.02700042724608 L 171.802001953125 -72.0699996948242 L 171.96299743652344 -72.13300323486327 L 172.03199768066406 -72.17092895507811 L 172.11399841308594 -72.21600341796874 L 172.25399780273438 -72.31800079345702 L 172.3800048828125 -72.43599700927733 L 172.49000549316406 -72.56900024414061 L 172.58200073242188 -72.71499633789061 L 172.656005859375 -72.87100219726561 L 172.70899963378906 -73.03500366210936 L 172.74200439453125 -73.20500183105467 L 172.7530059814453 -73.37699890136717 L 172.74200439453125 -73.5500030517578 L 172.70899963378906 -73.71900177001952 L 172.70611572265625 -73.72799682617186 L 172.656005859375 -73.88400268554686 L 172.58200073242188 -74.04000091552733 L 172.49000549316406 -74.18599700927733 L 172.3800048828125 -74.31900024414061 L 172.25399780273438 -74.43699645996092 L 172.11399841308594 -74.53800201416014 L 172.03199768066406 -74.58361816406249 L 171.96299743652344 -74.6220016479492 L 171.802001953125 -74.68499755859374 L 171.63499450683594 -74.72799682617186 L 171.46400451660156 -74.74999999999999 L 171.29100036621094 -74.74999999999999 L 171.1199951171875 -74.72799682617186 L 170.9530029296875 -74.68499755859374 L 170.79200744628906 -74.6220016479492 L 170.64100646972656 -74.53800201416014 L 170.50100708007812 -74.43699645996092 L 170.375 -74.31900024414061 L 170.26499938964844 -74.18599700927733 L 170.17300415039062 -74.04000091552733 L 170.0989990234375 -73.88400268554686 L 170.04888916015625 -73.72799682617186 L 170.04600524902344 -73.71900177001952 L 170.01300048828125 -73.5500030517578 L 170.0019989013672 -73.37699890136717 L 170.01300048828125 -73.20500183105467 L 170.04600524902344 -73.03500366210936 L 170.0989990234375 -72.87100219726561 L 170.17300415039062 -72.71499633789061 L 170.26499938964844 -72.56900024414061 L 170.375 -72.43599700927733 L 170.50100708007812 -72.31800079345702 L 170.64100646972656 -72.21600341796874 L 170.79200744628906 -72.13300323486327 L 170.9530029296875 -72.0699996948242 M 171.96299743652344 -14.130999565124508 L 172.03199768066406 -14.169384002685543 L 172.11399841308594 -14.215000152587887 L 172.25399780273438 -14.315999984741207 L 172.27536010742188 -14.33600044250488 L 172.3800048828125 -14.434000015258786 L 172.49000549316406 -14.567000389099118 L 172.58200073242188 -14.713000297546383 L 172.656005859375 -14.869000434875485 L 172.70899963378906 -15.034000396728512 L 172.74200439453125 -15.203000068664547 L 172.7530059814453 -15.376000404357907 L 172.74200439453125 -15.548000335693356 L 172.70899963378906 -15.718000411987301 L 172.656005859375 -15.881999969482418 L 172.58200073242188 -16.03800010681152 L 172.49000549316406 -16.184000015258786 L 172.3800048828125 -16.3169994354248 L 172.30845642089844 -16.38400077819824 L 172.25399780273438 -16.43499946594238 L 172.11399841308594 -16.537000656127926 L 172.03199768066406 -16.58207321166992 L 171.96299743652344 -16.620000839233395 L 171.802001953125 -16.68300056457519 L 171.63499450683594 -16.725999832153317 L 171.46400451660156 -16.747999191284176 L 171.29100036621094 -16.747999191284176 L 171.1199951171875 -16.725999832153317 L 170.9530029296875 -16.68300056457519 L 170.79200744628906 -16.620000839233395 L 170.64100646972656 -16.537000656127926 L 170.50100708007812 -16.43499946594238 L 170.44654846191406 -16.38400077819824 L 170.375 -16.3169994354248 L 170.26499938964844 -16.184000015258786 L 170.17300415039062 -16.03800010681152 L 170.0989990234375 -15.881999969482418 L 170.04600524902344 -15.718000411987301 L 170.01300048828125 -15.548000335693356 L 170.0019989013672 -15.376000404357907 L 170.01300048828125 -15.203000068664547 L 170.04600524902344 -15.034000396728512 L 170.0989990234375 -14.869000434875485 L 170.17300415039062 -14.713000297546383 L 170.26499938964844 -14.567000389099118 L 170.375 -14.434000015258786 L 170.47964477539062 -14.33600044250488 L 170.50100708007812 -14.315999984741207 L 170.64100646972656 -14.215000152587887 L 170.79200744628906 -14.130999565124508 L 170.9530029296875 -14.067999839782711 L 171.1199951171875 -14.02499961853027 L 171.29100036621094 -14.00300025939941 L 171.46400451660156 -14.00300025939941 L 171.63499450683594 -14.02499961853027 L 171.802001953125 -14.067999839782711 L 171.96299743652344 -14.130999565124508 M 104.31300354003906 34.98899841308593 L 104.447998046875 34.99761581420898 L 104.5009994506836 35.00099945068359 L 104.68900299072266 34.98899841308593 L 104.8740005493164 34.95399856567382 L 105.0530014038086 34.89599990844726 L 105.22188568115234 34.81600189208984 L 105.2239990234375 34.81499862670898 L 105.38300323486328 34.71400070190429 L 105.52799987792969 34.594001770019524 L 105.65699768066406 34.45700073242187 L 105.76799774169922 34.305000305175774 L 105.85800170898438 34.13999938964843 L 105.9280014038086 33.96400070190429 L 105.9749984741211 33.78200149536132 L 105.99800109863281 33.59500122070312 L 105.99800109863281 33.40700149536132 L 105.9749984741211 33.22000122070312 L 105.9280014038086 33.03699874877929 L 105.85800170898438 32.86199951171874 L 105.80672454833984 32.76800155639648 L 105.76799774169922 32.6969985961914 L 105.65699768066406 32.544998168945305 L 105.52799987792969 32.40700149536132 L 105.38300323486328 32.28699874877929 L 105.2239990234375 32.1860008239746 L 105.0530014038086 32.105998992919915 L 104.8740005493164 32.04800033569335 L 104.68900299072266 32.01300048828124 L 104.5009994506836 32.00099945068359 L 104.447998046875 32.004383087158196 L 104.31300354003906 32.01300048828124 L 104.12799835205078 32.04800033569335 L 103.9489974975586 32.105998992919915 L 103.77899932861328 32.1860008239746 L 103.62000274658203 32.28699874877929 L 103.4739990234375 32.40700149536132 L 103.34500122070312 32.544998168945305 L 103.23500061035156 32.6969985961914 L 103.19583892822266 32.76800155639648 L 103.14399719238281 32.86199951171874 L 103.07499694824219 33.03699874877929 L 103.02799987792969 33.22000122070312 L 103.00399780273438 33.40700149536132 L 103.00399780273438 33.59500122070312 L 103.02799987792969 33.78200149536132 L 103.07499694824219 33.96400070190429 L 103.14399719238281 34.13999938964843 L 103.23500061035156 34.305000305175774 L 103.34500122070312 34.45700073242187 L 103.4739990234375 34.594001770019524 L 103.62000274658203 34.71400070190429 L 103.77899932861328 34.81499862670898 L 103.78109741210938 34.81600189208984 L 103.9489974975586 34.89599990844726 L 104.12799835205078 34.95399856567382 L 104.31300354003906 34.98899841308593 M 121.79100036621094 -72.13300323486327 L 121.85600280761719 -72.10756683349608 L 121.9520034790039 -72.0699996948242 L 122.11900329589844 -72.02700042724608 L 122.29000091552734 -72.00499725341795 L 122.46299743652344 -72.00499725341795 L 122.63400268554688 -72.02700042724608 L 122.8010025024414 -72.0699996948242 L 122.87999725341797 -72.10091400146483 L 122.96199798583984 -72.13300323486327 L 123.11299896240234 -72.21600341796874 L 123.25299835205078 -72.31800079345702 L 123.37899780273438 -72.43599700927733 L 123.48899841308594 -72.56900024414061 L 123.58100128173828 -72.71499633789061 L 123.65499877929688 -72.87100219726561 L 123.70800018310547 -73.03500366210936 L 123.74099731445312 -73.20500183105467 L 123.75199890136719 -73.37699890136717 L 123.74099731445312 -73.5500030517578 L 123.70800018310547 -73.71900177001952 L 123.70510864257812 -73.72799682617186 L 123.65499877929688 -73.88400268554686 L 123.58100128173828 -74.04000091552733 L 123.48899841308594 -74.18599700927733 L 123.37899780273438 -74.31900024414061 L 123.25299835205078 -74.43699645996092 L 123.11299896240234 -74.53800201416014 L 122.96199798583984 -74.6220016479492 L 122.87999725341797 -74.65408325195311 L 122.8010025024414 -74.68499755859374 L 122.63400268554688 -74.72799682617186 L 122.46299743652344 -74.74999999999999 L 122.29000091552734 -74.74999999999999 L 122.11900329589844 -74.72799682617186 L 121.9520034790039 -74.68499755859374 L 121.79100036621094 -74.6220016479492 L 121.63999938964844 -74.53800201416014 L 121.5 -74.43699645996092 L 121.3740005493164 -74.31900024414061 L 121.26399993896484 -74.18599700927733 L 121.1719970703125 -74.04000091552733 L 121.0979995727539 -73.88400268554686 L 121.04788970947266 -73.72799682617186 L 121.04499816894531 -73.71900177001952 L 121.01200103759766 -73.5500030517578 L 121.00199890136719 -73.37699890136717 L 121.01200103759766 -73.20500183105467 L 121.04499816894531 -73.03500366210936 L 121.0979995727539 -72.87100219726561 L 121.1719970703125 -72.71499633789061 L 121.26399993896484 -72.56900024414061 L 121.3740005493164 -72.43599700927733 L 121.5 -72.31800079345702 L 121.63999938964844 -72.21600341796874 L 121.79100036621094 -72.13300323486327 M 122.8010025024414 -14.067999839782711 L 122.87999725341797 -14.09891319274902 L 122.96199798583984 -14.130999565124508 L 123.11299896240234 -14.215000152587887 L 123.25299835205078 -14.315999984741207 L 123.27435302734375 -14.33600044250488 L 123.37899780273438 -14.434000015258786 L 123.48899841308594 -14.567000389099118 L 123.58100128173828 -14.713000297546383 L 123.65499877929688 -14.869000434875485 L 123.70800018310547 -15.034000396728512 L 123.74099731445312 -15.203000068664547 L 123.75199890136719 -15.376000404357907 L 123.74099731445312 -15.548000335693356 L 123.70800018310547 -15.718000411987301 L 123.65499877929688 -15.881999969482418 L 123.58100128173828 -16.03800010681152 L 123.48899841308594 -16.184000015258786 L 123.37899780273438 -16.3169994354248 L 123.30745697021484 -16.38400077819824 L 123.25299835205078 -16.43499946594238 L 123.11299896240234 -16.537000656127926 L 122.96199798583984 -16.620000839233395 L 122.87999725341797 -16.652086257934567 L 122.8010025024414 -16.68300056457519 L 122.63400268554688 -16.725999832153317 L 122.46299743652344 -16.747999191284176 L 122.29000091552734 -16.747999191284176 L 122.11900329589844 -16.725999832153317 L 121.9520034790039 -16.68300056457519 L 121.79100036621094 -16.620000839233395 L 121.63999938964844 -16.537000656127926 L 121.5 -16.43499946594238 L 121.44554138183594 -16.38400077819824 L 121.3740005493164 -16.3169994354248 L 121.26399993896484 -16.184000015258786 L 121.1719970703125 -16.03800010681152 L 121.0979995727539 -15.881999969482418 L 121.04499816894531 -15.718000411987301 L 121.01200103759766 -15.548000335693356 L 121.00199890136719 -15.376000404357907 L 121.01200103759766 -15.203000068664547 L 121.04499816894531 -15.034000396728512 L 121.0979995727539 -14.869000434875485 L 121.1719970703125 -14.713000297546383 L 121.26399993896484 -14.567000389099118 L 121.3740005493164 -14.434000015258786 L 121.47864532470703 -14.33600044250488 L 121.5 -14.315999984741207 L 121.63999938964844 -14.215000152587887 L 121.79100036621094 -14.130999565124508 L 121.9520034790039 -14.067999839782711 L 122.11900329589844 -14.02499961853027 L 122.29000091552734 -14.00300025939941 L 122.46299743652344 -14.00300025939941 L 122.63400268554688 -14.02499961853027 L 122.8010025024414 -14.067999839782711 M 10.232999801635742 34.305000305175774 L 10.239999771118164 34.31458663940429 L 10.343999862670898 34.45700073242187 L 10.472999572753906 34.594001770019524 L 10.618000030517578 34.71400070190429 L 10.777000427246094 34.81499862670898 L 10.946999549865723 34.89599990844726 L 11.12600040435791 34.95399856567382 L 11.310999870300293 34.98899841308593 L 11.49899959564209 35.00099945068359 L 11.687000274658203 34.98899841308593 L 11.871999740600586 34.95399856567382 L 12.052000045776367 34.89599990844726 L 12.222000122070312 34.81499862670898 L 12.288000106811523 34.77307510375976 L 12.380999565124512 34.71400070190429 L 12.526000022888184 34.594001770019524 L 12.654999732971191 34.45700073242187 L 12.765999794006348 34.305000305175774 L 12.857000350952148 34.13999938964843 L 12.925999641418457 33.96400070190429 L 12.972999572753906 33.78200149536132 L 12.996999740600586 33.59500122070312 L 12.996999740600586 33.40700149536132 L 12.972999572753906 33.22000122070312 L 12.925999641418457 33.03699874877929 L 12.857000350952148 32.86199951171874 L 12.805157661437988 32.76800155639648 L 12.765999794006348 32.6969985961914 L 12.654999732971191 32.544998168945305 L 12.526000022888184 32.40700149536132 L 12.380999565124512 32.28699874877929 L 12.288000106811523 32.22792434692382 L 12.222000122070312 32.1860008239746 L 12.052000045776367 32.105998992919915 L 11.871999740600586 32.04800033569335 L 11.687000274658203 32.01300048828124 L 11.49899959564209 32.00099945068359 L 11.310999870300293 32.01300048828124 L 11.12600040435791 32.04800033569335 L 10.946999549865723 32.105998992919915 L 10.777000427246094 32.1860008239746 L 10.618000030517578 32.28699874877929 L 10.472999572753906 32.40700149536132 L 10.343999862670898 32.544998168945305 L 10.232999801635742 32.6969985961914 L 10.193842887878418 32.76800155639648 L 10.142000198364258 32.86199951171874 L 10.072999954223633 33.03699874877929 L 10.026000022888184 33.22000122070312 L 10.001999855041504 33.40700149536132 L 10.001999855041504 33.59500122070312 L 10.026000022888184 33.78200149536132 L 10.072999954223633 33.96400070190429 L 10.142000198364258 34.13999938964843 L 10.232999801635742 34.305000305175774 M 34.816001892089844 -76.0175323486328 L 34.91400146484375 -76.00499725341795 L 35.08599853515625 -76.00499725341795 L 35.257999420166016 -76.02700042724608 L 35.42499923706055 -76.0699996948242 L 35.584999084472656 -76.13300323486327 L 35.73699951171875 -76.21600341796874 L 35.875999450683594 -76.31800079345702 L 36.00199890136719 -76.43599700927733 L 36.11199951171875 -76.56900024414061 L 36.20500183105469 -76.71499633789061 L 36.244773864746094 -76.8000030517578 L 36.27799987792969 -76.87100219726561 L 36.332000732421875 -77.03600311279295 L 36.36399841308594 -77.20500183105467 L 36.375 -77.37699890136717 L 36.36399841308594 -77.5500030517578 L 36.332000732421875 -77.71900177001952 L 36.297637939453125 -77.82399749755858 L 36.27799987792969 -77.88400268554686 L 36.20500183105469 -78.04000091552733 L 36.11199951171875 -78.18599700927733 L 36.00199890136719 -78.31900024414061 L 35.875999450683594 -78.43699645996092 L 35.73699951171875 -78.53800201416014 L 35.584999084472656 -78.6220016479492 L 35.42499923706055 -78.68499755859374 L 35.257999420166016 -78.72799682617186 L 35.08599853515625 -78.74999999999999 L 34.91400146484375 -78.74999999999999 L 34.816001892089844 -78.73746490478514 L 34.742000579833984 -78.72799682617186 L 34.57500076293945 -78.68499755859374 L 34.41400146484375 -78.6220016479492 L 34.26300048828125 -78.53800201416014 L 34.12300109863281 -78.43699645996092 L 33.99800109863281 -78.31900024414061 L 33.887001037597656 -78.18599700927733 L 33.79499816894531 -78.04000091552733 L 33.72100067138672 -77.88400268554686 L 33.70172882080078 -77.82399749755858 L 33.667999267578125 -77.71900177001952 L 33.63600158691406 -77.5500030517578 L 33.625 -77.37699890136717 L 33.63600158691406 -77.20500183105467 L 33.667999267578125 -77.03600311279295 L 33.72100067138672 -76.87100219726561 L 33.75468063354492 -76.8000030517578 L 33.79499816894531 -76.71499633789061 L 33.887001037597656 -76.56900024414061 L 33.99800109863281 -76.43599700927733 L 34.12300109863281 -76.31800079345702 L 34.26300048828125 -76.21600341796874 L 34.41400146484375 -76.13300323486327 L 34.57500076293945 -76.0699996948242 L 34.742000579833984 -76.02700042724608 L 34.816001892089844 -76.0175323486328 M 79.7959976196289 -76.71499633789061 L 79.87200164794922 -76.59439086914061 L 79.88800048828125 -76.56900024414061 L 79.99800109863281 -76.43599700927733 L 80.1240005493164 -76.31800079345702 L 80.26399993896484 -76.21600341796874 L 80.41500091552734 -76.13300323486327 L 80.57599639892578 -76.0699996948242 L 80.74299621582031 -76.02700042724608 L 80.91400146484375 -76.00499725341795 L 81.08699798583984 -76.00499725341795 L 81.25800323486328 -76.02700042724608 L 81.4260025024414 -76.0699996948242 L 81.58599853515625 -76.13300323486327 L 81.73799896240234 -76.21600341796874 L 81.87699890136719 -76.31800079345702 L 81.91999816894531 -76.35826873779295 L 82.00299835205078 -76.43599700927733 L 82.11299896240234 -76.56900024414061 L 82.20600128173828 -76.71499633789061 L 82.27899932861328 -76.87100219726561 L 82.33300018310547 -77.03600311279295 L 82.36499786376953 -77.20500183105467 L 82.3759994506836 -77.37699890136717 L 82.36499786376953 -77.5500030517578 L 82.33300018310547 -77.71900177001952 L 82.27899932861328 -77.88400268554686 L 82.20600128173828 -78.04000091552733 L 82.11299896240234 -78.18599700927733 L 82.00299835205078 -78.31900024414061 L 81.91999816894531 -78.39672851562499 L 81.87699890136719 -78.43699645996092 L 81.73799896240234 -78.53800201416014 L 81.58599853515625 -78.6220016479492 L 81.4260025024414 -78.68499755859374 L 81.25800323486328 -78.72799682617186 L 81.08699798583984 -78.74999999999999 L 80.91400146484375 -78.74999999999999 L 80.74299621582031 -78.72799682617186 L 80.57599639892578 -78.68499755859374 L 80.41500091552734 -78.6220016479492 L 80.26399993896484 -78.53800201416014 L 80.1240005493164 -78.43699645996092 L 79.99800109863281 -78.31900024414061 L 79.88800048828125 -78.18599700927733 L 79.87200164794922 -78.16060638427733 L 79.7959976196289 -78.04000091552733 L 79.72200012207031 -77.88400268554686 L 79.70272827148438 -77.82399749755858 L 79.66899871826172 -77.71900177001952 L 79.63700103759766 -77.5500030517578 L 79.6259994506836 -77.37699890136717 L 79.63700103759766 -77.20500183105467 L 79.66899871826172 -77.03600311279295 L 79.72200012207031 -76.87100219726561 L 79.7959976196289 -76.71499633789061 M 34.816001892089844 -10.015535354614256 L 34.91400146484375 -10.003000259399412 L 35.08599853515625 -10.003000259399412 L 35.257999420166016 -10.024999618530272 L 35.42499923706055 -10.067999839782713 L 35.584999084472656 -10.13099956512451 L 35.73699951171875 -10.215000152587889 L 35.77140426635742 -10.239999771118162 L 35.875999450683594 -10.31599998474121 L 36.00199890136719 -10.434000015258787 L 36.11199951171875 -10.56700038909912 L 36.20500183105469 -10.713000297546385 L 36.27799987792969 -10.869000434875487 L 36.332000732421875 -11.034000396728514 L 36.36399841308594 -11.203000068664549 L 36.375 -11.376000404357908 L 36.36399841308594 -11.548000335693358 L 36.332000732421875 -11.717000007629393 L 36.27799987792969 -11.88199996948242 L 36.20500183105469 -12.03800010681152 L 36.11199951171875 -12.184000015258786 L 36.02598571777344 -12.28800010681152 L 36.00199890136719 -12.317000389099118 L 35.875999450683594 -12.435000419616696 L 35.73699951171875 -12.536000251770016 L 35.584999084472656 -12.619999885559078 L 35.42499923706055 -12.682999610900875 L 35.257999420166016 -12.725999832153317 L 35.08599853515625 -12.748000144958493 L 34.91400146484375 -12.748000144958493 L 34.816001892089844 -12.735465049743649 L 34.742000579833984 -12.725999832153317 L 34.57500076293945 -12.682999610900875 L 34.41400146484375 -12.619999885559078 L 34.26300048828125 -12.536000251770016 L 34.12300109863281 -12.435000419616696 L 33.99800109863281 -12.317000389099118 L 33.97379684448242 -12.28800010681152 L 33.887001037597656 -12.184000015258786 L 33.79499816894531 -12.03800010681152 L 33.72100067138672 -11.88199996948242 L 33.667999267578125 -11.717000007629393 L 33.63600158691406 -11.548000335693358 L 33.625 -11.376000404357908 L 33.63600158691406 -11.203000068664549 L 33.667999267578125 -11.034000396728514 L 33.72100067138672 -10.869000434875487 L 33.79499816894531 -10.713000297546385 L 33.887001037597656 -10.56700038909912 L 33.99800109863281 -10.434000015258787 L 34.12300109863281 -10.31599998474121 L 34.22834777832031 -10.239999771118162 L 34.26300048828125 -10.215000152587889 L 34.41400146484375 -10.13099956512451 L 34.57500076293945 -10.067999839782713 L 34.742000579833984 -10.024999618530272 L 34.816001892089844 -10.015535354614256 M 79.7959976196289 -10.713000297546385 L 79.87200164794922 -10.59239101409912 L 79.88800048828125 -10.56700038909912 L 79.99800109863281 -10.434000015258787 L 80.1240005493164 -10.31599998474121 L 80.2293472290039 -10.239999771118162 L 80.26399993896484 -10.215000152587889 L 80.41500091552734 -10.13099956512451 L 80.57599639892578 -10.067999839782713 L 80.74299621582031 -10.024999618530272 L 80.91400146484375 -10.003000259399412 L 81.08699798583984 -10.003000259399412 L 81.25800323486328 -10.024999618530272 L 81.4260025024414 -10.067999839782713 L 81.58599853515625 -10.13099956512451 L 81.73799896240234 -10.215000152587889 L 81.77240753173828 -10.239999771118162 L 81.87699890136719 -10.31599998474121 L 81.91999816894531 -10.35626983642578 L 82.00299835205078 -10.434000015258787 L 82.11299896240234 -10.56700038909912 L 82.20600128173828 -10.713000297546385 L 82.27899932861328 -10.869000434875487 L 82.33300018310547 -11.034000396728514 L 82.36499786376953 -11.203000068664549 L 82.3759994506836 -11.376000404357908 L 82.36499786376953 -11.548000335693358 L 82.33300018310547 -11.717000007629393 L 82.27899932861328 -11.88199996948242 L 82.20600128173828 -12.03800010681152 L 82.11299896240234 -12.184000015258786 L 82.00299835205078 -12.317000389099118 L 81.91999816894531 -12.394730567932125 L 81.87699890136719 -12.435000419616696 L 81.73799896240234 -12.536000251770016 L 81.58599853515625 -12.619999885559078 L 81.4260025024414 -12.682999610900875 L 81.25800323486328 -12.725999832153317 L 81.08699798583984 -12.748000144958493 L 80.91400146484375 -12.748000144958493 L 80.74299621582031 -12.725999832153317 L 80.57599639892578 -12.682999610900875 L 80.41500091552734 -12.619999885559078 L 80.26399993896484 -12.536000251770016 L 80.1240005493164 -12.435000419616696 L 79.99800109863281 -12.317000389099118 L 79.97401428222656 -12.28800010681152 L 79.88800048828125 -12.184000015258786 L 79.87200164794922 -12.158608436584469 L 79.7959976196289 -12.03800010681152 L 79.72200012207031 -11.88199996948242 L 79.66899871826172 -11.717000007629393 L 79.63700103759766 -11.548000335693358 L 79.6259994506836 -11.376000404357908 L 79.63700103759766 -11.203000068664549 L 79.66899871826172 -11.034000396728514 L 79.72200012207031 -10.869000434875487 L 79.7959976196289 -10.713000297546385 M -7.789999961853027 -69.3000030517578 L -7.801000118255615 -69.12699890136717 L -7.796395301818848 -69.05500030517577 L -7.789999961853027 -68.95500183105467 L -7.757999897003174 -68.78500366210936 L -7.703999996185303 -68.62100219726561 L -7.697916507720947 -68.60800170898436 L -7.63100004196167 -68.46499633789061 L -7.538000106811523 -68.31900024414061 L -7.427999973297119 -68.18599700927733 L -7.302000045776367 -68.06800079345702 L -7.163000106811523 -67.96600341796874 L -7.011000156402588 -67.88300323486327 L -6.85099983215332 -67.81900024414061 L -6.684000015258789 -67.77700042724608 L -6.51200008392334 -67.75499725341795 L -6.340000152587891 -67.75499725341795 L -6.168000221252441 -67.77700042724608 L -6.144000053405762 -67.7830352783203 L -6.000999927520752 -67.81900024414061 L -5.840000152587891 -67.88300323486327 L -5.689000129699707 -67.96600341796874 L -5.548999786376953 -68.06800079345702 L -5.423999786376953 -68.18599700927733 L -5.313000202178955 -68.31900024414061 L -5.2210001945495605 -68.46499633789061 L -5.146999835968018 -68.62100219726561 L -5.093999862670898 -68.78500366210936 L -5.061999797821045 -68.95500183105467 L -5.055604457855225 -69.05500030517577 L -5.051000118255615 -69.12699890136717 L -5.061999797821045 -69.3000030517578 L -5.093999862670898 -69.46900177001952 L -5.146677017211914 -69.63200378417967 L -5.146999835968018 -69.63300323486327 L -5.2210001945495605 -69.79000091552733 L -5.313000202178955 -69.93499755859374 L -5.423999786376953 -70.06900024414061 L -5.548999786376953 -70.18699645996092 L -5.689000129699707 -70.28800201416014 L -5.840000152587891 -70.37100219726561 L -6.000999927520752 -70.43499755859374 L -6.144000053405762 -70.47181701660155 L -6.168000221252441 -70.47799682617186 L -6.340000152587891 -70.49999999999999 L -6.51200008392334 -70.49999999999999 L -6.684000015258789 -70.47799682617186 L -6.85099983215332 -70.43499755859374 L -7.011000156402588 -70.37100219726561 L -7.163000106811523 -70.28800201416014 L -7.302000045776367 -70.18699645996092 L -7.427999973297119 -70.06900024414061 L -7.538000106811523 -69.93499755859374 L -7.63100004196167 -69.79000091552733 L -7.703999996185303 -69.63300323486327 L -7.704329490661621 -69.63200378417967 L -7.757999897003174 -69.46900177001952 L -7.789999961853027 -69.3000030517578 M -22.628999710083008 -17.38400077819824 L -22.527999877929688 -17.289413452148434 L -22.503000259399414 -17.26600074768066 L -22.363000869750977 -17.16500091552734 L -22.211999893188477 -17.08200073242187 L -22.051000595092773 -17.017999649047848 L -21.884000778198242 -16.975000381469723 L -21.71299934387207 -16.95299911499023 L -21.540000915527344 -16.95299911499023 L -21.368999481201172 -16.975000381469723 L -21.201000213623047 -17.017999649047848 L -21.041000366210938 -17.08200073242187 L -20.888999938964844 -17.16500091552734 L -20.75 -17.26600074768066 L -20.624000549316406 -17.38400077819824 L -20.513999938964844 -17.517000198364254 L -20.479999542236328 -17.57037544250488 L -20.42099952697754 -17.66300010681152 L -20.347999572753906 -17.819999694824215 L -20.29400062561035 -17.983999252319332 L -20.261999130249023 -18.152999877929684 L -20.250999450683594 -18.326000213623043 L -20.261999130249023 -18.497999191284176 L -20.29400062561035 -18.66799926757812 L -20.347999572753906 -18.83200073242187 L -20.42099952697754 -18.988000869750973 L -20.479999542236328 -19.08062362670898 L -20.513999938964844 -19.13400077819824 L -20.624000549316406 -19.267000198364254 L -20.75 -19.385000228881832 L -20.888999938964844 -19.486999511718746 L -21.041000366210938 -19.569999694824215 L -21.201000213623047 -19.632999420166012 L -21.368999481201172 -19.67600059509277 L -21.540000915527344 -19.69799995422363 L -21.71299934387207 -19.69799995422363 L -21.884000778198242 -19.67600059509277 L -22.051000595092773 -19.632999420166012 L -22.211999893188477 -19.569999694824215 L -22.363000869750977 -19.486999511718746 L -22.503000259399414 -19.385000228881832 L -22.527999877929688 -19.36158752441406 L -22.628999710083008 -19.267000198364254 L -22.73900032043457 -19.13400077819824 L -22.83099937438965 -18.988000869750973 L -22.905000686645508 -18.83200073242187 L -22.95800018310547 -18.66799926757812 L -22.989999771118164 -18.497999191284176 L -22.994220733642578 -18.431999206542965 L -23.000999450683594 -18.326000213623043 L -22.989999771118164 -18.152999877929684 L -22.95800018310547 -17.983999252319332 L -22.905000686645508 -17.819999694824215 L -22.83099937438965 -17.66300010681152 L -22.73900032043457 -17.517000198364254 L -22.628999710083008 -17.38400077819824 M 104.447998046875 89.99961853027342 L 104.5009994506836 90.00299835205077 L 104.68900299072266 89.99099731445311 L 104.8740005493164 89.95500183105467 L 105.0530014038086 89.89700317382811 L 105.2239990234375 89.81700134277342 L 105.38300323486328 89.71600341796874 L 105.52799987792969 89.5960006713867 L 105.65699768066406 89.45899963378905 L 105.76799774169922 89.30599975585936 L 105.85800170898438 89.14099884033202 L 105.87920379638672 89.08799743652342 L 105.9280014038086 88.96600341796874 L 105.9749984741211 88.78399658203124 L 105.99800109863281 88.5970001220703 L 105.99800109863281 88.40799713134764 L 105.9749984741211 88.2210006713867 L 105.93445587158203 88.06400299072264 L 105.9280014038086 88.03900146484374 L 105.85800170898438 87.86399841308592 L 105.76799774169922 87.69899749755858 L 105.65699768066406 87.54599761962889 L 105.52799987792969 87.40899658203124 L 105.38300323486328 87.28900146484374 L 105.2239990234375 87.18800354003905 L 105.0530014038086 87.10800170898436 L 104.8740005493164 87.0500030517578 L 104.68900299072266 87.01399993896483 L 104.5009994506836 87.00199890136717 L 104.447998046875 87.00538635253905 L 104.31300354003906 87.01399993896483 L 104.12799835205078 87.0500030517578 L 103.9489974975586 87.10800170898436 L 103.77899932861328 87.18800354003905 L 103.62000274658203 87.28900146484374 L 103.4739990234375 87.40899658203124 L 103.34500122070312 87.54599761962889 L 103.23500061035156 87.69899749755858 L 103.14399719238281 87.86399841308592 L 103.07499694824219 88.03900146484374 L 103.06854248046875 88.06400299072264 L 103.02799987792969 88.2210006713867 L 103.00399780273438 88.40799713134764 L 103.00399780273438 88.5970001220703 L 103.02799987792969 88.78399658203124 L 103.07499694824219 88.96600341796874 L 103.14399719238281 89.14099884033202 L 103.23500061035156 89.30599975585936 L 103.34500122070312 89.45899963378905 L 103.4739990234375 89.5960006713867 L 103.62000274658203 89.71600341796874 L 103.77899932861328 89.81700134277342 L 103.9489974975586 89.89700317382811 L 104.12799835205078 89.95500183105467 L 104.31300354003906 89.99099731445311 L 104.447998046875 89.99961853027342 M 10.232999801635742 89.30599975585936 L 10.239999771118164 89.31565093994139 L 10.343999862670898 89.45899963378905 L 10.472999572753906 89.5960006713867 L 10.618000030517578 89.71600341796874 L 10.777000427246094 89.81700134277342 L 10.946999549865723 89.89700317382811 L 11.12600040435791 89.95500183105467 L 11.310999870300293 89.99099731445311 L 11.49899959564209 90.00299835205077 L 11.687000274658203 89.99099731445311 L 11.871999740600586 89.95500183105467 L 12.052000045776367 89.89700317382811 L 12.222000122070312 89.81700134277342 L 12.288000106811523 89.7750778198242 L 12.380999565124512 89.71600341796874 L 12.526000022888184 89.5960006713867 L 12.654999732971191 89.45899963378905 L 12.765999794006348 89.30599975585936 L 12.857000350952148 89.14099884033202 L 12.925999641418457 88.96600341796874 L 12.972999572753906 88.78399658203124 L 12.996999740600586 88.5970001220703 L 12.996999740600586 88.40799713134764 L 12.972999572753906 88.2210006713867 L 12.932456016540527 88.06400299072264 L 12.925999641418457 88.03900146484374 L 12.857000350952148 87.86399841308592 L 12.765999794006348 87.69899749755858 L 12.654999732971191 87.54599761962889 L 12.526000022888184 87.40899658203124 L 12.380999565124512 87.28900146484374 L 12.288000106811523 87.22992706298827 L 12.222000122070312 87.18800354003905 L 12.052000045776367 87.10800170898436 L 11.871999740600586 87.0500030517578 L 11.687000274658203 87.01399993896483 L 11.49899959564209 87.00199890136717 L 11.310999870300293 87.01399993896483 L 11.12600040435791 87.0500030517578 L 10.946999549865723 87.10800170898436 L 10.777000427246094 87.18800354003905 L 10.618000030517578 87.28900146484374 L 10.472999572753906 87.40899658203124 L 10.343999862670898 87.54599761962889 L 10.239999771118164 87.68935394287108 L 10.232999801635742 87.69899749755858 L 10.142000198364258 87.86399841308592 L 10.072999954223633 88.03900146484374 L 10.066543579101562 88.06400299072264 L 10.026000022888184 88.2210006713867 L 10.001999855041504 88.40799713134764 L 10.001999855041504 88.5970001220703 L 10.026000022888184 88.78399658203124 L 10.072999954223633 88.96600341796874 L 10.142000198364258 89.14099884033202 L 10.232999801635742 89.30599975585936 M -82.41999816894531 55.1590003967285 L -81.91999816894531 55.321247100830064 L -80.98699951171875 55.62400054931639 L -79.50599670410156 55.907001495361314 L -78.00199890136719 56.00099945068358 L -76.49800109863281 55.907001495361314 L -75.01799774169922 55.62400054931639 L -73.58499908447266 55.1590003967285 L -72.22100067138672 54.51699829101561 L -70.9489974975586 53.70999908447264 L -69.78800201416016 52.74900054931639 L -68.75599670410156 51.65000152587889 L -67.87000274658203 50.43099975585936 L -67.16654968261719 49.15200042724608 L -67.14399719238281 49.11100006103514 L -66.58899688720703 47.708999633789055 L -66.21499633789062 46.24999999999999 L -66.0260009765625 44.75500106811523 L -66.0260009765625 43.248001098632805 L -66.21499633789062 41.75199890136718 L -66.58899688720703 40.29299926757812 L -67.14399719238281 38.89199829101562 L -67.87000274658203 37.570999145507805 L -68.75599670410156 36.35200119018554 L -69.78800201416016 35.252998352050774 L -70.9489974975586 34.29299926757812 L -72.22100067138672 33.485000610351555 L -73.58499908447266 32.842998504638665 L -73.81613159179688 32.76800155639648 L -75.01799774169922 32.377998352050774 L -76.49800109863281 32.09500122070312 L -78.00199890136719 32.00099945068359 L -79.50599670410156 32.09500122070312 L -80.98699951171875 32.377998352050774 L -82.18887329101562 32.76800155639648 L -82.41999816894531 32.842998504638665 L -83.78299713134766 33.485000610351555 L -85.05599975585938 34.29299926757812 L -86.21700286865234 35.252998352050774 L -87.2490005493164 36.35200119018554 L -88.13400268554688 37.570999145507805 L -88.86000061035156 38.89199829101562 L -89.41500091552734 40.29299926757812 L -89.79000091552734 41.75199890136718 L -89.97899627685547 43.248001098632805 L -89.97899627685547 44.75500106811523 L -89.79000091552734 46.24999999999999 L -89.41500091552734 47.708999633789055 L -88.86000061035156 49.11100006103514 L -88.83744812011719 49.15200042724608 L -88.13400268554688 50.43099975585936 L -87.2490005493164 51.65000152587889 L -86.21700286865234 52.74900054931639 L -85.05599975585938 53.70999908447264 L -83.78299713134766 54.51699829101561 L -82.41999816894531 55.1590003967285 M -55.36399841308594 -69.26599884033202 L -55.29600143432617 -69.22886657714842 L -55.21200180053711 -69.18299865722655 L -55.051998138427734 -69.12000274658202 L -54.88399887084961 -69.07700347900389 L -54.7130012512207 -69.05500030517577 L -54.540000915527344 -69.05500030517577 L -54.36899948120117 -69.07700347900389 L -54.20199966430664 -69.12000274658202 L -54.04100036621094 -69.18299865722655 L -53.88999938964844 -69.26599884033202 L -53.75 -69.3679962158203 L -53.624000549316406 -69.48600006103514 L -53.513999938964844 -69.61900329589842 L -53.50580978393555 -69.63200378417967 L -53.422000885009766 -69.76499938964842 L -53.347999572753906 -69.92099761962889 L -53.29499816894531 -70.08499908447264 L -53.26300048828125 -70.25499725341795 L -53.25199890136719 -70.42700195312499 L -53.26300048828125 -70.59999847412108 L -53.27360534667969 -70.65599822998045 L -53.29499816894531 -70.7689971923828 L -53.347999572753906 -70.93299865722655 L -53.422000885009766 -71.08999633789061 L -53.513999938964844 -71.23500061035155 L -53.624000549316406 -71.36900329589842 L -53.75 -71.48699951171874 L -53.88999938964844 -71.58799743652342 L -54.04100036621094 -71.67099761962889 L -54.06364059448242 -71.68000030517577 L -54.20199966430664 -71.73500061035155 L -54.36899948120117 -71.77799987792967 L -54.540000915527344 -71.8000030517578 L -54.7130012512207 -71.8000030517578 L -54.88399887084961 -71.77799987792967 L -55.051998138427734 -71.73500061035155 L -55.18949890136719 -71.68000030517577 L -55.21200180053711 -71.67099761962889 L -55.29600143432617 -71.62512969970702 L -55.36399841308594 -71.58799743652342 L -55.50299835205078 -71.48699951171874 L -55.62900161743164 -71.36900329589842 L -55.73899841308594 -71.23500061035155 L -55.832000732421875 -71.08999633789061 L -55.904998779296875 -70.93299865722655 L -55.95899963378906 -70.7689971923828 L -55.99100112915039 -70.59999847412108 L -56.00199890136719 -70.42700195312499 L -55.99100112915039 -70.25499725341795 L -55.95899963378906 -70.08499908447264 L -55.904998779296875 -69.92099761962889 L -55.832000732421875 -69.76499938964842 L -55.74728012084961 -69.63200378417967 L -55.73899841308594 -69.61900329589842 L -55.62900161743164 -69.48600006103514 L -55.50299835205078 -69.3679962158203 L -55.36399841308594 -69.26599884033202 M -50.263999938964844 -17.16500091552734 L -50.17599868774414 -17.116947174072262 L -50.11199951171875 -17.08200073242187 L -49.95199966430664 -17.017999649047848 L -49.784000396728516 -16.975000381469723 L -49.612998962402344 -16.95299911499023 L -49.439998626708984 -16.95299911499023 L -49.26900100708008 -16.975000381469723 L -49.152000427246094 -17.005125045776364 L -49.10200119018555 -17.017999649047848 L -48.941001892089844 -17.08200073242187 L -48.790000915527344 -17.16500091552734 L -48.650001525878906 -17.26600074768066 L -48.52399826049805 -17.38400077819824 L -48.41400146484375 -17.517000198364254 L -48.321998596191406 -17.66300010681152 L -48.24800109863281 -17.819999694824215 L -48.19499969482422 -17.983999252319332 L -48.16299819946289 -18.152999877929684 L -48.152000427246094 -18.326000213623043 L -48.15877914428711 -18.431999206542965 L -48.16299819946289 -18.497999191284176 L -48.19499969482422 -18.66799926757812 L -48.24800109863281 -18.83200073242187 L -48.321998596191406 -18.988000869750973 L -48.41400146484375 -19.13400077819824 L -48.52399826049805 -19.267000198364254 L -48.650001525878906 -19.385000228881832 L -48.790000915527344 -19.486999511718746 L -48.941001892089844 -19.569999694824215 L -49.10200119018555 -19.632999420166012 L -49.152000427246094 -19.645874023437496 L -49.26900100708008 -19.67600059509277 L -49.439998626708984 -19.69799995422363 L -49.612998962402344 -19.69799995422363 L -49.784000396728516 -19.67600059509277 L -49.95199966430664 -19.632999420166012 L -50.11199951171875 -19.569999694824215 L -50.263999938964844 -19.486999511718746 L -50.40299987792969 -19.385000228881832 L -50.52899932861328 -19.267000198364254 L -50.638999938964844 -19.13400077819824 L -50.731998443603516 -18.988000869750973 L -50.80500030517578 -18.83200073242187 L -50.85900115966797 -18.66799926757812 L -50.89099884033203 -18.497999191284176 L -50.89522171020508 -18.431999206542965 L -50.902000427246094 -18.326000213623043 L -50.89099884033203 -18.152999877929684 L -50.85900115966797 -17.983999252319332 L -50.80500030517578 -17.819999694824215 L -50.731998443603516 -17.66300010681152 L -50.638999938964844 -17.517000198364254 L -50.52899932861328 -17.38400077819824 L -50.40299987792969 -17.26600074768066 L -50.263999938964844 -17.16500091552734 M -82.70500183105469 88.47499847412108 L -81.91999816894531 88.97244262695311 L -81.85600280761719 89.01300048828124 L -80.9469985961914 89.44100189208983 L -79.99199676513672 89.75099945068358 L -79.00499725341797 89.93900299072264 L -78.00199890136719 90.00299835205077 L -77 89.93900299072264 L -76.01300048828125 89.75099945068358 L -75.05699920654297 89.44100189208983 L -74.14800262451172 89.01300048828124 L -73.72799682617188 88.7465362548828 L -73.30000305175781 88.47499847412108 L -72.5260009765625 87.83399963378905 L -71.83799743652344 87.10199737548827 L -71.24800109863281 86.28900146484374 L -70.76399993896484 85.40899658203124 L -70.39399719238281 84.47399902343749 L -70.14399719238281 83.50099945068358 L -70.01799774169922 82.50499725341795 L -70.01799774169922 81.9199981689453 L -70.01799774169922 81.49999999999999 L -70.14399719238281 80.50299835205077 L -70.39399719238281 79.52999877929686 L -70.76399993896484 78.5960006713867 L -71.24800109863281 77.71600341796874 L -71.83799743652344 76.90299987792967 L -72.5260009765625 76.1699981689453 L -73.30000305175781 75.52999877929686 L -73.72799682617188 75.25846099853514 L -74.14800262451172 74.9919967651367 L -75.05699920654297 74.56400299072264 L -76.01300048828125 74.25299835205077 L -77 74.06500244140624 L -78.00199890136719 74.00199890136717 L -79.00499725341797 74.06500244140624 L -79.99199676513672 74.25299835205077 L -80.9469985961914 74.56400299072264 L -81.85600280761719 74.9919967651367 L -81.91999816894531 75.03255462646483 L -82.70500183105469 75.52999877929686 L -83.47899627685547 76.1699981689453 L -84.16699981689453 76.90299987792967 L -84.75700378417969 77.71600341796874 L -85.24099731445312 78.5960006713867 L -85.61100006103516 79.52999877929686 L -85.86100006103516 80.50299835205077 L -85.98699951171875 81.49999999999999 L -85.98699951171875 81.9199981689453 L -85.98699951171875 82.50499725341795 L -85.86100006103516 83.50099945068358 L -85.61100006103516 84.47399902343749 L -85.24099731445312 85.40899658203124 L -84.75700378417969 86.28900146484374 L -84.16699981689453 87.10199737548827 L -83.47899627685547 87.83399963378905 L -82.70500183105469 88.47499847412108 z" fill="none" stroke="rgb(255,0,0)" stroke-width="0.001mm" />
</svg>