<?xml version="1.0" standalone="no"?>
<!DOCTYPE svg PUBLIC "-//W3C//DTD SVG 1.1//EN"
  "http://www.w3.org/Graphics/SVG/1.1/DTD/svg11.dtd">
<svg width="472mm" height="371.9999999999999mm" viewBox="-101 -270.99999999999994 472 371.9999999999999" xmlns="http://www.w3.org/2000/svg" version="1.1">
	<title>svgOutput</title>
	<desc>made with tinkercad</desc>
<path d="M 370 99.99999999999997 L 263.6289978027344 99.99999999999997 L 255.2570037841797 99.99999999999997 L 253.75599670410156 99.99999999999997 L 242.9949951171875 99.99999999999997 L 214.62399291992188 99.99999999999997 L 162.5019989013672 99.99999999999997 L 104.49800109863281 99.99999999999997 L 86.99700164794922 99.99999999999997 L 27.256000518798828 99.99999999999997 L 25.756000518798828 99.99999999999997 L 14.994999885559082 99.99999999999997 L 8.720999717712402 99.99999999999997 L 3.621000051498413 99.99999999999997 L -28.006000518798828 99.99999999999997 L -100 99.99999999999997 L -100 -269.99999999999994 L -28.006000518798828 -269.99999999999994 L -12.031999588012695 -269.99999999999994 L 3.621000051498413 -269.99999999999994 L 6.370999813079834 -269.99999999999994 L 8.720999717712402 -269.99999999999994 L 11.472000122070312 -269.99999999999994 L 36.624000549316406 -269.99999999999994 L 39.375 -269.99999999999994 L 51.82600021362305 -269.99999999999994 L 54.57600021362305 -269.99999999999994 L 104.49800109863281 -269.99999999999994 L 107.49800109863281 -269.99999999999994 L 162.5019989013672 -269.99999999999994 L 165.5030059814453 -269.99999999999994 L 214.62399291992188 -269.99999999999994 L 217.37399291992188 -269.99999999999994 L 263.6289978027344 -269.99999999999994 L 266.3789978027344 -269.99999999999994 L 370 -269.99999999999994 L 370 -130.87300109863278 L 370 -101.99999999999997 L 370 99.99999999999997 M 163.53900146484375 -130.94599914550778 L 164.0019989013672 -130.87300109863278 L 164.46600341796875 -130.94599914550778 L 164.71327209472656 -131.0720062255859 L 164.88400268554688 -131.15899658203122 L 165.21600341796875 -131.49200439453122 L 165.4290008544922 -131.9109954833984 L 165.5030059814453 -132.37499999999997 L 165.4290008544922 -132.83900451660153 L 165.21600341796875 -133.25799560546872 L 164.88400268554688 -133.59100341796872 L 164.46600341796875 -133.80400085449216 L 164.0019989013672 -133.87800598144528 L 163.83999633789062 -133.85211181640622 L 163.53900146484375 -133.80400085449216 L 163.12100219726562 -133.59100341796872 L 162.78900146484375 -133.25799560546872 L 162.5760040283203 -132.83900451660153 L 162.5019989013672 -132.37499999999997 L 162.5760040283203 -131.9109954833984 L 162.78900146484375 -131.49200439453122 L 163.12100219726562 -131.15899658203122 L 163.29173278808594 -131.0720062255859 L 163.53900146484375 -130.94599914550778 M 264.12701416015625 -160.31799316406247 L 264.1919860839844 -160.27064514160153 L 264.2669982910156 -160.21600341796872 L 264.4179992675781 -160.13299560546872 L 264.5790100097656 -160.07000732421872 L 264.7460021972656 -160.02699279785153 L 264.9179992675781 -160.00500488281247 L 265.0899963378906 -160.00500488281247 L 265.2619934082031 -160.02699279785153 L 265.4289855957031 -160.07000732421872 L 265.5889892578125 -160.13299560546872 L 265.7409973144531 -160.21600341796872 L 265.8800048828125 -160.31799316406247 L 266.0060119628906 -160.43600463867185 L 266.1159973144531 -160.5690002441406 L 266.2090148925781 -160.7149963378906 L 266.239990234375 -160.78124999999997 L 266.2820129394531 -160.8710021972656 L 266.33599853515625 -161.03500366210935 L 266.3680114746094 -161.20500183105466 L 266.3789978027344 -161.37699890136716 L 266.3680114746094 -161.55000305175778 L 266.33599853515625 -161.71899414062497 L 266.2820129394531 -161.88400268554685 L 266.239990234375 -161.97375488281247 L 266.2090148925781 -162.03999328613278 L 266.1159973144531 -162.18600463867185 L 266.0060119628906 -162.3190002441406 L 265.8800048828125 -162.4369964599609 L 265.7409973144531 -162.5379943847656 L 265.5889892578125 -162.62199401855466 L 265.4289855957031 -162.68499755859372 L 265.2619934082031 -162.72799682617185 L 265.0899963378906 -162.74999999999997 L 264.9179992675781 -162.74999999999997 L 264.7460021972656 -162.72799682617185 L 264.5790100097656 -162.68499755859372 L 264.4179992675781 -162.62199401855466 L 264.2669982910156 -162.5379943847656 L 264.1919860839844 -162.48388671874997 L 264.12701416015625 -162.4369964599609 L 264.0010070800781 -162.3190002441406 L 263.8909912109375 -162.18600463867185 L 263.79901123046875 -162.03999328613278 L 263.7250061035156 -161.88400268554685 L 263.6954345703125 -161.79200744628903 L 263.6719970703125 -161.71899414062497 L 263.6400146484375 -161.55000305175778 L 263.6289978027344 -161.37699890136716 L 263.6400146484375 -161.20500183105466 L 263.6719970703125 -161.03500366210935 L 263.7250061035156 -160.8710021972656 L 263.79901123046875 -160.7149963378906 L 263.8909912109375 -160.5690002441406 L 264.0010070800781 -160.43600463867185 L 264.12701416015625 -160.31799316406247 M 214.9969940185547 -160.43600463867185 L 215.0399932861328 -160.3957366943359 L 215.1230010986328 -160.31799316406247 L 215.26199340820312 -160.21600341796872 L 215.41400146484375 -160.13299560546872 L 215.57400512695312 -160.07000732421872 L 215.74099731445312 -160.02699279785153 L 215.91299438476562 -160.00500488281247 L 216.0850067138672 -160.00500488281247 L 216.2570037841797 -160.02699279785153 L 216.4239959716797 -160.07000732421872 L 216.5850067138672 -160.13299560546872 L 216.73599243164062 -160.21600341796872 L 216.87600708007812 -160.31799316406247 L 217.0019989013672 -160.43600463867185 L 217.08799743652344 -160.53997802734372 L 217.11199951171875 -160.5690002441406 L 217.20399475097656 -160.7149963378906 L 217.2779998779297 -160.8710021972656 L 217.33099365234375 -161.03500366210935 L 217.36300659179688 -161.20500183105466 L 217.37399291992188 -161.37699890136716 L 217.36300659179688 -161.55000305175778 L 217.33099365234375 -161.71899414062497 L 217.2779998779297 -161.88400268554685 L 217.20399475097656 -162.03999328613278 L 217.11199951171875 -162.18600463867185 L 217.08799743652344 -162.21501159667966 L 217.0019989013672 -162.3190002441406 L 216.87600708007812 -162.4369964599609 L 216.73599243164062 -162.5379943847656 L 216.5850067138672 -162.62199401855466 L 216.4239959716797 -162.68499755859372 L 216.2570037841797 -162.72799682617185 L 216.0850067138672 -162.74999999999997 L 215.91299438476562 -162.74999999999997 L 215.74099731445312 -162.72799682617185 L 215.57400512695312 -162.68499755859372 L 215.41400146484375 -162.62199401855466 L 215.26199340820312 -162.5379943847656 L 215.1230010986328 -162.4369964599609 L 215.0399932861328 -162.35926818847653 L 214.9969940185547 -162.3190002441406 L 214.88699340820312 -162.18600463867185 L 214.79400634765625 -162.03999328613278 L 214.7209930419922 -161.88400268554685 L 214.69088745117188 -161.79200744628903 L 214.66700744628906 -161.71899414062497 L 214.63499450683594 -161.55000305175778 L 214.62399291992188 -161.37699890136716 L 214.63499450683594 -161.20500183105466 L 214.66700744628906 -161.03500366210935 L 214.7209930419922 -160.8710021972656 L 214.79400634765625 -160.7149963378906 L 214.88699340820312 -160.5690002441406 L 214.9969940185547 -160.43600463867185 M 265.8800048828125 -102.31300354003903 L 265.972900390625 -102.40000152587888 L 266.0060119628906 -102.43099975585935 L 266.1159973144531 -102.56400299072263 L 266.2090148925781 -102.70999908447263 L 266.239990234375 -102.77624511718747 L 266.2820129394531 -102.8659973144531 L 266.33599853515625 -103.03099822998044 L 266.3680114746094 -103.19999694824216 L 266.3789978027344 -103.37300109863278 L 266.3680114746094 -103.54499816894528 L 266.33599853515625 -103.7149963378906 L 266.2820129394531 -103.87899780273435 L 266.239990234375 -103.96874999999997 L 266.2090148925781 -104.03500366210935 L 266.1159973144531 -104.18099975585935 L 266.0060119628906 -104.31400299072263 L 265.8800048828125 -104.43199920654294 L 265.8581848144531 -104.44799804687497 L 265.7409973144531 -104.53399658203122 L 265.5889892578125 -104.61699676513669 L 265.4289855957031 -104.68000030517575 L 265.2619934082031 -104.72299957275388 L 265.0899963378906 -104.745002746582 L 264.9179992675781 -104.745002746582 L 264.7460021972656 -104.72299957275388 L 264.5790100097656 -104.68000030517575 L 264.4179992675781 -104.61699676513669 L 264.2669982910156 -104.53399658203122 L 264.1919860839844 -104.47935485839841 L 264.1489562988281 -104.44799804687497 L 264.12701416015625 -104.43199920654294 L 264.0010070800781 -104.31400299072263 L 263.8909912109375 -104.18099975585935 L 263.79901123046875 -104.03500366210935 L 263.7250061035156 -103.87899780273435 L 263.6719970703125 -103.7149963378906 L 263.6400146484375 -103.54499816894528 L 263.63226318359375 -103.42400360107419 L 263.6289978027344 -103.37300109863278 L 263.6400146484375 -103.19999694824216 L 263.6719970703125 -103.03099822998044 L 263.7250061035156 -102.8659973144531 L 263.79901123046875 -102.70999908447263 L 263.8909912109375 -102.56400299072263 L 264.0010070800781 -102.43099975585935 L 264.0340881347656 -102.40000152587888 L 264.12701416015625 -102.31300354003903 L 264.2669982910156 -102.21199798583982 L 264.4179992675781 -102.12799835205075 L 264.5790100097656 -102.06500244140622 L 264.7460021972656 -102.0220031738281 L 264.9179992675781 -101.99999999999997 L 265.0899963378906 -101.99999999999997 L 265.2619934082031 -102.0220031738281 L 265.4289855957031 -102.06500244140622 L 265.5889892578125 -102.12799835205075 L 265.7409973144531 -102.21199798583982 L 265.8800048828125 -102.31300354003903 M 216.87600708007812 -102.31300354003903 L 216.96890258789062 -102.40000152587888 L 217.0019989013672 -102.43099975585935 L 217.08799743652344 -102.53498077392575 L 217.11199951171875 -102.56400299072263 L 217.20399475097656 -102.70999908447263 L 217.2779998779297 -102.8659973144531 L 217.33099365234375 -103.03099822998044 L 217.36300659179688 -103.19999694824216 L 217.37399291992188 -103.37300109863278 L 217.36300659179688 -103.54499816894528 L 217.33099365234375 -103.7149963378906 L 217.2779998779297 -103.87899780273435 L 217.20399475097656 -104.03500366210935 L 217.11199951171875 -104.18099975585935 L 217.08799743652344 -104.21002197265622 L 217.0019989013672 -104.31400299072263 L 216.87600708007812 -104.43199920654294 L 216.85403442382812 -104.44799804687497 L 216.73599243164062 -104.53399658203122 L 216.5850067138672 -104.61699676513669 L 216.4239959716797 -104.68000030517575 L 216.2570037841797 -104.72299957275388 L 216.0850067138672 -104.745002746582 L 215.91299438476562 -104.745002746582 L 215.74099731445312 -104.72299957275388 L 215.57400512695312 -104.68000030517575 L 215.41400146484375 -104.61699676513669 L 215.26199340820312 -104.53399658203122 L 215.14480590820312 -104.44799804687497 L 215.1230010986328 -104.43199920654294 L 215.0399932861328 -104.35427093505857 L 214.9969940185547 -104.31400299072263 L 214.88699340820312 -104.18099975585935 L 214.79400634765625 -104.03500366210935 L 214.7209930419922 -103.87899780273435 L 214.66700744628906 -103.7149963378906 L 214.63499450683594 -103.54499816894528 L 214.62399291992188 -103.37300109863278 L 214.63499450683594 -103.19999694824216 L 214.66700744628906 -103.03099822998044 L 214.7209930419922 -102.8659973144531 L 214.79400634765625 -102.70999908447263 L 214.88699340820312 -102.56400299072263 L 214.9969940185547 -102.43099975585935 L 215.0301055908203 -102.40000152587888 L 215.1230010986328 -102.31300354003903 L 215.26199340820312 -102.21199798583982 L 215.41400146484375 -102.12799835205075 L 215.57400512695312 -102.06500244140622 L 215.74099731445312 -102.0220031738281 L 215.91299438476562 -101.99999999999997 L 216.0850067138672 -101.99999999999997 L 216.2570037841797 -102.0220031738281 L 216.4239959716797 -102.06500244140622 L 216.5850067138672 -102.12799835205075 L 216.73599243164062 -102.21199798583982 L 216.87600708007812 -102.31300354003903 M 248.8979949951172 -24.447000503540032 L 249.01934814453125 -24.57600021362304 L 249.19900512695312 -24.76700019836425 L 249.45799255371094 -25.122999191284173 L 249.6699981689453 -25.509000778198235 L 249.83299255371094 -25.917999267578118 L 249.94200134277344 -26.34399986267089 L 249.9969940185547 -26.7800006866455 L 249.9969940185547 -27.219999313354485 L 249.94200134277344 -27.656000137329094 L 249.83299255371094 -28.082000732421868 L 249.6699981689453 -28.49099922180175 L 249.57058715820312 -28.67200088500976 L 249.45799255371094 -28.877000808715813 L 249.19900512695312 -29.232999801635735 L 248.8979949951172 -29.552999496459954 L 248.55799865722656 -29.833999633789055 L 248.18600463867188 -30.069000244140618 L 247.78799438476562 -30.256999969482415 L 247.36900329589844 -30.39200019836425 L 246.93600463867188 -30.47500038146972 L 246.49600219726562 -30.503000259399407 L 246.05599975585938 -30.47500038146972 L 245.75999450683594 -30.41812896728515 L 245.62399291992188 -30.39200019836425 L 245.2050018310547 -30.256999969482415 L 244.80599975585938 -30.069000244140618 L 244.4340057373047 -29.833999633789055 L 244.093994140625 -29.552999496459954 L 243.79299926757812 -29.232999801635735 L 243.53399658203125 -28.877000808715813 L 243.42140197753906 -28.67200088500976 L 243.32200622558594 -28.49099922180175 L 243.15899658203125 -28.082000732421868 L 243.0500030517578 -27.656000137329094 L 242.9949951171875 -27.219999313354485 L 242.9949951171875 -26.7800006866455 L 243.0500030517578 -26.34399986267089 L 243.15899658203125 -25.917999267578118 L 243.32200622558594 -25.509000778198235 L 243.53399658203125 -25.122999191284173 L 243.79299926757812 -24.76700019836425 L 243.97265625 -24.57600021362304 L 244.093994140625 -24.447000503540032 L 244.4340057373047 -24.16600036621093 L 244.80599975585938 -23.93099975585937 L 245.2050018310547 -23.743000030517575 L 245.62399291992188 -23.60799980163574 L 246.05599975585938 -23.52499961853027 L 246.49600219726562 -23.497999191284176 L 246.93600463867188 -23.52499961853027 L 247.36900329589844 -23.60799980163574 L 247.78799438476562 -23.743000030517575 L 248.18600463867188 -23.93099975585937 L 248.55799865722656 -24.16600036621093 L 248.8979949951172 -24.447000503540032 M 181.31700134277344 -53.01399993896483 L 181.5050048828125 -53.00199890136717 L 181.6929931640625 -53.01399993896483 L 181.8780059814453 -53.04899978637694 L 182.05799865722656 -53.10800170898436 L 182.22799682617188 -53.18799972534178 L 182.32244873046875 -53.2480010986328 L 182.38699340820312 -53.289001464843736 L 182.53199768066406 -53.4090003967285 L 182.66099548339844 -53.54600143432616 L 182.77200317382812 -53.699001312255845 L 182.86300659179688 -53.86399841308592 L 182.9320068359375 -54.039001464843736 L 182.97900390625 -54.221000671386705 L 183.0030059814453 -54.40800094604491 L 183.0030059814453 -54.5970001220703 L 182.97900390625 -54.78300094604491 L 182.9320068359375 -54.96599960327147 L 182.86300659179688 -55.14099884033202 L 182.7775115966797 -55.29600143432616 L 182.77200317382812 -55.30599975585936 L 182.66099548339844 -55.45899963378905 L 182.53199768066406 -55.596000671386705 L 182.38699340820312 -55.71599960327147 L 182.27200317382812 -55.78905105590819 L 182.22799682617188 -55.81700134277342 L 182.05799865722656 -55.896999359130845 L 181.8780059814453 -55.95500183105467 L 181.6929931640625 -55.991001129150376 L 181.5050048828125 -56.00299835205077 L 181.31700134277344 -55.991001129150376 L 181.1320037841797 -55.95500183105467 L 180.9530029296875 -55.896999359130845 L 180.7830047607422 -55.81700134277342 L 180.62399291992188 -55.71599960327147 L 180.47799682617188 -55.596000671386705 L 180.3489990234375 -55.45899963378905 L 180.23899841308594 -55.30599975585936 L 180.23348999023438 -55.29600143432616 L 180.2239990234375 -55.278800964355455 L 180.1479949951172 -55.14099884033202 L 180.07899475097656 -54.96599960327147 L 180.03199768066406 -54.78300094604491 L 180.00799560546875 -54.5970001220703 L 180.00799560546875 -54.40800094604491 L 180.03199768066406 -54.221000671386705 L 180.07899475097656 -54.039001464843736 L 180.1479949951172 -53.86399841308592 L 180.2239990234375 -53.726196289062486 L 180.23899841308594 -53.699001312255845 L 180.3489990234375 -53.54600143432616 L 180.47799682617188 -53.4090003967285 L 180.62399291992188 -53.289001464843736 L 180.68853759765625 -53.2480010986328 L 180.7830047607422 -53.18799972534178 L 180.9530029296875 -53.10800170898436 L 181.1320037841797 -53.04899978637694 L 181.31700134277344 -53.01399993896483 M 180.1479949951172 1.1410000324249268 L 180.2239990234375 1.2788021564483643 L 180.23899841308594 1.305999994277954 L 180.3489990234375 1.4589999914169312 L 180.47799682617188 1.595999956130981 L 180.62399291992188 1.7159999608993526 L 180.7830047607422 1.817000031471252 L 180.9530029296875 1.8969999551773067 L 181.1320037841797 1.9550000429153438 L 181.31700134277344 1.9910000562667842 L 181.5050048828125 2.0030000209808345 L 181.6929931640625 1.9910000562667842 L 181.8780059814453 1.9550000429153438 L 182.05799865722656 1.8969999551773067 L 182.22799682617188 1.817000031471252 L 182.27200317382812 1.7890503406524654 L 182.38699340820312 1.7159999608993526 L 182.53199768066406 1.595999956130981 L 182.66099548339844 1.4589999914169312 L 182.77200317382812 1.305999994277954 L 182.86300659179688 1.1410000324249268 L 182.9320068359375 0.9660000205039977 L 182.97900390625 0.7829999923706054 L 183.0030059814453 0.597000002861023 L 183.0030059814453 0.40799999237060547 L 182.97900390625 0.22100000083446508 L 182.9320068359375 0.03900000080466281 L 182.9166259765625 1.1102230246251565e-16 L 182.86300659179688 -0.1360000073909758 L 182.77200317382812 -0.3009999990463255 L 182.66099548339844 -0.4539999961853025 L 182.53199768066406 -0.5910000205039976 L 182.38699340820312 -0.7110000252723692 L 182.27200317382812 -0.7840502858161923 L 182.22799682617188 -0.8119999766349789 L 182.05799865722656 -0.8920000195503232 L 181.8780059814453 -0.9509999752044674 L 181.6929931640625 -0.9860000014305111 L 181.5050048828125 -0.9980000257492062 L 181.31700134277344 -0.9860000014305111 L 181.1320037841797 -0.9509999752044674 L 180.9530029296875 -0.8920000195503232 L 180.7830047607422 -0.8119999766349789 L 180.62399291992188 -0.7110000252723692 L 180.47799682617188 -0.5910000205039976 L 180.3489990234375 -0.4539999961853025 L 180.23899841308594 -0.3009999990463255 L 180.2239990234375 -0.27380219101905806 L 180.1479949951172 -0.1360000073909758 L 180.09437561035156 1.1102230246251565e-16 L 180.07899475097656 0.03900000080466281 L 180.03199768066406 0.22100000083446508 L 180.00799560546875 0.40799999237060547 L 180.00799560546875 0.597000002861023 L 180.03199768066406 0.7829999923706054 L 180.07899475097656 0.9660000205039977 L 180.1479949951172 1.1410000324249268 M 106.46099853515625 -130.94599914550778 L 106.70826721191406 -131.0720062255859 L 106.87899780273438 -131.15899658203122 L 107.21099853515625 -131.49200439453122 L 107.42400360107422 -131.9109954833984 L 107.49800109863281 -132.37499999999997 L 107.42400360107422 -132.83900451660153 L 107.21099853515625 -133.25799560546872 L 106.87899780273438 -133.59100341796872 L 106.49600219726562 -133.7861633300781 L 106.46099853515625 -133.80400085449216 L 105.99800109863281 -133.87800598144528 L 105.53399658203125 -133.80400085449216 L 105.11599731445312 -133.59100341796872 L 104.78399658203125 -133.25799560546872 L 104.57099914550781 -132.83900451660153 L 104.49800109863281 -132.37499999999997 L 104.57099914550781 -131.9109954833984 L 104.78399658203125 -131.49200439453122 L 105.11599731445312 -131.15899658203122 L 105.28673553466797 -131.0720062255859 L 105.53399658203125 -130.94599914550778 L 105.99800109863281 -130.87300109863278 L 106.46099853515625 -130.94599914550778 M 9.83899974822998 -117.17500305175778 L 10.010000228881836 -117.15299987792966 L 10.182999610900879 -117.15299987792966 L 10.239999771118164 -117.16033172607419 L 10.354000091552734 -117.17500305175778 L 10.522000312805176 -117.21800231933591 L 10.682000160217285 -117.28099822998044 L 10.833000183105469 -117.3649978637695 L 10.972999572753906 -117.46600341796872 L 11.098999977111816 -117.58399963378903 L 11.208999633789062 -117.71700286865232 L 11.302000045776367 -117.86299896240232 L 11.375 -118.01899719238278 L 11.428999900817871 -118.18399810791013 L 11.461000442504883 -118.35299682617185 L 11.472000122070312 -118.52600097656247 L 11.461000442504883 -118.69799804687497 L 11.444811820983887 -118.78399658203122 L 11.428999900817871 -118.86799621582028 L 11.375 -119.03199768066403 L 11.302000045776367 -119.18800354003903 L 11.208999633789062 -119.33399963378903 L 11.098999977111816 -119.46700286865232 L 10.972999572753906 -119.58499908447263 L 10.833000183105469 -119.68699645996091 L 10.682000160217285 -119.76999664306638 L 10.522000312805176 -119.83300018310544 L 10.354000091552734 -119.87599945068357 L 10.239999771118164 -119.89066314697263 L 10.182999610900879 -119.89800262451169 L 10.010000228881836 -119.89800262451169 L 9.83899974822998 -119.87599945068357 L 9.67199993133545 -119.83300018310544 L 9.51099967956543 -119.76999664306638 L 9.359999656677246 -119.68699645996091 L 9.220000267028809 -119.58499908447263 L 9.093999862670898 -119.46700286865232 L 8.984000205993652 -119.33399963378903 L 8.892000198364258 -119.18800354003903 L 8.817999839782715 -119.03199768066403 L 8.765000343322754 -118.86799621582028 L 8.74869441986084 -118.78399658203122 L 8.732000350952148 -118.69799804687497 L 8.720999717712402 -118.52600097656247 L 8.732000350952148 -118.35299682617185 L 8.765000343322754 -118.18399810791013 L 8.817999839782715 -118.01899719238278 L 8.892000198364258 -117.86299896240232 L 8.956904411315918 -117.76000213623044 L 8.984000205993652 -117.71700286865232 L 9.093999862670898 -117.58399963378903 L 9.220000267028809 -117.46600341796872 L 9.359999656677246 -117.3649978637695 L 9.51099967956543 -117.28099822998044 L 9.67199993133545 -117.21800231933591 L 9.83899974822998 -117.17500305175778 M 36.79399871826172 -117.86299896240232 L 36.86399841308594 -117.75310516357419 L 36.887001037597656 -117.71700286865232 L 36.99700164794922 -117.58399963378903 L 37.12300109863281 -117.46600341796872 L 37.26300048828125 -117.3649978637695 L 37.41400146484375 -117.28099822998044 L 37.57400131225586 -117.21800231933591 L 37.742000579833984 -117.17500305175778 L 37.91299819946289 -117.15299987792966 L 38.08599853515625 -117.15299987792966 L 38.25699996948242 -117.17500305175778 L 38.42399978637695 -117.21800231933591 L 38.584999084472656 -117.28099822998044 L 38.736000061035156 -117.3649978637695 L 38.875999450683594 -117.46600341796872 L 38.9119987487793 -117.49971771240232 L 39.00199890136719 -117.58399963378903 L 39.11199951171875 -117.71700286865232 L 39.20399856567383 -117.86299896240232 L 39.27799987792969 -118.01899719238278 L 39.33100128173828 -118.18399810791013 L 39.36399841308594 -118.35299682617185 L 39.375 -118.52600097656247 L 39.36399841308594 -118.69799804687497 L 39.34730529785156 -118.78399658203122 L 39.33100128173828 -118.86799621582028 L 39.27799987792969 -119.03199768066403 L 39.20399856567383 -119.18800354003903 L 39.11199951171875 -119.33399963378903 L 39.00199890136719 -119.46700286865232 L 38.9119987487793 -119.55128479003903 L 38.875999450683594 -119.58499908447263 L 38.736000061035156 -119.68699645996091 L 38.584999084472656 -119.76999664306638 L 38.42399978637695 -119.83300018310544 L 38.25699996948242 -119.87599945068357 L 38.08599853515625 -119.89800262451169 L 37.91299819946289 -119.89800262451169 L 37.742000579833984 -119.87599945068357 L 37.57400131225586 -119.83300018310544 L 37.41400146484375 -119.76999664306638 L 37.26300048828125 -119.68699645996091 L 37.12300109863281 -119.58499908447263 L 36.99700164794922 -119.46700286865232 L 36.887001037597656 -119.33399963378903 L 36.86399841308594 -119.29788970947263 L 36.79399871826172 -119.18800354003903 L 36.72100067138672 -119.03199768066403 L 36.66699981689453 -118.86799621582028 L 36.6349983215332 -118.69799804687497 L 36.624000549316406 -118.52600097656247 L 36.6349983215332 -118.35299682617185 L 36.66699981689453 -118.18399810791013 L 36.72100067138672 -118.01899719238278 L 36.79399871826172 -117.86299896240232 M 52.94300079345703 -167.97999572753903 L 53.1150016784668 -167.9579925537109 L 53.24800109863281 -167.9579925537109 L 53.2869987487793 -167.9579925537109 L 53.45899963378906 -167.97999572753903 L 53.625999450683594 -168.0220031738281 L 53.7859992980957 -168.08599853515622 L 53.9379997253418 -168.16900634765622 L 54.07699966430664 -168.27099609374997 L 54.202999114990234 -168.38900756835935 L 54.3129997253418 -168.5220031738281 L 54.40599822998047 -168.6679992675781 L 54.479000091552734 -168.8240051269531 L 54.523780822753906 -168.96000671386716 L 54.53300094604492 -168.98800659179685 L 54.564998626708984 -169.15800476074216 L 54.57600021362305 -169.33000183105466 L 54.564998626708984 -169.50300598144528 L 54.53300094604492 -169.67199707031247 L 54.479000091552734 -169.83599853515622 L 54.41018295288086 -169.9839935302734 L 54.40599822998047 -169.99299621582028 L 54.3129997253418 -170.13900756835935 L 54.202999114990234 -170.2720031738281 L 54.07699966430664 -170.3899993896484 L 53.9379997253418 -170.4909973144531 L 53.7859992980957 -170.57499694824216 L 53.625999450683594 -170.63800048828122 L 53.45899963378906 -170.68099975585935 L 53.2869987487793 -170.70300292968747 L 53.24800109863281 -170.70300292968747 L 53.1150016784668 -170.70300292968747 L 52.94300079345703 -170.68099975585935 L 52.7760009765625 -170.63800048828122 L 52.6150016784668 -170.57499694824216 L 52.4640007019043 -170.4909973144531 L 52.32400131225586 -170.3899993896484 L 52.198001861572266 -170.2720031738281 L 52.0880012512207 -170.13900756835935 L 51.99599838256836 -169.99299621582028 L 51.991756439208984 -169.9839935302734 L 51.922000885009766 -169.83599853515622 L 51.86899948120117 -169.67199707031247 L 51.83700180053711 -169.50300598144528 L 51.82600021362305 -169.33000183105466 L 51.83700180053711 -169.15800476074216 L 51.86899948120117 -168.98800659179685 L 51.878047943115234 -168.96000671386716 L 51.922000885009766 -168.8240051269531 L 51.99599838256836 -168.6679992675781 L 52.0880012512207 -168.5220031738281 L 52.198001861572266 -168.38900756835935 L 52.32400131225586 -168.27099609374997 L 52.4640007019043 -168.16900634765622 L 52.6150016784668 -168.08599853515622 L 52.7760009765625 -168.0220031738281 L 52.94300079345703 -167.97999572753903 M 88.30699920654297 -53.01399993896483 L 88.49500274658203 -53.00199890136717 L 88.68299865722656 -53.01399993896483 L 88.86799621582031 -53.04899978637694 L 89.0469970703125 -53.10800170898436 L 89.21700286865234 -53.18799972534178 L 89.31145477294922 -53.2480010986328 L 89.3759994506836 -53.289001464843736 L 89.52200317382812 -53.4090003967285 L 89.6510009765625 -53.54600143432616 L 89.76100158691406 -53.699001312255845 L 89.85199737548828 -53.86399841308592 L 89.9209976196289 -54.039001464843736 L 89.96800231933594 -54.221000671386705 L 89.99199676513672 -54.40800094604491 L 89.99199676513672 -54.5970001220703 L 89.96800231933594 -54.78300094604491 L 89.9209976196289 -54.96599960327147 L 89.85199737548828 -55.14099884033202 L 89.76651763916016 -55.29600143432616 L 89.76100158691406 -55.30599975585936 L 89.6510009765625 -55.45899963378905 L 89.52200317382812 -55.596000671386705 L 89.3759994506836 -55.71599960327147 L 89.21700286865234 -55.81700134277342 L 89.0469970703125 -55.896999359130845 L 88.86799621582031 -55.95500183105467 L 88.68299865722656 -55.991001129150376 L 88.49500274658203 -56.00299835205077 L 88.30699920654297 -55.991001129150376 L 88.12200164794922 -55.95500183105467 L 88.06400299072266 -55.93630981445311 L 87.94200134277344 -55.896999359130845 L 87.77200317382812 -55.81700134277342 L 87.61299896240234 -55.71599960327147 L 87.46800231933594 -55.596000671386705 L 87.33899688720703 -55.45899963378905 L 87.22799682617188 -55.30599975585936 L 87.22248840332031 -55.29600143432616 L 87.13700103759766 -55.14099884033202 L 87.06800079345703 -54.96599960327147 L 87.02100372314453 -54.78300094604491 L 86.99700164794922 -54.5970001220703 L 86.99700164794922 -54.40800094604491 L 87.02100372314453 -54.221000671386705 L 87.06800079345703 -54.039001464843736 L 87.13700103759766 -53.86399841308592 L 87.22799682617188 -53.699001312255845 L 87.33899688720703 -53.54600143432616 L 87.46800231933594 -53.4090003967285 L 87.61299896240234 -53.289001464843736 L 87.67754364013672 -53.2480010986328 L 87.77200317382812 -53.18799972534178 L 87.94200134277344 -53.10800170898436 L 88.12200164794922 -53.04899978637694 L 88.30699920654297 -53.01399993896483 M 87.94200134277344 1.8969999551773067 L 88.06400299072266 1.9363111257553096 L 88.12200164794922 1.9550000429153438 L 88.30699920654297 1.9910000562667842 L 88.49500274658203 2.0030000209808345 L 88.68299865722656 1.9910000562667842 L 88.86799621582031 1.9550000429153438 L 89.0469970703125 1.8969999551773067 L 89.21700286865234 1.817000031471252 L 89.3759994506836 1.7159999608993526 L 89.52200317382812 1.595999956130981 L 89.6510009765625 1.4589999914169312 L 89.76100158691406 1.305999994277954 L 89.85199737548828 1.1410000324249268 L 89.89813232421875 1.0240000486373901 L 89.9209976196289 0.9660000205039977 L 89.96800231933594 0.7829999923706054 L 89.99199676513672 0.597000002861023 L 89.99199676513672 0.40799999237060547 L 89.96800231933594 0.22100000083446508 L 89.9209976196289 0.03900000080466281 L 89.90562438964844 1.1102230246251565e-16 L 89.85199737548828 -0.1360000073909758 L 89.76100158691406 -0.3009999990463255 L 89.6510009765625 -0.4539999961853025 L 89.52200317382812 -0.5910000205039976 L 89.3759994506836 -0.7110000252723692 L 89.21700286865234 -0.8119999766349789 L 89.0469970703125 -0.8920000195503232 L 88.86799621582031 -0.9509999752044674 L 88.68299865722656 -0.9860000014305111 L 88.49500274658203 -0.9980000257492062 L 88.30699920654297 -0.9860000014305111 L 88.12200164794922 -0.9509999752044674 L 88.06400299072266 -0.9319888949394223 L 87.94200134277344 -0.8920000195503232 L 87.77200317382812 -0.8119999766349789 L 87.61299896240234 -0.7110000252723692 L 87.46800231933594 -0.5910000205039976 L 87.33899688720703 -0.4539999961853025 L 87.22799682617188 -0.3009999990463255 L 87.13700103759766 -0.1360000073909758 L 87.0833740234375 1.1102230246251565e-16 L 87.06800079345703 0.03900000080466281 L 87.02100372314453 0.22100000083446508 L 86.99700164794922 0.40799999237060547 L 86.99700164794922 0.597000002861023 L 87.02100372314453 0.7829999923706054 L 87.06800079345703 0.9660000205039977 L 87.13700103759766 1.1410000324249268 L 87.22799682617188 1.305999994277954 L 87.33899688720703 1.4589999914169312 L 87.46800231933594 1.595999956130981 L 87.61299896240234 1.7159999608993526 L 87.77200317382812 1.817000031471252 L 87.94200134277344 1.8969999551773067 M 19.368999481201172 -49.10800170898436 L 19.505563735961914 -49.15200042724608 L 19.788000106811523 -49.243000030517564 L 20.18600082397461 -49.43099975585936 L 20.558000564575195 -49.66600036621092 L 20.898000717163086 -49.94699859619139 L 21.198999404907227 -50.26699829101561 L 21.45800018310547 -50.6230010986328 L 21.670000076293945 -51.008998870849595 L 21.83300018310547 -51.41799926757811 L 21.941999435424805 -51.84400177001952 L 21.996999740600586 -52.27999877929686 L 21.996999740600586 -52.72000122070311 L 21.941999435424805 -53.155998229980455 L 21.918460845947266 -53.2480010986328 L 21.83300018310547 -53.58200073242186 L 21.670000076293945 -53.991001129150376 L 21.45800018310547 -54.37699890136717 L 21.198999404907227 -54.73300170898436 L 20.898000717163086 -55.05300140380858 L 20.558000564575195 -55.33399963378905 L 20.479999542236328 -55.383274078369126 L 20.18600082397461 -55.56900024414061 L 19.788000106811523 -55.75699996948241 L 19.368999481201172 -55.89199829101561 L 18.93600082397461 -55.97499847412108 L 18.496000289916992 -56.00299835205077 L 18.055999755859375 -55.97499847412108 L 17.624000549316406 -55.89199829101561 L 17.204999923706055 -55.75699996948241 L 16.805999755859375 -55.56900024414061 L 16.43400001525879 -55.33399963378905 L 16.384000778198242 -55.29267501831053 L 16.0939998626709 -55.05300140380858 L 15.793000221252441 -54.73300170898436 L 15.534000396728516 -54.37699890136717 L 15.321999549865723 -53.991001129150376 L 15.159000396728516 -53.58200073242186 L 15.050000190734863 -53.155998229980455 L 14.994999885559082 -52.72000122070311 L 14.994999885559082 -52.27999877929686 L 15.050000190734863 -51.84400177001952 L 15.159000396728516 -51.41799926757811 L 15.321999549865723 -51.008998870849595 L 15.534000396728516 -50.6230010986328 L 15.793000221252441 -50.26699829101561 L 16.0939998626709 -49.94699859619139 L 16.384000778198242 -49.70732498168944 L 16.43400001525879 -49.66600036621092 L 16.805999755859375 -49.43099975585936 L 17.204999923706055 -49.243000030517564 L 17.487436294555664 -49.15200042724608 L 17.624000549316406 -49.10800170898436 L 18.055999755859375 -49.02500152587889 L 18.496000289916992 -48.9980010986328 L 18.93600082397461 -49.02500152587889 L 19.368999481201172 -49.10800170898436 M 3.99399995803833 -169.6889953613281 L 4.0960001945495605 -169.59347534179685 L 4.119999885559082 -169.57099914550778 L 4.258999824523926 -169.46899414062497 L 4.410999774932861 -169.38600158691403 L 4.571000099182129 -169.32299804687497 L 4.73799991607666 -169.27999877929685 L 4.909999847412109 -169.25799560546872 L 5.081999778747559 -169.25799560546872 L 5.254000186920166 -169.27999877929685 L 5.421000003814697 -169.32299804687497 L 5.581999778747559 -169.38600158691403 L 5.732999801635742 -169.46899414062497 L 5.873000144958496 -169.57099914550778 L 5.999000072479248 -169.6889953613281 L 6.109000205993652 -169.8220062255859 L 6.144000053405762 -169.8775482177734 L 6.201000213623047 -169.9680023193359 L 6.208589553833008 -169.9839935302734 L 6.275000095367432 -170.12399291992185 L 6.328000068664551 -170.2879943847656 L 6.360000133514404 -170.4579925537109 L 6.370999813079834 -170.63000488281247 L 6.360000133514404 -170.80299377441403 L 6.328000068664551 -170.97200012207028 L 6.275000095367432 -171.1369934082031 L 6.201000213623047 -171.2929992675781 L 6.144000053405762 -171.3834533691406 L 6.109000205993652 -171.4389953613281 L 5.999000072479248 -171.5720062255859 L 5.873000144958496 -171.69000244140622 L 5.732999801635742 -171.7910003662109 L 5.581999778747559 -171.87499999999997 L 5.421000003814697 -171.93800354003903 L 5.254000186920166 -171.98100280761716 L 5.081999778747559 -172.00300598144528 L 4.909999847412109 -172.00300598144528 L 4.73799991607666 -171.98100280761716 L 4.571000099182129 -171.93800354003903 L 4.410999774932861 -171.87499999999997 L 4.258999824523926 -171.7910003662109 L 4.119999885559082 -171.69000244140622 L 4.0960001945495605 -171.66752624511716 L 3.99399995803833 -171.5720062255859 L 3.884000062942505 -171.4389953613281 L 3.7909998893737793 -171.2929992675781 L 3.7179999351501465 -171.1369934082031 L 3.6640000343322754 -170.97200012207028 L 3.631999969482422 -170.80299377441403 L 3.621000051498413 -170.63000488281247 L 3.631999969482422 -170.4579925537109 L 3.6640000343322754 -170.2879943847656 L 3.7179999351501465 -170.12399291992185 L 3.7909998893737793 -169.9680023193359 L 3.884000062942505 -169.8220062255859 L 3.99399995803833 -169.6889953613281 M -21.02199935913086 1.939000010490417 L -20.018999099731445 2.0030000209808345 L -19.016000747680664 1.939000010490417 L -18.02899932861328 1.751000046730041 L -17.072999954223633 1.440999984741211 L -16.163999557495117 1.0130000114440918 L -15.3149995803833 0.4740000069141388 L -14.741756439208984 1.1102230246251565e-16 L -14.541000366210938 -0.16599999368190752 L -13.852999687194824 -0.898999989032745 L -13.26200008392334 -1.7120000123977657 L -12.777999877929688 -2.592999935150146 L -12.407999992370605 -3.5269999504089347 L -12.157999992370605 -4.499999999999999 L -12.031999588012695 -5.498000144958495 L -12.031999588012695 -6.501999855041502 L -12.157999992370605 -7.499999999999998 L -12.407999992370605 -8.472999572753904 L -12.777999877929688 -9.406999588012694 L -13.26200008392334 -10.288000106811522 L -13.852999687194824 -11.100999832153319 L -14.541000366210938 -11.83399963378906 L -15.3149995803833 -12.473999977111813 L -16.163999557495117 -13.01299953460693 L -16.384000778198242 -13.11658668518066 L -17.072999954223633 -13.440999984741207 L -18.02899932861328 -13.751000404357907 L -19.016000747680664 -13.939000129699703 L -20.018999099731445 -14.00300025939941 L -21.02199935913086 -13.939000129699703 L -22.009000778198242 -13.751000404357907 L -22.96500015258789 -13.440999984741207 L -23.874000549316406 -13.01299953460693 L -24.722999572753906 -12.473999977111813 L -25.496999740600586 -11.83399963378906 L -26.184999465942383 -11.100999832153319 L -26.775999069213867 -10.288000106811522 L -27.260000228881836 -9.406999588012694 L -27.6299991607666 -8.472999572753904 L -27.702199935913086 -8.19200038909912 L -27.8799991607666 -7.499999999999998 L -28.006000518798828 -6.501999855041502 L -28.006000518798828 -5.498000144958495 L -27.8799991607666 -4.499999999999999 L -27.6299991607666 -3.5269999504089347 L -27.260000228881836 -2.592999935150146 L -26.775999069213867 -1.7120000123977657 L -26.184999465942383 -0.898999989032745 L -25.496999740600586 -0.16599999368190752 L -25.29624366760254 1.1102230246251565e-16 L -24.722999572753906 0.4740000069141388 L -23.874000549316406 1.0130000114440918 L -22.96500015258789 1.440999984741211 L -22.009000778198242 1.751000046730041 L -21.02199935913086 1.939000010490417 M 255.2570037841797 -25.7490005493164 L 255.2570037841797 -28.250999450683587 L 253.75599670410156 -28.250999450683587 L 253.75599670410156 -25.7490005493164 L 255.2570037841797 -25.7490005493164 M 27.256000518798828 -51.24900054931639 L 27.256000518798828 -53.75099945068358 L 25.756000518798828 -53.75099945068358 L 25.756000518798828 -51.24900054931639 L 27.256000518798828 -51.24900054931639 z" fill="none" stroke="rgb(255,0,0)" stroke-width="0.1mm" />
</svg>