  0
SECTION
  2
HEADER
  9
$ACADVER
  1
AC1014
  9
$HANDSEED
  5
FFFF
  9
$MEASUREMENT
 70
     1
  0
ENDSEC
  0
SECTION
  2
TABLES
  0
TABLE
  2
VPORT
  5
8
330
0
100
AcDbSymbolTable
 70
     4
  0
VPORT
  5
2E
330
8
100
AcDbSymbolTableRecord
100
AcDbViewportTableRecord
  2
*ACTIVE
 70
     0
 10
0.0
 20
0.0
 11
1.0
 21
1.0
 12
210.0
 22
148.5
 13
0.0
 23
0.0
 14
10.0
 24
10.0
 15
10.0
 25
10.0
 16
0.0
 26
0.0
 36
1.0
 17
0.0
 27
0.0
 37
0.0
 40
341.0
 41
1.24
 42
50.0
 43
0.0
 44
0.0
 50
0.0
 51
0.0
 71
     0
 72
   100
 73
     1
 74
     3
 75
     0
 76
     0
 77
     0
 78
     0
  0
ENDTAB
  0
TABLE
  2
LTYPE
  5
5
330
0
100
AcDbSymbolTable
 70
     1
  0
LTYPE
  5
14
330
5
100
AcDbSymbolTableRecord
100
AcDbLinetypeTableRecord
  2
BYBLOCK
 70
     0
  3

 72
    65
 73
     0
 40
0.0
  0
LTYPE
  5
15
330
5
100
AcDbSymbolTableRecord
100
AcDbLinetypeTableRecord
  2
BYLAYER
 70
     0
  3

 72
    65
 73
     0
 40
0.0
  0
LTYPE
  5
16
330
5
100
AcDbSymbolTableRecord
100
AcDbLinetypeTableRecord
  2
CONTINUOUS
 70
     0
  3
Solid line
 72
    65
 73
     0
 40
0.0
  0
ENDTAB
  0
TABLE
  2
LAYER
  5
2
100
AcDbSymbolTable
 70
1
  0
LAYER
  5
50
100
AcDbSymbolTableRecord
100
AcDbLayerTableRecord
  2
0
 70
0
  6
CONTINUOUS
  0
ENDTAB
  0
TABLE
  2
STYLE
  5
3
330
0
100
AcDbSymbolTable
 70
     1
  0
STYLE
  5
11
330
3
100
AcDbSymbolTableRecord
100
AcDbTextStyleTableRecord
  2
STANDARD
 70
     0
 40
0.0
 41
1.0
 50
0.0
 71
     0
 42
2.5
  3
txt
  4

  0
ENDTAB
  0
TABLE
  2
VIEW
  5
6
330
0
100
AcDbSymbolTable
 70
     0
  0
ENDTAB
  0
TABLE
  2
UCS
  5
7
330
0
100
AcDbSymbolTable
 70
     0
  0
ENDTAB
  0
TABLE
  2
APPID
  5
9
330
0
100
AcDbSymbolTable
 70
     2
  0
APPID
  5
12
330
9
100
AcDbSymbolTableRecord
100
AcDbRegAppTableRecord
  2
ACAD
 70
     0
  0
ENDTAB
  0
TABLE
  2
DIMSTYLE
  5
A
330
0
100
AcDbSymbolTable
 70
     1
  0
DIMSTYLE
105
27
330
A
100
AcDbSymbolTableRecord
100
AcDbDimStyleTableRecord
  2
ISO-25
 70
     0
  3

  4

  5

  6

  7

 40
1.0
 41
2.5
 42
0.625
 43
3.75
 44
1.25
 45
0.0
 46
0.0
 47
0.0
 48
0.0
140
2.5
141
2.5
142
0.0
143
0.03937007874016
144
1.0
145
0.0
146
1.0
147
0.625
 71
     0
 72
     0
 73
     0
 74
     0
 75
     0
 76
     0
 77
     1
 78
     8
170
     0
171
     3
172
     1
173
     0
174
     0
175
     0
176
     0
177
     0
178
     0
270
     2
271
     2
272
     2
273
     2
274
     3
340
11
275
     0
280
     0
281
     0
282
     0
283
     0
284
     8
285
     0
286
     0
287
     3
288
     0
  0
ENDTAB
  0
TABLE
  2
BLOCK_RECORD
  5
1
330
0
100
AcDbSymbolTable
 70
     1
  0
BLOCK_RECORD
  5
1F
330
1
100
AcDbSymbolTableRecord
100
AcDbBlockTableRecord
  2
*MODEL_SPACE
  0
BLOCK_RECORD
  5
1B
330
1
100
AcDbSymbolTableRecord
100
AcDbBlockTableRecord
  2
*PAPER_SPACE
  0
ENDTAB
  0
ENDSEC
  0
SECTION
  2
BLOCKS
  0
BLOCK
  5
20
330
1F
100
AcDbEntity
  8
0
100
AcDbBlockBegin
  2
*MODEL_SPACE
 70
     0
 10
0.0
 20
0.0
 30
0.0
  3
*MODEL_SPACE
  1

  0
ENDBLK
  5
21
330
1F
100
AcDbEntity
  8
0
100
AcDbBlockEnd
  0
BLOCK
  5
1C
330
1B
100
AcDbEntity
 67
     1
  8
0
100
AcDbBlockBegin
  2
*PAPER_SPACE
  1

  0
ENDBLK
  5
1D
330
1B
100
AcDbEntity
 67
     1
  8
0
100
AcDbBlockEnd
  0
ENDSEC
  0
SECTION
  2
ENTITIES
  0
LWPOLYLINE
  5
100
100
AcDbEntity
  8
0
 62
7
100
AcDbPolyline
 90
37
 70
1
 10
370.000000
 20
272.000000
 30
0.0
 10
-28.006001
 20
272.000000
 30
0.0
 10
-100.000000
 20
272.000000
 30
0.0
 10
-100.000000
 20
642.000000
 30
0.0
 10
-28.006001
 20
642.000000
 30
0.0
 10
-12.037000
 20
642.000000
 30
0.0
 10
3.622000
 20
642.000000
 30
0.0
 10
6.372000
 20
642.000000
 30
0.0
 10
8.722000
 20
642.000000
 30
0.0
 10
11.472000
 20
642.000000
 30
0.0
 10
14.995000
 20
642.000000
 30
0.0
 10
21.995001
 20
642.000000
 30
0.0
 10
25.752001
 20
642.000000
 30
0.0
 10
27.252001
 20
642.000000
 30
0.0
 10
36.622002
 20
642.000000
 30
0.0
 10
39.372002
 20
642.000000
 30
0.0
 10
51.821999
 20
642.000000
 30
0.0
 10
54.571999
 20
642.000000
 30
0.0
 10
86.999001
 20
642.000000
 30
0.0
 10
89.994003
 20
642.000000
 30
0.0
 10
106.000000
 20
642.000000
 30
0.0
 10
109.000000
 20
642.000000
 30
0.0
 10
161.001007
 20
642.000000
 30
0.0
 10
164.001007
 20
642.000000
 30
0.0
 10
180.007004
 20
642.000000
 30
0.0
 10
183.001007
 20
642.000000
 30
0.0
 10
214.628006
 20
642.000000
 30
0.0
 10
217.378006
 20
642.000000
 30
0.0
 10
242.998993
 20
642.000000
 30
0.0
 10
249.998993
 20
642.000000
 30
0.0
 10
253.755997
 20
642.000000
 30
0.0
 10
255.255997
 20
642.000000
 30
0.0
 10
263.628998
 20
642.000000
 30
0.0
 10
266.378998
 20
642.000000
 30
0.0
 10
370.000000
 20
642.000000
 30
0.0
 10
370.000000
 20
474.002998
 30
0.0
 10
370.000000
 20
369.997000
 30
0.0
  0
LWPOLYLINE
  5
101
100
AcDbEntity
  8
0
 62
7
100
AcDbPolyline
 90
54
 70
1
 10
-21.024000
 20
370.061000
 30
0.0
 10
-20.021000
 20
369.997000
 30
0.0
 10
-19.018000
 20
370.061000
 30
0.0
 10
-18.032000
 20
370.249000
 30
0.0
 10
-17.076000
 20
370.559000
 30
0.0
 10
-16.167000
 20
370.987000
 30
0.0
 10
-15.319000
 20
371.525000
 30
0.0
 10
-14.745443
 20
372.000000
 30
0.0
 10
-14.545000
 20
372.166000
 30
0.0
 10
-13.857000
 20
372.898000
 30
0.0
 10
-13.266000
 20
373.711000
 30
0.0
 10
-12.782000
 20
374.591000
 30
0.0
 10
-12.413000
 20
375.526000
 30
0.0
 10
-12.163000
 20
376.499000
 30
0.0
 10
-12.037000
 20
377.495000
 30
0.0
 10
-12.037000
 20
378.500000
 30
0.0
 10
-12.163000
 20
379.497000
 30
0.0
 10
-12.413000
 20
380.470000
 30
0.0
 10
-12.782000
 20
381.404000
 30
0.0
 10
-13.266000
 20
382.284000
 30
0.0
 10
-13.857000
 20
383.097000
 30
0.0
 10
-14.545000
 20
383.830000
 30
0.0
 10
-15.319000
 20
384.470000
 30
0.0
 10
-16.167000
 20
385.008000
 30
0.0
 10
-16.384001
 20
385.110174
 30
0.0
 10
-17.076000
 20
385.436000
 30
0.0
 10
-18.032000
 20
385.747000
 30
0.0
 10
-19.018000
 20
385.935000
 30
0.0
 10
-20.021000
 20
385.998000
 30
0.0
 10
-21.024000
 20
385.935000
 30
0.0
 10
-22.011000
 20
385.747000
 30
0.0
 10
-22.966000
 20
385.436000
 30
0.0
 10
-23.875000
 20
385.008000
 30
0.0
 10
-24.724001
 20
384.470000
 30
0.0
 10
-25.497999
 20
383.830000
 30
0.0
 10
-26.184999
 20
383.097000
 30
0.0
 10
-26.775999
 20
382.284000
 30
0.0
 10
-27.260000
 20
381.404000
 30
0.0
 10
-27.629999
 20
380.470000
 30
0.0
 10
-27.701429
 20
380.192000
 30
0.0
 10
-27.879999
 20
379.497000
 30
0.0
 10
-28.006001
 20
378.500000
 30
0.0
 10
-28.006001
 20
377.495000
 30
0.0
 10
-27.879999
 20
376.499000
 30
0.0
 10
-27.629999
 20
375.526000
 30
0.0
 10
-27.260000
 20
374.591000
 30
0.0
 10
-26.775999
 20
373.711000
 30
0.0
 10
-26.184999
 20
372.898000
 30
0.0
 10
-25.497999
 20
372.166000
 30
0.0
 10
-25.297558
 20
372.000000
 30
0.0
 10
-24.724001
 20
371.525000
 30
0.0
 10
-23.875000
 20
370.987000
 30
0.0
 10
-22.966000
 20
370.559000
 30
0.0
 10
-22.011000
 20
370.249000
 30
0.0
  0
LWPOLYLINE
  5
102
100
AcDbEntity
  8
0
 62
7
100
AcDbPolyline
 90
58
 70
1
 10
265.880005
 20
474.316002
 30
0.0
 10
265.969696
 20
474.400002
 30
0.0
 10
266.006012
 20
474.433998
 30
0.0
 10
266.115997
 20
474.567001
 30
0.0
 10
266.209015
 20
474.712997
 30
0.0
 10
266.239990
 20
474.779243
 30
0.0
 10
266.282013
 20
474.869003
 30
0.0
 10
266.335999
 20
475.033997
 30
0.0
 10
266.368011
 20
475.203003
 30
0.0
 10
266.378998
 20
475.375999
 30
0.0
 10
266.368011
 20
475.547997
 30
0.0
 10
266.335999
 20
475.717003
 30
0.0
 10
266.282013
 20
475.882004
 30
0.0
 10
266.239990
 20
475.971756
 30
0.0
 10
266.209015
 20
476.038002
 30
0.0
 10
266.115997
 20
476.183998
 30
0.0
 10
266.006012
 20
476.317001
 30
0.0
 10
265.880005
 20
476.434998
 30
0.0
 10
265.862274
 20
476.447998
 30
0.0
 10
265.740997
 20
476.537003
 30
0.0
 10
265.588989
 20
476.620003
 30
0.0
 10
265.428986
 20
476.682999
 30
0.0
 10
265.261993
 20
476.725998
 30
0.0
 10
265.089996
 20
476.748001
 30
0.0
 10
264.917999
 20
476.748001
 30
0.0
 10
264.746002
 20
476.725998
 30
0.0
 10
264.579010
 20
476.682999
 30
0.0
 10
264.419006
 20
476.620003
 30
0.0
 10
264.266998
 20
476.537003
 30
0.0
 10
264.191986
 20
476.481964
 30
0.0
 10
264.145721
 20
476.447998
 30
0.0
 10
264.127991
 20
476.434998
 30
0.0
 10
264.002014
 20
476.317001
 30
0.0
 10
263.891998
 20
476.183998
 30
0.0
 10
263.799011
 20
476.038002
 30
0.0
 10
263.726013
 20
475.882004
 30
0.0
 10
263.671997
 20
475.717003
 30
0.0
 10
263.640015
 20
475.547997
 30
0.0
 10
263.632080
 20
475.424004
 30
0.0
 10
263.628998
 20
475.375999
 30
0.0
 10
263.640015
 20
475.203003
 30
0.0
 10
263.671997
 20
475.033997
 30
0.0
 10
263.726013
 20
474.869003
 30
0.0
 10
263.799011
 20
474.712997
 30
0.0
 10
263.891998
 20
474.567001
 30
0.0
 10
264.002014
 20
474.433998
 30
0.0
 10
264.038300
 20
474.400002
 30
0.0
 10
264.127991
 20
474.316002
 30
0.0
 10
264.266998
 20
474.214996
 30
0.0
 10
264.419006
 20
474.130997
 30
0.0
 10
264.579010
 20
474.068001
 30
0.0
 10
264.746002
 20
474.025002
 30
0.0
 10
264.917999
 20
474.002998
 30
0.0
 10
265.089996
 20
474.002998
 30
0.0
 10
265.261993
 20
474.025002
 30
0.0
 10
265.428986
 20
474.068001
 30
0.0
 10
265.588989
 20
474.130997
 30
0.0
 10
265.740997
 20
474.214996
 30
0.0
  0
LWPOLYLINE
  5
103
100
AcDbEntity
  8
0
 62
7
100
AcDbPolyline
 90
55
 70
1
 10
264.127991
 20
532.317993
 30
0.0
 10
264.191986
 20
532.271042
 30
0.0
 10
264.266998
 20
532.216003
 30
0.0
 10
264.419006
 20
532.132996
 30
0.0
 10
264.579010
 20
532.069000
 30
0.0
 10
264.746002
 20
532.026993
 30
0.0
 10
264.917999
 20
532.005005
 30
0.0
 10
265.089996
 20
532.005005
 30
0.0
 10
265.261993
 20
532.026993
 30
0.0
 10
265.428986
 20
532.069000
 30
0.0
 10
265.588989
 20
532.132996
 30
0.0
 10
265.740997
 20
532.216003
 30
0.0
 10
265.880005
 20
532.317993
 30
0.0
 10
266.006012
 20
532.436005
 30
0.0
 10
266.115997
 20
532.569000
 30
0.0
 10
266.209015
 20
532.714996
 30
0.0
 10
266.239990
 20
532.781250
 30
0.0
 10
266.282013
 20
532.871002
 30
0.0
 10
266.335999
 20
533.035004
 30
0.0
 10
266.368011
 20
533.205002
 30
0.0
 10
266.378998
 20
533.376999
 30
0.0
 10
266.368011
 20
533.550003
 30
0.0
 10
266.335999
 20
533.718994
 30
0.0
 10
266.282013
 20
533.882996
 30
0.0
 10
266.239990
 20
533.973328
 30
0.0
 10
266.209015
 20
534.039993
 30
0.0
 10
266.115997
 20
534.184998
 30
0.0
 10
266.006012
 20
534.317993
 30
0.0
 10
265.880005
 20
534.436996
 30
0.0
 10
265.740997
 20
534.537994
 30
0.0
 10
265.588989
 20
534.621002
 30
0.0
 10
265.428986
 20
534.684998
 30
0.0
 10
265.261993
 20
534.727997
 30
0.0
 10
265.089996
 20
534.750000
 30
0.0
 10
264.917999
 20
534.750000
 30
0.0
 10
264.746002
 20
534.727997
 30
0.0
 10
264.579010
 20
534.684998
 30
0.0
 10
264.419006
 20
534.621002
 30
0.0
 10
264.266998
 20
534.537994
 30
0.0
 10
264.191986
 20
534.483505
 30
0.0
 10
264.127991
 20
534.436996
 30
0.0
 10
264.002014
 20
534.317993
 30
0.0
 10
263.891998
 20
534.184998
 30
0.0
 10
263.799011
 20
534.039993
 30
0.0
 10
263.726013
 20
533.882996
 30
0.0
 10
263.696045
 20
533.792007
 30
0.0
 10
263.671997
 20
533.718994
 30
0.0
 10
263.640015
 20
533.550003
 30
0.0
 10
263.628998
 20
533.376999
 30
0.0
 10
263.640015
 20
533.205002
 30
0.0
 10
263.671997
 20
533.035004
 30
0.0
 10
263.726013
 20
532.871002
 30
0.0
 10
263.799011
 20
532.714996
 30
0.0
 10
263.891998
 20
532.569000
 30
0.0
 10
264.002014
 20
532.436005
 30
0.0
  0
LWPOLYLINE
  5
104
100
AcDbEntity
  8
0
 62
7
100
AcDbPolyline
 90
55
 70
1
 10
248.899994
 20
396.447001
 30
0.0
 10
249.021347
 20
396.576000
 30
0.0
 10
249.201004
 20
396.767000
 30
0.0
 10
249.460007
 20
397.122999
 30
0.0
 10
249.671997
 20
397.507999
 30
0.0
 10
249.835007
 20
397.917000
 30
0.0
 10
249.944000
 20
398.341999
 30
0.0
 10
249.998993
 20
398.778999
 30
0.0
 10
249.998993
 20
399.218000
 30
0.0
 10
249.944000
 20
399.653999
 30
0.0
 10
249.835007
 20
400.080000
 30
0.0
 10
249.671997
 20
400.489000
 30
0.0
 10
249.571228
 20
400.672001
 30
0.0
 10
249.460007
 20
400.874001
 30
0.0
 10
249.201004
 20
401.229000
 30
0.0
 10
248.899994
 20
401.549999
 30
0.0
 10
248.561005
 20
401.830000
 30
0.0
 10
248.188995
 20
402.065001
 30
0.0
 10
247.789993
 20
402.253000
 30
0.0
 10
247.371002
 20
402.388000
 30
0.0
 10
246.938995
 20
402.471001
 30
0.0
 10
246.498993
 20
402.497999
 30
0.0
 10
246.059998
 20
402.471001
 30
0.0
 10
245.759995
 20
402.413494
 30
0.0
 10
245.626999
 20
402.388000
 30
0.0
 10
245.207993
 20
402.253000
 30
0.0
 10
244.809998
 20
402.065001
 30
0.0
 10
244.438004
 20
401.830000
 30
0.0
 10
244.098999
 20
401.549999
 30
0.0
 10
243.796997
 20
401.229000
 30
0.0
 10
243.537994
 20
400.874001
 30
0.0
 10
243.426773
 20
400.672001
 30
0.0
 10
243.326004
 20
400.489000
 30
0.0
 10
243.164001
 20
400.080000
 30
0.0
 10
243.054001
 20
399.653999
 30
0.0
 10
242.998993
 20
399.218000
 30
0.0
 10
242.998993
 20
398.778999
 30
0.0
 10
243.054001
 20
398.341999
 30
0.0
 10
243.164001
 20
397.917000
 30
0.0
 10
243.326004
 20
397.507999
 30
0.0
 10
243.537994
 20
397.122999
 30
0.0
 10
243.796997
 20
396.767000
 30
0.0
 10
243.977249
 20
396.576000
 30
0.0
 10
244.098999
 20
396.447001
 30
0.0
 10
244.438004
 20
396.167000
 30
0.0
 10
244.809998
 20
395.931000
 30
0.0
 10
245.207993
 20
395.743999
 30
0.0
 10
245.626999
 20
395.608000
 30
0.0
 10
246.059998
 20
395.525999
 30
0.0
 10
246.498993
 20
395.497999
 30
0.0
 10
246.938995
 20
395.525999
 30
0.0
 10
247.371002
 20
395.608000
 30
0.0
 10
247.789993
 20
395.743999
 30
0.0
 10
248.188995
 20
395.931000
 30
0.0
 10
248.561005
 20
396.167000
 30
0.0
  0
LWPOLYLINE
  5
105
100
AcDbEntity
  8
0
 62
7
100
AcDbPolyline
 90
55
 70
1
 10
88.308998
 20
425.011002
 30
0.0
 10
88.497002
 20
424.999001
 30
0.0
 10
88.684998
 20
425.011002
 30
0.0
 10
88.870003
 20
425.046001
 30
0.0
 10
89.049004
 20
425.104000
 30
0.0
 10
89.219002
 20
425.185001
 30
0.0
 10
89.318176
 20
425.248001
 30
0.0
 10
89.377998
 20
425.285999
 30
0.0
 10
89.523003
 20
425.405998
 30
0.0
 10
89.652000
 20
425.542999
 30
0.0
 10
89.763000
 20
425.695000
 30
0.0
 10
89.853996
 20
425.860001
 30
0.0
 10
89.922997
 20
426.035999
 30
0.0
 10
89.970001
 20
426.217999
 30
0.0
 10
89.994003
 20
426.404999
 30
0.0
 10
89.994003
 20
426.592999
 30
0.0
 10
89.970001
 20
426.779999
 30
0.0
 10
89.922997
 20
426.963001
 30
0.0
 10
89.853996
 20
427.138000
 30
0.0
 10
89.766861
 20
427.296001
 30
0.0
 10
89.763000
 20
427.303001
 30
0.0
 10
89.652000
 20
427.455002
 30
0.0
 10
89.523003
 20
427.592999
 30
0.0
 10
89.377998
 20
427.713001
 30
0.0
 10
89.219002
 20
427.813999
 30
0.0
 10
89.049004
 20
427.894001
 30
0.0
 10
88.870003
 20
427.952000
 30
0.0
 10
88.684998
 20
427.987000
 30
0.0
 10
88.497002
 20
427.999001
 30
0.0
 10
88.308998
 20
427.987000
 30
0.0
 10
88.124001
 20
427.952000
 30
0.0
 10
88.064003
 20
427.932667
 30
0.0
 10
87.944000
 20
427.894001
 30
0.0
 10
87.774002
 20
427.813999
 30
0.0
 10
87.614998
 20
427.713001
 30
0.0
 10
87.470001
 20
427.592999
 30
0.0
 10
87.341003
 20
427.455002
 30
0.0
 10
87.230003
 20
427.303001
 30
0.0
 10
87.226143
 20
427.296001
 30
0.0
 10
87.139000
 20
427.138000
 30
0.0
 10
87.070000
 20
426.963001
 30
0.0
 10
87.023003
 20
426.779999
 30
0.0
 10
86.999001
 20
426.592999
 30
0.0
 10
86.999001
 20
426.404999
 30
0.0
 10
87.023003
 20
426.217999
 30
0.0
 10
87.070000
 20
426.035999
 30
0.0
 10
87.139000
 20
425.860001
 30
0.0
 10
87.230003
 20
425.695000
 30
0.0
 10
87.341003
 20
425.542999
 30
0.0
 10
87.470001
 20
425.405998
 30
0.0
 10
87.614998
 20
425.285999
 30
0.0
 10
87.674820
 20
425.248001
 30
0.0
 10
87.774002
 20
425.185001
 30
0.0
 10
87.944000
 20
425.104000
 30
0.0
 10
88.124001
 20
425.046001
 30
0.0
  0
LWPOLYLINE
  5
106
100
AcDbEntity
  8
0
 62
7
100
AcDbPolyline
 90
57
 70
1
 10
181.315994
 20
425.011002
 30
0.0
 10
181.503998
 20
424.999001
 30
0.0
 10
181.692001
 20
425.011002
 30
0.0
 10
181.876999
 20
425.046001
 30
0.0
 10
182.056000
 20
425.104000
 30
0.0
 10
182.227005
 20
425.185001
 30
0.0
 10
182.326172
 20
425.248001
 30
0.0
 10
182.386002
 20
425.285999
 30
0.0
 10
182.531006
 20
425.405998
 30
0.0
 10
182.660004
 20
425.542999
 30
0.0
 10
182.770996
 20
425.695000
 30
0.0
 10
182.860992
 20
425.860001
 30
0.0
 10
182.931000
 20
426.035999
 30
0.0
 10
182.977997
 20
426.217999
 30
0.0
 10
183.001007
 20
426.404999
 30
0.0
 10
183.001007
 20
426.592999
 30
0.0
 10
182.977997
 20
426.779999
 30
0.0
 10
182.931000
 20
426.963001
 30
0.0
 10
182.860992
 20
427.138000
 30
0.0
 10
182.774811
 20
427.296001
 30
0.0
 10
182.770996
 20
427.303001
 30
0.0
 10
182.660004
 20
427.455002
 30
0.0
 10
182.531006
 20
427.592999
 30
0.0
 10
182.386002
 20
427.713001
 30
0.0
 10
182.272003
 20
427.785416
 30
0.0
 10
182.227005
 20
427.813999
 30
0.0
 10
182.056000
 20
427.894001
 30
0.0
 10
181.876999
 20
427.952000
 30
0.0
 10
181.692001
 20
427.987000
 30
0.0
 10
181.503998
 20
427.999001
 30
0.0
 10
181.315994
 20
427.987000
 30
0.0
 10
181.130997
 20
427.952000
 30
0.0
 10
180.951996
 20
427.894001
 30
0.0
 10
180.781006
 20
427.813999
 30
0.0
 10
180.621994
 20
427.713001
 30
0.0
 10
180.477005
 20
427.592999
 30
0.0
 10
180.348007
 20
427.455002
 30
0.0
 10
180.237000
 20
427.303001
 30
0.0
 10
180.233185
 20
427.296001
 30
0.0
 10
180.223999
 20
427.279167
 30
0.0
 10
180.147003
 20
427.138000
 30
0.0
 10
180.076996
 20
426.963001
 30
0.0
 10
180.029999
 20
426.779999
 30
0.0
 10
180.007004
 20
426.592999
 30
0.0
 10
180.007004
 20
426.404999
 30
0.0
 10
180.029999
 20
426.217999
 30
0.0
 10
180.076996
 20
426.035999
 30
0.0
 10
180.147003
 20
425.860001
 30
0.0
 10
180.223999
 20
425.718834
 30
0.0
 10
180.237000
 20
425.695000
 30
0.0
 10
180.348007
 20
425.542999
 30
0.0
 10
180.477005
 20
425.405998
 30
0.0
 10
180.621994
 20
425.285999
 30
0.0
 10
180.681824
 20
425.248001
 30
0.0
 10
180.781006
 20
425.185001
 30
0.0
 10
180.951996
 20
425.104000
 30
0.0
 10
181.130997
 20
425.046001
 30
0.0
  0
LWPOLYLINE
  5
107
100
AcDbEntity
  8
0
 62
7
100
AcDbPolyline
 90
57
 70
1
 10
216.880005
 20
474.316002
 30
0.0
 10
216.969696
 20
474.400002
 30
0.0
 10
217.005997
 20
474.433998
 30
0.0
 10
217.087997
 20
474.533142
 30
0.0
 10
217.115997
 20
474.567001
 30
0.0
 10
217.207993
 20
474.712997
 30
0.0
 10
217.281998
 20
474.869003
 30
0.0
 10
217.335007
 20
475.033997
 30
0.0
 10
217.367004
 20
475.203003
 30
0.0
 10
217.378006
 20
475.375999
 30
0.0
 10
217.367004
 20
475.547997
 30
0.0
 10
217.335007
 20
475.717003
 30
0.0
 10
217.281998
 20
475.882004
 30
0.0
 10
217.207993
 20
476.038002
 30
0.0
 10
217.115997
 20
476.183998
 30
0.0
 10
217.087997
 20
476.217857
 30
0.0
 10
217.005997
 20
476.317001
 30
0.0
 10
216.880005
 20
476.434998
 30
0.0
 10
216.862152
 20
476.447998
 30
0.0
 10
216.740005
 20
476.537003
 30
0.0
 10
216.589005
 20
476.620003
 30
0.0
 10
216.427994
 20
476.682999
 30
0.0
 10
216.261002
 20
476.725998
 30
0.0
 10
216.089005
 20
476.748001
 30
0.0
 10
215.917007
 20
476.748001
 30
0.0
 10
215.744995
 20
476.725998
 30
0.0
 10
215.578003
 20
476.682999
 30
0.0
 10
215.417999
 20
476.620003
 30
0.0
 10
215.266006
 20
476.537003
 30
0.0
 10
215.144714
 20
476.447998
 30
0.0
 10
215.126999
 20
476.434998
 30
0.0
 10
215.039993
 20
476.353523
 30
0.0
 10
215.001007
 20
476.317001
 30
0.0
 10
214.891006
 20
476.183998
 30
0.0
 10
214.798004
 20
476.038002
 30
0.0
 10
214.725006
 20
475.882004
 30
0.0
 10
214.671005
 20
475.717003
 30
0.0
 10
214.639008
 20
475.547997
 30
0.0
 10
214.628006
 20
475.375999
 30
0.0
 10
214.639008
 20
475.203003
 30
0.0
 10
214.671005
 20
475.033997
 30
0.0
 10
214.725006
 20
474.869003
 30
0.0
 10
214.798004
 20
474.712997
 30
0.0
 10
214.891006
 20
474.567001
 30
0.0
 10
215.001007
 20
474.433998
 30
0.0
 10
215.037308
 20
474.400002
 30
0.0
 10
215.126999
 20
474.316002
 30
0.0
 10
215.266006
 20
474.214996
 30
0.0
 10
215.417999
 20
474.130997
 30
0.0
 10
215.578003
 20
474.068001
 30
0.0
 10
215.744995
 20
474.025002
 30
0.0
 10
215.917007
 20
474.002998
 30
0.0
 10
216.089005
 20
474.002998
 30
0.0
 10
216.261002
 20
474.025002
 30
0.0
 10
216.427994
 20
474.068001
 30
0.0
 10
216.589005
 20
474.130997
 30
0.0
 10
216.740005
 20
474.214996
 30
0.0
  0
LWPOLYLINE
  5
108
100
AcDbEntity
  8
0
 62
7
100
AcDbPolyline
 90
55
 70
1
 10
215.001007
 20
532.436005
 30
0.0
 10
215.039993
 20
532.399475
 30
0.0
 10
215.126999
 20
532.317993
 30
0.0
 10
215.266006
 20
532.216003
 30
0.0
 10
215.417999
 20
532.132996
 30
0.0
 10
215.578003
 20
532.069000
 30
0.0
 10
215.744995
 20
532.026993
 30
0.0
 10
215.917007
 20
532.005005
 30
0.0
 10
216.089005
 20
532.005005
 30
0.0
 10
216.261002
 20
532.026993
 30
0.0
 10
216.427994
 20
532.069000
 30
0.0
 10
216.589005
 20
532.132996
 30
0.0
 10
216.740005
 20
532.216003
 30
0.0
 10
216.880005
 20
532.317993
 30
0.0
 10
217.005997
 20
532.436005
 30
0.0
 10
217.087997
 20
532.535141
 30
0.0
 10
217.115997
 20
532.569000
 30
0.0
 10
217.207993
 20
532.714996
 30
0.0
 10
217.281998
 20
532.871002
 30
0.0
 10
217.335007
 20
533.035004
 30
0.0
 10
217.367004
 20
533.205002
 30
0.0
 10
217.378006
 20
533.376999
 30
0.0
 10
217.367004
 20
533.550003
 30
0.0
 10
217.335007
 20
533.718994
 30
0.0
 10
217.281998
 20
533.882996
 30
0.0
 10
217.207993
 20
534.039993
 30
0.0
 10
217.115997
 20
534.184998
 30
0.0
 10
217.087997
 20
534.218857
 30
0.0
 10
217.005997
 20
534.317993
 30
0.0
 10
216.880005
 20
534.436996
 30
0.0
 10
216.740005
 20
534.537994
 30
0.0
 10
216.589005
 20
534.621002
 30
0.0
 10
216.427994
 20
534.684998
 30
0.0
 10
216.261002
 20
534.727997
 30
0.0
 10
216.089005
 20
534.750000
 30
0.0
 10
215.917007
 20
534.750000
 30
0.0
 10
215.744995
 20
534.727997
 30
0.0
 10
215.578003
 20
534.684998
 30
0.0
 10
215.417999
 20
534.621002
 30
0.0
 10
215.266006
 20
534.537994
 30
0.0
 10
215.126999
 20
534.436996
 30
0.0
 10
215.039993
 20
534.354828
 30
0.0
 10
215.001007
 20
534.317993
 30
0.0
 10
214.891006
 20
534.184998
 30
0.0
 10
214.798004
 20
534.039993
 30
0.0
 10
214.725006
 20
533.882996
 30
0.0
 10
214.695038
 20
533.792007
 30
0.0
 10
214.671005
 20
533.718994
 30
0.0
 10
214.639008
 20
533.550003
 30
0.0
 10
214.628006
 20
533.376999
 30
0.0
 10
214.639008
 20
533.205002
 30
0.0
 10
214.671005
 20
533.035004
 30
0.0
 10
214.725006
 20
532.871002
 30
0.0
 10
214.798004
 20
532.714996
 30
0.0
 10
214.891006
 20
532.569000
 30
0.0
  0
LWPOLYLINE
  5
109
100
AcDbEntity
  8
0
 62
7
100
AcDbPolyline
 90
26
 70
1
 10
162.037003
 20
502.949997
 30
0.0
 10
162.501007
 20
502.876007
 30
0.0
 10
162.964005
 20
502.949997
 30
0.0
 10
163.203415
 20
503.072006
 30
0.0
 10
163.382004
 20
503.162994
 30
0.0
 10
163.714005
 20
503.494995
 30
0.0
 10
163.839996
 20
503.742264
 30
0.0
 10
163.927002
 20
503.912994
 30
0.0
 10
164.001007
 20
504.376007
 30
0.0
 10
163.927002
 20
504.839996
 30
0.0
 10
163.839996
 20
505.010727
 30
0.0
 10
163.714005
 20
505.257996
 30
0.0
 10
163.382004
 20
505.589996
 30
0.0
 10
162.964005
 20
505.802994
 30
0.0
 10
162.501007
 20
505.876007
 30
0.0
 10
162.037003
 20
505.802994
 30
0.0
 10
161.792007
 20
505.678162
 30
0.0
 10
161.619003
 20
505.589996
 30
0.0
 10
161.287003
 20
505.257996
 30
0.0
 10
161.074005
 20
504.839996
 30
0.0
 10
161.001007
 20
504.376007
 30
0.0
 10
161.074005
 20
503.912994
 30
0.0
 10
161.287003
 20
503.494995
 30
0.0
 10
161.619003
 20
503.162994
 30
0.0
 10
161.792007
 20
503.074844
 30
0.0
 10
161.797577
 20
503.072006
 30
0.0
  0
LWPOLYLINE
  5
10a
100
AcDbEntity
  8
0
 62
7
100
AcDbPolyline
 90
24
 70
1
 10
107.036003
 20
502.949997
 30
0.0
 10
107.500000
 20
502.876007
 30
0.0
 10
107.962997
 20
502.949997
 30
0.0
 10
108.202415
 20
503.072006
 30
0.0
 10
108.380997
 20
503.162994
 30
0.0
 10
108.712997
 20
503.494995
 30
0.0
 10
108.926003
 20
503.912994
 30
0.0
 10
109.000000
 20
504.376007
 30
0.0
 10
108.926003
 20
504.839996
 30
0.0
 10
108.712997
 20
505.257996
 30
0.0
 10
108.380997
 20
505.589996
 30
0.0
 10
107.962997
 20
505.802994
 30
0.0
 10
107.500000
 20
505.876007
 30
0.0
 10
107.036003
 20
505.802994
 30
0.0
 10
106.617996
 20
505.589996
 30
0.0
 10
106.496002
 20
505.468002
 30
0.0
 10
106.286003
 20
505.257996
 30
0.0
 10
106.072998
 20
504.839996
 30
0.0
 10
106.000000
 20
504.376007
 30
0.0
 10
106.072998
 20
503.912994
 30
0.0
 10
106.286003
 20
503.494995
 30
0.0
 10
106.496002
 20
503.285004
 30
0.0
 10
106.617996
 20
503.162994
 30
0.0
 10
106.796585
 20
503.072006
 30
0.0
  0
LWPOLYLINE
  5
10b
100
AcDbEntity
  8
0
 62
7
100
AcDbPolyline
 90
55
 70
1
 10
87.944000
 20
370.103000
 30
0.0
 10
88.064003
 20
370.064333
 30
0.0
 10
88.124001
 20
370.045000
 30
0.0
 10
88.308998
 20
370.009000
 30
0.0
 10
88.497002
 20
369.997000
 30
0.0
 10
88.684998
 20
370.009000
 30
0.0
 10
88.870003
 20
370.045000
 30
0.0
 10
89.049004
 20
370.103000
 30
0.0
 10
89.219002
 20
370.183000
 30
0.0
 10
89.377998
 20
370.284000
 30
0.0
 10
89.523003
 20
370.404000
 30
0.0
 10
89.652000
 20
370.541000
 30
0.0
 10
89.763000
 20
370.694000
 30
0.0
 10
89.853996
 20
370.859000
 30
0.0
 10
89.900131
 20
370.976000
 30
0.0
 10
89.922997
 20
371.034000
 30
0.0
 10
89.970001
 20
371.216000
 30
0.0
 10
89.994003
 20
371.403000
 30
0.0
 10
89.994003
 20
371.592000
 30
0.0
 10
89.970001
 20
371.779000
 30
0.0
 10
89.922997
 20
371.961000
 30
0.0
 10
89.907623
 20
372.000000
 30
0.0
 10
89.853996
 20
372.136000
 30
0.0
 10
89.763000
 20
372.301000
 30
0.0
 10
89.652000
 20
372.454000
 30
0.0
 10
89.523003
 20
372.591000
 30
0.0
 10
89.377998
 20
372.711000
 30
0.0
 10
89.219002
 20
372.812000
 30
0.0
 10
89.049004
 20
372.892000
 30
0.0
 10
88.870003
 20
372.950000
 30
0.0
 10
88.684998
 20
372.986000
 30
0.0
 10
88.497002
 20
372.998000
 30
0.0
 10
88.308998
 20
372.986000
 30
0.0
 10
88.124001
 20
372.950000
 30
0.0
 10
88.064003
 20
372.930667
 30
0.0
 10
87.944000
 20
372.892000
 30
0.0
 10
87.774002
 20
372.812000
 30
0.0
 10
87.614998
 20
372.711000
 30
0.0
 10
87.470001
 20
372.591000
 30
0.0
 10
87.341003
 20
372.454000
 30
0.0
 10
87.230003
 20
372.301000
 30
0.0
 10
87.139000
 20
372.136000
 30
0.0
 10
87.085381
 20
372.000000
 30
0.0
 10
87.070000
 20
371.961000
 30
0.0
 10
87.023003
 20
371.779000
 30
0.0
 10
86.999001
 20
371.592000
 30
0.0
 10
86.999001
 20
371.403000
 30
0.0
 10
87.023003
 20
371.216000
 30
0.0
 10
87.070000
 20
371.034000
 30
0.0
 10
87.139000
 20
370.859000
 30
0.0
 10
87.230003
 20
370.694000
 30
0.0
 10
87.341003
 20
370.541000
 30
0.0
 10
87.470001
 20
370.404000
 30
0.0
 10
87.614998
 20
370.284000
 30
0.0
 10
87.774002
 20
370.183000
 30
0.0
  0
LWPOLYLINE
  5
10c
100
AcDbEntity
  8
0
 62
7
100
AcDbPolyline
 90
56
 70
1
 10
180.147003
 20
370.859000
 30
0.0
 10
180.223999
 20
370.717833
 30
0.0
 10
180.237000
 20
370.694000
 30
0.0
 10
180.348007
 20
370.541000
 30
0.0
 10
180.477005
 20
370.404000
 30
0.0
 10
180.621994
 20
370.284000
 30
0.0
 10
180.781006
 20
370.183000
 30
0.0
 10
180.951996
 20
370.103000
 30
0.0
 10
181.130997
 20
370.045000
 30
0.0
 10
181.315994
 20
370.009000
 30
0.0
 10
181.503998
 20
369.997000
 30
0.0
 10
181.692001
 20
370.009000
 30
0.0
 10
181.876999
 20
370.045000
 30
0.0
 10
182.056000
 20
370.103000
 30
0.0
 10
182.227005
 20
370.183000
 30
0.0
 10
182.272003
 20
370.211585
 30
0.0
 10
182.386002
 20
370.284000
 30
0.0
 10
182.531006
 20
370.404000
 30
0.0
 10
182.660004
 20
370.541000
 30
0.0
 10
182.770996
 20
370.694000
 30
0.0
 10
182.860992
 20
370.859000
 30
0.0
 10
182.931000
 20
371.034000
 30
0.0
 10
182.977997
 20
371.216000
 30
0.0
 10
183.001007
 20
371.403000
 30
0.0
 10
183.001007
 20
371.592000
 30
0.0
 10
182.977997
 20
371.779000
 30
0.0
 10
182.931000
 20
371.961000
 30
0.0
 10
182.915405
 20
372.000000
 30
0.0
 10
182.860992
 20
372.136000
 30
0.0
 10
182.770996
 20
372.301000
 30
0.0
 10
182.660004
 20
372.454000
 30
0.0
 10
182.531006
 20
372.591000
 30
0.0
 10
182.386002
 20
372.711000
 30
0.0
 10
182.272003
 20
372.783415
 30
0.0
 10
182.227005
 20
372.812000
 30
0.0
 10
182.056000
 20
372.892000
 30
0.0
 10
181.876999
 20
372.950000
 30
0.0
 10
181.692001
 20
372.986000
 30
0.0
 10
181.503998
 20
372.998000
 30
0.0
 10
181.315994
 20
372.986000
 30
0.0
 10
181.130997
 20
372.950000
 30
0.0
 10
180.951996
 20
372.892000
 30
0.0
 10
180.781006
 20
372.812000
 30
0.0
 10
180.621994
 20
372.711000
 30
0.0
 10
180.477005
 20
372.591000
 30
0.0
 10
180.348007
 20
372.454000
 30
0.0
 10
180.237000
 20
372.301000
 30
0.0
 10
180.223999
 20
372.277167
 30
0.0
 10
180.147003
 20
372.136000
 30
0.0
 10
180.092606
 20
372.000000
 30
0.0
 10
180.076996
 20
371.961000
 30
0.0
 10
180.029999
 20
371.779000
 30
0.0
 10
180.007004
 20
371.592000
 30
0.0
 10
180.007004
 20
371.403000
 30
0.0
 10
180.029999
 20
371.216000
 30
0.0
 10
180.076996
 20
371.034000
 30
0.0
  0
LWPOLYLINE
  5
10d
100
AcDbEntity
  8
0
 62
7
100
AcDbPolyline
 90
55
 70
1
 10
36.792000
 20
489.866997
 30
0.0
 10
36.863998
 20
489.753967
 30
0.0
 10
36.884998
 20
489.721001
 30
0.0
 10
36.994999
 20
489.587997
 30
0.0
 10
37.120998
 20
489.469002
 30
0.0
 10
37.259998
 20
489.367996
 30
0.0
 10
37.411999
 20
489.285004
 30
0.0
 10
37.571999
 20
489.221001
 30
0.0
 10
37.738998
 20
489.178001
 30
0.0
 10
37.910999
 20
489.156998
 30
0.0
 10
38.083000
 20
489.156998
 30
0.0
 10
38.255001
 20
489.178001
 30
0.0
 10
38.422001
 20
489.221001
 30
0.0
 10
38.583000
 20
489.285004
 30
0.0
 10
38.734001
 20
489.367996
 30
0.0
 10
38.874001
 20
489.469002
 30
0.0
 10
38.911999
 20
489.505173
 30
0.0
 10
38.999001
 20
489.587997
 30
0.0
 10
39.110001
 20
489.721001
 30
0.0
 10
39.202000
 20
489.866997
 30
0.0
 10
39.276001
 20
490.023003
 30
0.0
 10
39.328999
 20
490.186996
 30
0.0
 10
39.361000
 20
490.357002
 30
0.0
 10
39.372002
 20
490.528999
 30
0.0
 10
39.361000
 20
490.700996
 30
0.0
 10
39.345375
 20
490.783997
 30
0.0
 10
39.328999
 20
490.871002
 30
0.0
 10
39.276001
 20
491.035004
 30
0.0
 10
39.202000
 20
491.191002
 30
0.0
 10
39.110001
 20
491.336998
 30
0.0
 10
38.999001
 20
491.470001
 30
0.0
 10
38.911999
 20
491.552132
 30
0.0
 10
38.874001
 20
491.587997
 30
0.0
 10
38.734001
 20
491.690002
 30
0.0
 10
38.583000
 20
491.773003
 30
0.0
 10
38.422001
 20
491.836998
 30
0.0
 10
38.255001
 20
491.879997
 30
0.0
 10
38.083000
 20
491.901001
 30
0.0
 10
37.910999
 20
491.901001
 30
0.0
 10
37.738998
 20
491.879997
 30
0.0
 10
37.571999
 20
491.836998
 30
0.0
 10
37.411999
 20
491.773003
 30
0.0
 10
37.259998
 20
491.690002
 30
0.0
 10
37.120998
 20
491.587997
 30
0.0
 10
36.994999
 20
491.470001
 30
0.0
 10
36.884998
 20
491.336998
 30
0.0
 10
36.863998
 20
491.304031
 30
0.0
 10
36.792000
 20
491.191002
 30
0.0
 10
36.719002
 20
491.035004
 30
0.0
 10
36.665001
 20
490.871002
 30
0.0
 10
36.632999
 20
490.700996
 30
0.0
 10
36.622002
 20
490.528999
 30
0.0
 10
36.632999
 20
490.357002
 30
0.0
 10
36.665001
 20
490.186996
 30
0.0
 10
36.719002
 20
490.023003
 30
0.0
  0
LWPOLYLINE
  5
10e
100
AcDbEntity
  8
0
 62
7
100
AcDbPolyline
 90
56
 70
1
 10
52.939999
 20
539.979996
 30
0.0
 10
53.111000
 20
539.957993
 30
0.0
 10
53.248001
 20
539.957993
 30
0.0
 10
53.284000
 20
539.957993
 30
0.0
 10
53.455002
 20
539.979996
 30
0.0
 10
53.622002
 20
540.022995
 30
0.0
 10
53.783001
 20
540.085999
 30
0.0
 10
53.933998
 20
540.169006
 30
0.0
 10
54.074001
 20
540.270996
 30
0.0
 10
54.200001
 20
540.389008
 30
0.0
 10
54.310001
 20
540.522003
 30
0.0
 10
54.402000
 20
540.667999
 30
0.0
 10
54.476002
 20
540.824005
 30
0.0
 10
54.519951
 20
540.960007
 30
0.0
 10
54.528999
 20
540.988007
 30
0.0
 10
54.562000
 20
541.158005
 30
0.0
 10
54.571999
 20
541.330002
 30
0.0
 10
54.562000
 20
541.503006
 30
0.0
 10
54.528999
 20
541.671997
 30
0.0
 10
54.476002
 20
541.837006
 30
0.0
 10
54.406269
 20
541.983994
 30
0.0
 10
54.402000
 20
541.992996
 30
0.0
 10
54.310001
 20
542.139008
 30
0.0
 10
54.200001
 20
542.272003
 30
0.0
 10
54.074001
 20
542.389999
 30
0.0
 10
53.933998
 20
542.490997
 30
0.0
 10
53.783001
 20
542.574997
 30
0.0
 10
53.622002
 20
542.638000
 30
0.0
 10
53.455002
 20
542.681000
 30
0.0
 10
53.284000
 20
542.703003
 30
0.0
 10
53.248001
 20
542.703003
 30
0.0
 10
53.111000
 20
542.703003
 30
0.0
 10
52.939999
 20
542.681000
 30
0.0
 10
52.771999
 20
542.638000
 30
0.0
 10
52.612000
 20
542.574997
 30
0.0
 10
52.460999
 20
542.490997
 30
0.0
 10
52.320999
 20
542.389999
 30
0.0
 10
52.195000
 20
542.272003
 30
0.0
 10
52.084999
 20
542.139008
 30
0.0
 10
51.992001
 20
541.992996
 30
0.0
 10
51.987789
 20
541.983994
 30
0.0
 10
51.918999
 20
541.837006
 30
0.0
 10
51.866001
 20
541.671997
 30
0.0
 10
51.833000
 20
541.503006
 30
0.0
 10
51.821999
 20
541.330002
 30
0.0
 10
51.833000
 20
541.158005
 30
0.0
 10
51.866001
 20
540.988007
 30
0.0
 10
51.875050
 20
540.960007
 30
0.0
 10
51.918999
 20
540.824005
 30
0.0
 10
51.992001
 20
540.667999
 30
0.0
 10
52.084999
 20
540.522003
 30
0.0
 10
52.195000
 20
540.389008
 30
0.0
 10
52.320999
 20
540.270996
 30
0.0
 10
52.460999
 20
540.169006
 30
0.0
 10
52.612000
 20
540.085999
 30
0.0
 10
52.771999
 20
540.022995
 30
0.0
  0
LWPOLYLINE
  5
10f
100
AcDbEntity
  8
0
 62
7
100
AcDbPolyline
 90
56
 70
1
 10
19.368000
 20
421.109001
 30
0.0
 10
19.500162
 20
421.152000
 30
0.0
 10
19.785999
 20
421.244999
 30
0.0
 10
20.184999
 20
421.431999
 30
0.0
 10
20.556999
 20
421.667000
 30
0.0
 10
20.896000
 20
421.948002
 30
0.0
 10
21.198000
 20
422.268002
 30
0.0
 10
21.455999
 20
422.624001
 30
0.0
 10
21.669001
 20
423.008999
 30
0.0
 10
21.830999
 20
423.417000
 30
0.0
 10
21.940001
 20
423.842999
 30
0.0
 10
21.995001
 20
424.278999
 30
0.0
 10
21.995001
 20
424.719002
 30
0.0
 10
21.940001
 20
425.154999
 30
0.0
 10
21.916204
 20
425.248001
 30
0.0
 10
21.830999
 20
425.581001
 30
0.0
 10
21.669001
 20
425.988998
 30
0.0
 10
21.455999
 20
426.375000
 30
0.0
 10
21.198000
 20
426.730000
 30
0.0
 10
20.896000
 20
427.050999
 30
0.0
 10
20.556999
 20
427.331001
 30
0.0
 10
20.480000
 20
427.379642
 30
0.0
 10
20.184999
 20
427.566002
 30
0.0
 10
19.785999
 20
427.752998
 30
0.0
 10
19.368000
 20
427.889000
 30
0.0
 10
18.934999
 20
427.972000
 30
0.0
 10
18.495001
 20
427.999001
 30
0.0
 10
18.056000
 20
427.972000
 30
0.0
 10
17.622999
 20
427.889000
 30
0.0
 10
17.204000
 20
427.752998
 30
0.0
 10
16.806000
 20
427.566002
 30
0.0
 10
16.434000
 20
427.331001
 30
0.0
 10
16.384001
 20
427.289703
 30
0.0
 10
16.094999
 20
427.050999
 30
0.0
 10
15.793000
 20
426.730000
 30
0.0
 10
15.534000
 20
426.375000
 30
0.0
 10
15.322000
 20
425.988998
 30
0.0
 10
15.160000
 20
425.581001
 30
0.0
 10
15.051000
 20
425.154999
 30
0.0
 10
14.995000
 20
424.719002
 30
0.0
 10
14.995000
 20
424.278999
 30
0.0
 10
15.051000
 20
423.842999
 30
0.0
 10
15.160000
 20
423.417000
 30
0.0
 10
15.322000
 20
423.008999
 30
0.0
 10
15.534000
 20
422.624001
 30
0.0
 10
15.793000
 20
422.268002
 30
0.0
 10
16.094999
 20
421.948002
 30
0.0
 10
16.384001
 20
421.708447
 30
0.0
 10
16.434000
 20
421.667000
 30
0.0
 10
16.806000
 20
421.431999
 30
0.0
 10
17.204000
 20
421.244999
 30
0.0
 10
17.490522
 20
421.152000
 30
0.0
 10
17.622999
 20
421.109001
 30
0.0
 10
18.056000
 20
421.027000
 30
0.0
 10
18.495001
 20
420.999001
 30
0.0
 10
18.934999
 20
421.027000
 30
0.0
  0
LWPOLYLINE
  5
110
100
AcDbEntity
  8
0
 62
7
100
AcDbPolyline
 90
55
 70
1
 10
9.839000
 20
489.178001
 30
0.0
 10
10.010000
 20
489.156998
 30
0.0
 10
10.183000
 20
489.156998
 30
0.0
 10
10.240000
 20
489.164001
 30
0.0
 10
10.354000
 20
489.178001
 30
0.0
 10
10.522000
 20
489.221001
 30
0.0
 10
10.682000
 20
489.285004
 30
0.0
 10
10.833000
 20
489.367996
 30
0.0
 10
10.973000
 20
489.469002
 30
0.0
 10
11.099000
 20
489.587997
 30
0.0
 10
11.209000
 20
489.721001
 30
0.0
 10
11.302000
 20
489.866997
 30
0.0
 10
11.375000
 20
490.023003
 30
0.0
 10
11.428000
 20
490.186996
 30
0.0
 10
11.461000
 20
490.357002
 30
0.0
 10
11.472000
 20
490.528999
 30
0.0
 10
11.461000
 20
490.700996
 30
0.0
 10
11.444888
 20
490.783997
 30
0.0
 10
11.428000
 20
490.871002
 30
0.0
 10
11.375000
 20
491.035004
 30
0.0
 10
11.302000
 20
491.191002
 30
0.0
 10
11.209000
 20
491.336998
 30
0.0
 10
11.099000
 20
491.470001
 30
0.0
 10
10.973000
 20
491.587997
 30
0.0
 10
10.833000
 20
491.690002
 30
0.0
 10
10.682000
 20
491.773003
 30
0.0
 10
10.522000
 20
491.836998
 30
0.0
 10
10.354000
 20
491.879997
 30
0.0
 10
10.240000
 20
491.893997
 30
0.0
 10
10.183000
 20
491.901001
 30
0.0
 10
10.010000
 20
491.901001
 30
0.0
 10
9.839000
 20
491.879997
 30
0.0
 10
9.672000
 20
491.836998
 30
0.0
 10
9.511000
 20
491.773003
 30
0.0
 10
9.360000
 20
491.690002
 30
0.0
 10
9.220000
 20
491.587997
 30
0.0
 10
9.094000
 20
491.470001
 30
0.0
 10
8.984000
 20
491.336998
 30
0.0
 10
8.892000
 20
491.191002
 30
0.0
 10
8.818000
 20
491.035004
 30
0.0
 10
8.765000
 20
490.871002
 30
0.0
 10
8.748112
 20
490.783997
 30
0.0
 10
8.732000
 20
490.700996
 30
0.0
 10
8.722000
 20
490.528999
 30
0.0
 10
8.732000
 20
490.357002
 30
0.0
 10
8.765000
 20
490.186996
 30
0.0
 10
8.818000
 20
490.023003
 30
0.0
 10
8.892000
 20
489.866997
 30
0.0
 10
8.959425
 20
489.760002
 30
0.0
 10
8.984000
 20
489.721001
 30
0.0
 10
9.094000
 20
489.587997
 30
0.0
 10
9.220000
 20
489.469002
 30
0.0
 10
9.360000
 20
489.367996
 30
0.0
 10
9.511000
 20
489.285004
 30
0.0
 10
9.672000
 20
489.221001
 30
0.0
  0
LWPOLYLINE
  5
111
100
AcDbEntity
  8
0
 62
7
100
AcDbPolyline
 90
55
 70
1
 10
3.994000
 20
541.688995
 30
0.0
 10
4.096000
 20
541.593475
 30
0.0
 10
4.120000
 20
541.570999
 30
0.0
 10
4.260000
 20
541.468994
 30
0.0
 10
4.411000
 20
541.386002
 30
0.0
 10
4.572000
 20
541.322998
 30
0.0
 10
4.739000
 20
541.279999
 30
0.0
 10
4.910000
 20
541.257996
 30
0.0
 10
5.083000
 20
541.257996
 30
0.0
 10
5.254000
 20
541.279999
 30
0.0
 10
5.421000
 20
541.322998
 30
0.0
 10
5.582000
 20
541.386002
 30
0.0
 10
5.733000
 20
541.468994
 30
0.0
 10
5.873000
 20
541.570999
 30
0.0
 10
5.999000
 20
541.688995
 30
0.0
 10
6.109000
 20
541.822006
 30
0.0
 10
6.144000
 20
541.877548
 30
0.0
 10
6.201000
 20
541.968002
 30
0.0
 10
6.208590
 20
541.983994
 30
0.0
 10
6.275000
 20
542.123993
 30
0.0
 10
6.328000
 20
542.289001
 30
0.0
 10
6.361000
 20
542.457993
 30
0.0
 10
6.372000
 20
542.630005
 30
0.0
 10
6.361000
 20
542.802994
 30
0.0
 10
6.328000
 20
542.972000
 30
0.0
 10
6.275000
 20
543.136993
 30
0.0
 10
6.201000
 20
543.292999
 30
0.0
 10
6.144000
 20
543.383453
 30
0.0
 10
6.109000
 20
543.438995
 30
0.0
 10
5.999000
 20
543.572006
 30
0.0
 10
5.873000
 20
543.690002
 30
0.0
 10
5.733000
 20
543.791000
 30
0.0
 10
5.582000
 20
543.875000
 30
0.0
 10
5.421000
 20
543.938004
 30
0.0
 10
5.254000
 20
543.981003
 30
0.0
 10
5.083000
 20
544.003006
 30
0.0
 10
4.910000
 20
544.003006
 30
0.0
 10
4.739000
 20
543.981003
 30
0.0
 10
4.572000
 20
543.938004
 30
0.0
 10
4.411000
 20
543.875000
 30
0.0
 10
4.260000
 20
543.791000
 30
0.0
 10
4.120000
 20
543.690002
 30
0.0
 10
4.096000
 20
543.667526
 30
0.0
 10
3.994000
 20
543.572006
 30
0.0
 10
3.884000
 20
543.438995
 30
0.0
 10
3.792000
 20
543.292999
 30
0.0
 10
3.718000
 20
543.136993
 30
0.0
 10
3.665000
 20
542.972000
 30
0.0
 10
3.632000
 20
542.802994
 30
0.0
 10
3.622000
 20
542.630005
 30
0.0
 10
3.632000
 20
542.457993
 30
0.0
 10
3.665000
 20
542.289001
 30
0.0
 10
3.718000
 20
542.123993
 30
0.0
 10
3.792000
 20
541.968002
 30
0.0
 10
3.884000
 20
541.822006
 30
0.0
  0
LWPOLYLINE
  5
112
100
AcDbEntity
  8
0
 62
7
100
AcDbPolyline
 90
4
 70
1
 10
27.252001
 20
423.249001
 30
0.0
 10
27.252001
 20
425.749001
 30
0.0
 10
25.752001
 20
425.749001
 30
0.0
 10
25.752001
 20
423.249001
 30
0.0
  0
LWPOLYLINE
  5
113
100
AcDbEntity
  8
0
 62
7
100
AcDbPolyline
 90
5
 70
1
 10
255.255997
 20
397.747999
 30
0.0
 10
255.255997
 20
400.247999
 30
0.0
 10
253.755997
 20
400.247999
 30
0.0
 10
253.755997
 20
397.747999
 30
0.0
 10
255.255997
 20
397.747999
 30
0.0
  0
ENDSEC
  0
SECTION
  2
OBJECTS
  0
DICTIONARY
  5
C
330
0
100
AcDbDictionary
  3
ACAD_GROUP
350
D
  3
ACAD_MLINESTYLE
350
17
  0
DICTIONARY
  5
D
330
C
100
AcDbDictionary
  0
DICTIONARY
  5
1A
330
C
100
AcDbDictionary
  0
DICTIONARY
  5
17
330
C
100
AcDbDictionary
  3
STANDARD
350
18
  0
DICTIONARY
  5
19
330
C
100
AcDbDictionary
  0
ENDSEC
  0
EOF
