<?xml version="1.0" standalone="no"?>
<!DOCTYPE svg PUBLIC "-//W3C//DTD SVG 1.1//EN"
  "http://www.w3.org/Graphics/SVG/1.1/DTD/svg11.dtd">
<svg width="472mm" height="371.9999999999999mm" viewBox="-101 -270.99999999999994 472 371.9999999999999" xmlns="http://www.w3.org/2000/svg" version="1.1">
	<title>svgOutput</title>
	<desc>made with tinkercad</desc>
<path d="M 370 99.99999999999997 L -28.006000518798828 99.99999999999997 L -100 99.99999999999997 L -100 -269.99999999999994 L -28.006000518798828 -269.99999999999994 L -12.036999702453613 -269.99999999999994 L 14.994999885559082 -269.99999999999994 L 17.7450008392334 -269.99999999999994 L 20.094999313354492 -269.99999999999994 L 21.9950008392334 -269.99999999999994 L 22.844999313354492 -269.99999999999994 L 25.75200080871582 -269.99999999999994 L 27.25200080871582 -269.99999999999994 L 47.99599838256836 -269.99999999999994 L 50.74599838256836 -269.99999999999994 L 63.19599914550781 -269.99999999999994 L 65.94599914550781 -269.99999999999994 L 86.9990005493164 -269.99999999999994 L 89.99400329589844 -269.99999999999994 L 100.62699890136719 -269.99999999999994 L 103.37200164794922 -269.99999999999994 L 166.62899780273438 -269.99999999999994 L 169.3730010986328 -269.99999999999994 L 180.0070037841797 -269.99999999999994 L 183.00100708007812 -269.99999999999994 L 203.50599670410156 -269.99999999999994 L 206.25599670410156 -269.99999999999994 L 252.50599670410156 -269.99999999999994 L 255.2570037841797 -269.99999999999994 L 370 -269.99999999999994 L 370 -102.00299835205075 L 370 -52.99900054931639 L 370 2.0030000209808345 L 370 99.99999999999997 M -21.02400016784668 1.939000010490417 L -20.020999908447266 2.0030000209808345 L -19.01799964904785 1.939000010490417 L -18.031999588012695 1.751000046730041 L -17.076000213623047 1.440999984741211 L -16.16699981689453 1.0130000114440918 L -15.319000244140625 0.4749999940395355 L -14.745443344116211 1.1102230246251565e-16 L -14.545000076293945 -0.16599999368190752 L -13.857000350952148 -0.8980000019073483 L -13.265999794006348 -1.7109999656677242 L -12.781999588012695 -2.591000080108642 L -12.413000106811523 -3.5260000228881827 L -12.163000106811523 -4.499000072479247 L -12.036999702453613 -5.494999885559081 L -12.036999702453613 -6.499999999999998 L -12.163000106811523 -7.497000217437742 L -12.413000106811523 -8.470000267028807 L -12.781999588012695 -9.404000282287596 L -13.265999794006348 -10.284000396728514 L -13.857000350952148 -11.09700012207031 L -14.545000076293945 -11.829999923706053 L -15.319000244140625 -12.470000267028805 L -16.16699981689453 -13.008000373840328 L -16.384000778198242 -13.110174179077145 L -17.076000213623047 -13.43599987030029 L -18.031999588012695 -13.746999740600582 L -19.01799964904785 -13.935000419616696 L -20.020999908447266 -13.998000144958493 L -21.02400016784668 -13.935000419616696 L -22.01099967956543 -13.746999740600582 L -22.965999603271484 -13.43599987030029 L -23.875 -13.008000373840328 L -24.724000930786133 -12.470000267028805 L -25.49799919128418 -11.829999923706053 L -26.184999465942383 -11.09700012207031 L -26.775999069213867 -10.284000396728514 L -27.260000228881836 -9.404000282287596 L -27.6299991607666 -8.470000267028807 L -27.70142936706543 -8.19200038909912 L -27.8799991607666 -7.497000217437742 L -28.006000518798828 -6.499999999999998 L -28.006000518798828 -5.494999885559081 L -27.8799991607666 -4.499000072479247 L -27.6299991607666 -3.5260000228881827 L -27.260000228881836 -2.591000080108642 L -26.775999069213867 -1.7109999656677242 L -26.184999465942383 -0.8980000019073483 L -25.49799919128418 -0.16599999368190752 L -25.297557830810547 1.1102230246251565e-16 L -24.724000930786133 0.4749999940395355 L -23.875 1.0130000114440918 L -22.965999603271484 1.440999984741211 L -22.01099967956543 1.751000046730041 L -21.02400016784668 1.939000010490417 M 88.30899810791016 -53.01100158691405 L 88.49700164794922 -52.99900054931639 L 88.68499755859375 -53.01100158691405 L 88.87000274658203 -53.04600143432616 L 89.04900360107422 -53.10400009155272 L 89.21900177001953 -53.185001373291 L 89.31817626953125 -53.2480010986328 L 89.37799835205078 -53.28599929809569 L 89.52400207519531 -53.405998229980455 L 89.65299987792969 -53.54299926757811 L 89.76300048828125 -53.694999694824205 L 89.85399627685547 -53.86000061035155 L 89.9229965209961 -54.03599929809569 L 89.97000122070312 -54.21799850463866 L 89.99400329589844 -54.40499877929686 L 89.99400329589844 -54.59299850463866 L 89.97000122070312 -54.77999877929686 L 89.9229965209961 -54.96300125122069 L 89.85399627685547 -55.138000488281236 L 89.76686096191406 -55.29600143432616 L 89.76300048828125 -55.30300140380858 L 89.65299987792969 -55.45500183105467 L 89.52400207519531 -55.59299850463866 L 89.37799835205078 -55.71300125122069 L 89.21900177001953 -55.813999176025376 L 89.04900360107422 -55.894001007080064 L 88.87000274658203 -55.951999664306626 L 88.68499755859375 -55.986999511718736 L 88.49700164794922 -55.99900054931639 L 88.30899810791016 -55.986999511718736 L 88.1240005493164 -55.951999664306626 L 88.06400299072266 -55.93266677856444 L 87.94400024414062 -55.894001007080064 L 87.77400207519531 -55.813999176025376 L 87.61499786376953 -55.71300125122069 L 87.47000122070312 -55.59299850463866 L 87.34100341796875 -55.45500183105467 L 87.2300033569336 -55.30300140380858 L 87.22614288330078 -55.29600143432616 L 87.13899993896484 -55.138000488281236 L 87.06999969482422 -54.96300125122069 L 87.02300262451172 -54.77999877929686 L 86.9990005493164 -54.59299850463866 L 86.9990005493164 -54.40499877929686 L 87.02300262451172 -54.21799850463866 L 87.06999969482422 -54.03599929809569 L 87.13899993896484 -53.86000061035155 L 87.2300033569336 -53.694999694824205 L 87.34100341796875 -53.54299926757811 L 87.47000122070312 -53.405998229980455 L 87.61499786376953 -53.28599929809569 L 87.67481994628906 -53.2480010986328 L 87.77400207519531 -53.185001373291 L 87.94400024414062 -53.10400009155272 L 88.1240005493164 -53.04600143432616 L 88.30899810791016 -53.01100158691405 M 181.3159942626953 -53.01100158691405 L 181.50399780273438 -52.99900054931639 L 181.69200134277344 -53.01100158691405 L 181.8769989013672 -53.04600143432616 L 182.05599975585938 -53.10400009155272 L 182.2270050048828 -53.185001373291 L 182.326171875 -53.2480010986328 L 182.38600158691406 -53.28599929809569 L 182.531005859375 -53.405998229980455 L 182.66000366210938 -53.54299926757811 L 182.77099609375 -53.694999694824205 L 182.86099243164062 -53.86000061035155 L 182.93099975585938 -54.03599929809569 L 182.97799682617188 -54.21799850463866 L 183.00100708007812 -54.40499877929686 L 183.00100708007812 -54.59299850463866 L 182.97799682617188 -54.77999877929686 L 182.93099975585938 -54.96300125122069 L 182.86099243164062 -55.138000488281236 L 182.77481079101562 -55.29600143432616 L 182.77099609375 -55.30300140380858 L 182.66000366210938 -55.45500183105467 L 182.531005859375 -55.59299850463866 L 182.38600158691406 -55.71300125122069 L 182.27200317382812 -55.78541564941405 L 182.2270050048828 -55.813999176025376 L 182.05599975585938 -55.894001007080064 L 181.8769989013672 -55.951999664306626 L 181.69200134277344 -55.986999511718736 L 181.50399780273438 -55.99900054931639 L 181.3159942626953 -55.986999511718736 L 181.13099670410156 -55.951999664306626 L 180.95199584960938 -55.894001007080064 L 180.781005859375 -55.813999176025376 L 180.6219940185547 -55.71300125122069 L 180.4770050048828 -55.59299850463866 L 180.34800720214844 -55.45500183105467 L 180.23800659179688 -55.30300140380858 L 180.23414611816406 -55.29600143432616 L 180.2239990234375 -55.277614593505845 L 180.14700317382812 -55.138000488281236 L 180.07699584960938 -54.96300125122069 L 180.031005859375 -54.77999877929686 L 180.0070037841797 -54.59299850463866 L 180.0070037841797 -54.40499877929686 L 180.031005859375 -54.21799850463866 L 180.07699584960938 -54.03599929809569 L 180.14700317382812 -53.86000061035155 L 180.2239990234375 -53.72038650512694 L 180.23800659179688 -53.694999694824205 L 180.34800720214844 -53.54299926757811 L 180.4770050048828 -53.405998229980455 L 180.6219940185547 -53.28599929809569 L 180.68182373046875 -53.2480010986328 L 180.781005859375 -53.185001373291 L 180.95199584960938 -53.10400009155272 L 181.13099670410156 -53.04600143432616 L 181.3159942626953 -53.01100158691405 M 253.62399291992188 -102.02500152587888 L 253.7949981689453 -102.00299835205075 L 253.95199584960938 -102.00299835205075 L 253.96800231933594 -102.00299835205075 L 254.13900756835938 -102.02500152587888 L 254.30599975585938 -102.068000793457 L 254.4669952392578 -102.13099670410153 L 254.6179962158203 -102.2149963378906 L 254.75799560546875 -102.31600189208982 L 254.8477020263672 -102.40000152587888 L 254.88400268554688 -102.43399810791013 L 254.99400329589844 -102.56700134277341 L 255.08599853515625 -102.71299743652341 L 255.16000366210938 -102.86900329589841 L 255.21299743652344 -103.03399658203122 L 255.24600219726562 -103.20300292968747 L 255.2570037841797 -103.37599945068357 L 255.25393676757812 -103.42400360107419 L 255.24600219726562 -103.54799652099607 L 255.21299743652344 -103.71700286865232 L 255.16000366210938 -103.88200378417966 L 255.08599853515625 -104.03800201416013 L 254.99400329589844 -104.18399810791013 L 254.88400268554688 -104.31700134277341 L 254.75799560546875 -104.43499755859372 L 254.7401580810547 -104.44799804687497 L 254.6179962158203 -104.53700256347653 L 254.4669952392578 -104.620002746582 L 254.30599975585938 -104.68299865722653 L 254.13900756835938 -104.72599792480466 L 253.96800231933594 -104.74800109863278 L 253.95199584960938 -104.74800109863278 L 253.7949981689453 -104.74800109863278 L 253.62399291992188 -104.72599792480466 L 253.45700073242188 -104.68299865722653 L 253.29600524902344 -104.620002746582 L 253.14500427246094 -104.53700256347653 L 253.02284240722656 -104.44799804687497 L 253.0050048828125 -104.43499755859372 L 252.87899780273438 -104.31700134277341 L 252.7689971923828 -104.18399810791013 L 252.677001953125 -104.03800201416013 L 252.60299682617188 -103.88200378417966 L 252.5500030517578 -103.71700286865232 L 252.51699829101562 -103.54799652099607 L 252.50906372070312 -103.42400360107419 L 252.50599670410156 -103.37599945068357 L 252.51699829101562 -103.20300292968747 L 252.5500030517578 -103.03399658203122 L 252.60299682617188 -102.86900329589841 L 252.677001953125 -102.71299743652341 L 252.7689971923828 -102.56700134277341 L 252.87899780273438 -102.43399810791013 L 252.91529846191406 -102.40000152587888 L 253.0050048828125 -102.31600189208982 L 253.14500427246094 -102.2149963378906 L 253.29600524902344 -102.13099670410153 L 253.45700073242188 -102.068000793457 L 253.62399291992188 -102.02500152587888 M 253.62399291992188 -160.02699279785153 L 253.7949981689453 -160.00500488281247 L 253.95199584960938 -160.00500488281247 L 253.96800231933594 -160.00500488281247 L 254.13900756835938 -160.02699279785153 L 254.30599975585938 -160.0690002441406 L 254.4669952392578 -160.13299560546872 L 254.6179962158203 -160.21600341796872 L 254.75799560546875 -160.31799316406247 L 254.88400268554688 -160.43600463867185 L 254.99400329589844 -160.5690002441406 L 255.08599853515625 -160.7149963378906 L 255.11114501953125 -160.76800537109372 L 255.16000366210938 -160.8710021972656 L 255.21299743652344 -161.03500366210935 L 255.24600219726562 -161.20500183105466 L 255.2570037841797 -161.37699890136716 L 255.24600219726562 -161.55000305175778 L 255.21299743652344 -161.71899414062497 L 255.1894073486328 -161.79200744628903 L 255.16000366210938 -161.88299560546872 L 255.08599853515625 -162.03999328613278 L 254.99400329589844 -162.18499755859372 L 254.88400268554688 -162.31799316406247 L 254.75799560546875 -162.4369964599609 L 254.6179962158203 -162.5379943847656 L 254.4669952392578 -162.6210021972656 L 254.30599975585938 -162.68499755859372 L 254.13900756835938 -162.72799682617185 L 253.96800231933594 -162.74999999999997 L 253.95199584960938 -162.74999999999997 L 253.7949981689453 -162.74999999999997 L 253.62399291992188 -162.72799682617185 L 253.45700073242188 -162.68499755859372 L 253.29600524902344 -162.6210021972656 L 253.14500427246094 -162.5379943847656 L 253.0050048828125 -162.4369964599609 L 252.87899780273438 -162.31799316406247 L 252.7689971923828 -162.18499755859372 L 252.677001953125 -162.03999328613278 L 252.60299682617188 -161.88299560546872 L 252.57359313964844 -161.79200744628903 L 252.5500030517578 -161.71899414062497 L 252.51699829101562 -161.55000305175778 L 252.50599670410156 -161.37699890136716 L 252.51699829101562 -161.20500183105466 L 252.5500030517578 -161.03500366210935 L 252.60299682617188 -160.8710021972656 L 252.65185546875 -160.76800537109372 L 252.677001953125 -160.7149963378906 L 252.7689971923828 -160.5690002441406 L 252.87899780273438 -160.43600463867185 L 253.0050048828125 -160.31799316406247 L 253.14500427246094 -160.21600341796872 L 253.29600524902344 -160.13299560546872 L 253.45700073242188 -160.0690002441406 L 253.62399291992188 -160.02699279785153 M 204.6230010986328 -102.02500152587888 L 204.79400634765625 -102.00299835205075 L 204.8000030517578 -102.00299835205075 L 204.9669952392578 -102.00299835205075 L 205.13800048828125 -102.02500152587888 L 205.30599975585938 -102.068000793457 L 205.46600341796875 -102.13099670410153 L 205.61700439453125 -102.2149963378906 L 205.7570037841797 -102.31600189208982 L 205.84669494628906 -102.40000152587888 L 205.88299560546875 -102.43399810791013 L 205.9929962158203 -102.56700134277341 L 206.08599853515625 -102.71299743652341 L 206.15899658203125 -102.86900329589841 L 206.21200561523438 -103.03399658203122 L 206.2449951171875 -103.20300292968747 L 206.25599670410156 -103.37599945068357 L 206.2529296875 -103.42400360107419 L 206.2449951171875 -103.54799652099607 L 206.21200561523438 -103.71700286865232 L 206.15899658203125 -103.88200378417966 L 206.08599853515625 -104.03800201416013 L 205.9929962158203 -104.18399810791013 L 205.88299560546875 -104.31700134277341 L 205.7570037841797 -104.43499755859372 L 205.73915100097656 -104.44799804687497 L 205.61700439453125 -104.53700256347653 L 205.46600341796875 -104.620002746582 L 205.30599975585938 -104.68299865722653 L 205.13800048828125 -104.72599792480466 L 204.9669952392578 -104.74800109863278 L 204.8000030517578 -104.74800109863278 L 204.79400634765625 -104.74800109863278 L 204.6230010986328 -104.72599792480466 L 204.45599365234375 -104.68299865722653 L 204.2949981689453 -104.620002746582 L 204.1439971923828 -104.53700256347653 L 204.0218505859375 -104.44799804687497 L 204.00399780273438 -104.43499755859372 L 203.8780059814453 -104.31700134277341 L 203.76800537109375 -104.18399810791013 L 203.67599487304688 -104.03800201416013 L 203.6020050048828 -103.88200378417966 L 203.5489959716797 -103.71700286865232 L 203.51600646972656 -103.54799652099607 L 203.5087890625 -103.42400360107419 L 203.50599670410156 -103.37599945068357 L 203.51600646972656 -103.20300292968747 L 203.5489959716797 -103.03399658203122 L 203.6020050048828 -102.86900329589841 L 203.67599487304688 -102.71299743652341 L 203.76800537109375 -102.56700134277341 L 203.8780059814453 -102.43399810791013 L 203.914306640625 -102.40000152587888 L 204.00399780273438 -102.31600189208982 L 204.1439971923828 -102.2149963378906 L 204.2949981689453 -102.13099670410153 L 204.45599365234375 -102.068000793457 L 204.6230010986328 -102.02500152587888 M 204.6230010986328 -160.02699279785153 L 204.79400634765625 -160.00500488281247 L 204.8000030517578 -160.00500488281247 L 204.9669952392578 -160.00500488281247 L 205.13800048828125 -160.02699279785153 L 205.30599975585938 -160.0690002441406 L 205.46600341796875 -160.13299560546872 L 205.61700439453125 -160.21600341796872 L 205.7570037841797 -160.31799316406247 L 205.88299560546875 -160.43600463867185 L 205.9929962158203 -160.5690002441406 L 206.08599853515625 -160.7149963378906 L 206.1107940673828 -160.76800537109372 L 206.15899658203125 -160.8710021972656 L 206.21200561523438 -161.03500366210935 L 206.2449951171875 -161.20500183105466 L 206.25599670410156 -161.37699890136716 L 206.2449951171875 -161.55000305175778 L 206.21200561523438 -161.71899414062497 L 206.18841552734375 -161.79200744628903 L 206.15899658203125 -161.88299560546872 L 206.08599853515625 -162.03999328613278 L 205.9929962158203 -162.18499755859372 L 205.88299560546875 -162.31799316406247 L 205.7570037841797 -162.4369964599609 L 205.61700439453125 -162.5379943847656 L 205.46600341796875 -162.6210021972656 L 205.30599975585938 -162.68499755859372 L 205.13800048828125 -162.72799682617185 L 204.9669952392578 -162.74999999999997 L 204.8000030517578 -162.74999999999997 L 204.79400634765625 -162.74999999999997 L 204.6230010986328 -162.72799682617185 L 204.45599365234375 -162.68499755859372 L 204.2949981689453 -162.6210021972656 L 204.1439971923828 -162.5379943847656 L 204.00399780273438 -162.4369964599609 L 203.8780059814453 -162.31799316406247 L 203.76800537109375 -162.18499755859372 L 203.67599487304688 -162.03999328613278 L 203.6020050048828 -161.88299560546872 L 203.5725860595703 -161.79200744628903 L 203.5489959716797 -161.71899414062497 L 203.51600646972656 -161.55000305175778 L 203.50599670410156 -161.37699890136716 L 203.51600646972656 -161.20500183105466 L 203.5489959716797 -161.03500366210935 L 203.6020050048828 -160.8710021972656 L 203.65086364746094 -160.76800537109372 L 203.67599487304688 -160.7149963378906 L 203.76800537109375 -160.5690002441406 L 203.8780059814453 -160.43600463867185 L 204.00399780273438 -160.31799316406247 L 204.1439971923828 -160.21600341796872 L 204.2949981689453 -160.13299560546872 L 204.45599365234375 -160.0690002441406 L 204.6230010986328 -160.02699279785153 M 101.8270034790039 -114.00900268554685 L 102 -113.99800109863278 L 102.1719970703125 -114.00900268554685 L 102.34200286865234 -114.04100036621091 L 102.4000015258789 -114.05974578857419 L 102.50599670410156 -114.0940017700195 L 102.66200256347656 -114.1679992675781 L 102.80799865722656 -114.26000213623044 L 102.94100189208984 -114.3710021972656 L 103.05899810791016 -114.4960021972656 L 103.16100311279297 -114.63600158691403 L 103.18958282470703 -114.68800354003903 L 103.24400329589844 -114.78700256347653 L 103.30799865722656 -114.94799804687497 L 103.3499984741211 -115.1149978637695 L 103.37200164794922 -115.28700256347653 L 103.37200164794922 -115.45899963378903 L 103.3499984741211 -115.63099670410153 L 103.30799865722656 -115.79799652099607 L 103.24400329589844 -115.95800018310544 L 103.16100311279297 -116.11000061035153 L 103.05899810791016 -116.24900054931638 L 102.94100189208984 -116.37499999999997 L 102.80799865722656 -116.48500061035153 L 102.66200256347656 -116.57800292968747 L 102.50599670410156 -116.65100097656247 L 102.4000015258789 -116.68590545654294 L 102.34200286865234 -116.70500183105466 L 102.17731475830078 -116.73600006103513 L 102.1719970703125 -116.73699951171872 L 102 -116.74800109863278 L 101.8270034790039 -116.73699951171872 L 101.82171630859375 -116.73600006103513 L 101.65799713134766 -116.70500183105466 L 101.49400329589844 -116.65100097656247 L 101.33699798583984 -116.57800292968747 L 101.19200134277344 -116.48500061035153 L 101.05899810791016 -116.37499999999997 L 100.94000244140625 -116.24900054931638 L 100.83899688720703 -116.11000061035153 L 100.75599670410156 -115.95800018310544 L 100.69200134277344 -115.79799652099607 L 100.66985321044922 -115.71199798583982 L 100.64900207519531 -115.63099670410153 L 100.62699890136719 -115.45899963378903 L 100.62699890136719 -115.28700256347653 L 100.64900207519531 -115.1149978637695 L 100.69200134277344 -114.94799804687497 L 100.75599670410156 -114.78700256347653 L 100.81041717529297 -114.68800354003903 L 100.83899688720703 -114.63600158691403 L 100.94000244140625 -114.4960021972656 L 101.05899810791016 -114.3710021972656 L 101.19200134277344 -114.26000213623044 L 101.33699798583984 -114.1679992675781 L 101.49400329589844 -114.0940017700195 L 101.65799713134766 -114.04100036621091 L 101.8270034790039 -114.00900268554685 M 101.8270034790039 -160.0099945068359 L 102 -159.99899291992185 L 102.1719970703125 -160.0099945068359 L 102.34200286865234 -160.04200744628903 L 102.4000015258789 -160.06109619140622 L 102.50599670410156 -160.09599304199216 L 102.66200256347656 -160.16900634765622 L 102.80799865722656 -160.2619934082031 L 102.94100189208984 -160.37199401855466 L 103.05899810791016 -160.49800109863278 L 103.16100311279297 -160.6369934082031 L 103.24400329589844 -160.78900146484372 L 103.30799865722656 -160.9490051269531 L 103.3499984741211 -161.11700439453122 L 103.37200164794922 -161.2879943847656 L 103.37200164794922 -161.46099853515622 L 103.3499984741211 -161.63200378417966 L 103.30976104736328 -161.79200744628903 L 103.30799865722656 -161.79899597167966 L 103.24400329589844 -161.96000671386716 L 103.16100311279297 -162.1109924316406 L 103.05899810791016 -162.2510070800781 L 102.94100189208984 -162.37699890136716 L 102.80799865722656 -162.48699951171872 L 102.66200256347656 -162.57899475097653 L 102.50599670410156 -162.65299987792966 L 102.4000015258789 -162.68725585937497 L 102.34200286865234 -162.70599365234372 L 102.1719970703125 -162.73800659179685 L 102 -162.74899291992185 L 101.8270034790039 -162.73800659179685 L 101.65799713134766 -162.70599365234372 L 101.49400329589844 -162.65299987792966 L 101.33699798583984 -162.57899475097653 L 101.19200134277344 -162.48699951171872 L 101.05899810791016 -162.37699890136716 L 100.94000244140625 -162.2510070800781 L 100.83899688720703 -162.1109924316406 L 100.75599670410156 -161.96000671386716 L 100.69200134277344 -161.79899597167966 L 100.69020080566406 -161.79200744628903 L 100.64900207519531 -161.63200378417966 L 100.62699890136719 -161.46099853515622 L 100.62699890136719 -161.2879943847656 L 100.64900207519531 -161.11700439453122 L 100.69200134277344 -160.9490051269531 L 100.75599670410156 -160.78900146484372 L 100.76746368408203 -160.76800537109372 L 100.83899688720703 -160.6369934082031 L 100.94000244140625 -160.49800109863278 L 101.05899810791016 -160.37199401855466 L 101.19200134277344 -160.2619934082031 L 101.33699798583984 -160.16900634765622 L 101.49400329589844 -160.09599304199216 L 101.65799713134766 -160.04200744628903 L 101.8270034790039 -160.0099945068359 M 167.93600463867188 -114.00215911865232 L 168.00100708007812 -113.99800109863278 L 168.17300415039062 -114.00900268554685 L 168.34300231933594 -114.04100036621091 L 168.5070037841797 -114.0940017700195 L 168.66299438476562 -114.1679992675781 L 168.8090057373047 -114.26000213623044 L 168.94200134277344 -114.3710021972656 L 169.05999755859375 -114.4960021972656 L 169.16200256347656 -114.63600158691403 L 169.19058227539062 -114.68800354003903 L 169.2449951171875 -114.78700256347653 L 169.3090057373047 -114.94799804687497 L 169.3520050048828 -115.1149978637695 L 169.3730010986328 -115.28700256347653 L 169.3730010986328 -115.45899963378903 L 169.3520050048828 -115.63099670410153 L 169.33114624023438 -115.71199798583982 L 169.3090057373047 -115.79799652099607 L 169.2449951171875 -115.95800018310544 L 169.16200256347656 -116.11000061035153 L 169.05999755859375 -116.24900054931638 L 168.94200134277344 -116.37499999999997 L 168.8090057373047 -116.48500061035153 L 168.66299438476562 -116.57800292968747 L 168.5070037841797 -116.65100097656247 L 168.34300231933594 -116.70500183105466 L 168.17831420898438 -116.73600006103513 L 168.17300415039062 -116.73699951171872 L 168.00100708007812 -116.74800109863278 L 167.93600463867188 -116.74384307861325 L 167.82899475097656 -116.73699951171872 L 167.8236846923828 -116.73600006103513 L 167.65899658203125 -116.70500183105466 L 167.4949951171875 -116.65100097656247 L 167.33900451660156 -116.57800292968747 L 167.1929931640625 -116.48500061035153 L 167.05999755859375 -116.37499999999997 L 166.9409942626953 -116.24900054931638 L 166.83999633789062 -116.11000061035153 L 166.7570037841797 -115.95800018310544 L 166.6929931640625 -115.79799652099607 L 166.6708526611328 -115.71199798583982 L 166.64999389648438 -115.63099670410153 L 166.62899780273438 -115.45899963378903 L 166.62899780273438 -115.28700256347653 L 166.64999389648438 -115.1149978637695 L 166.6929931640625 -114.94799804687497 L 166.7570037841797 -114.78700256347653 L 166.81141662597656 -114.68800354003903 L 166.83999633789062 -114.63600158691403 L 166.9409942626953 -114.4960021972656 L 167.05999755859375 -114.3710021972656 L 167.1929931640625 -114.26000213623044 L 167.33900451660156 -114.1679992675781 L 167.4949951171875 -114.0940017700195 L 167.65899658203125 -114.04100036621091 L 167.82899475097656 -114.00900268554685 L 167.93600463867188 -114.00215911865232 M 167.93600463867188 -160.0031585693359 L 168.00100708007812 -159.99899291992185 L 168.17300415039062 -160.0099945068359 L 168.34300231933594 -160.04200744628903 L 168.5070037841797 -160.09599304199216 L 168.66299438476562 -160.16900634765622 L 168.8090057373047 -160.2619934082031 L 168.94200134277344 -160.37199401855466 L 169.05999755859375 -160.49800109863278 L 169.16200256347656 -160.6369934082031 L 169.23353576660156 -160.76800537109372 L 169.2449951171875 -160.78900146484372 L 169.3090057373047 -160.9490051269531 L 169.3520050048828 -161.11700439453122 L 169.3730010986328 -161.2879943847656 L 169.3730010986328 -161.46099853515622 L 169.3520050048828 -161.63200378417966 L 169.31080627441406 -161.79200744628903 L 169.3090057373047 -161.79899597167966 L 169.2449951171875 -161.96000671386716 L 169.16200256347656 -162.1109924316406 L 169.05999755859375 -162.2510070800781 L 168.94200134277344 -162.37699890136716 L 168.8090057373047 -162.48699951171872 L 168.66299438476562 -162.57899475097653 L 168.5070037841797 -162.65299987792966 L 168.34300231933594 -162.70599365234372 L 168.17300415039062 -162.73800659179685 L 168.00100708007812 -162.74899291992185 L 167.93600463867188 -162.74484252929685 L 167.82899475097656 -162.73800659179685 L 167.65899658203125 -162.70599365234372 L 167.4949951171875 -162.65299987792966 L 167.33900451660156 -162.57899475097653 L 167.1929931640625 -162.48699951171872 L 167.05999755859375 -162.37699890136716 L 166.9409942626953 -162.2510070800781 L 166.83999633789062 -162.1109924316406 L 166.7570037841797 -161.96000671386716 L 166.6929931640625 -161.79899597167966 L 166.69119262695312 -161.79200744628903 L 166.64999389648438 -161.63200378417966 L 166.62899780273438 -161.46099853515622 L 166.62899780273438 -161.2879943847656 L 166.64999389648438 -161.11700439453122 L 166.6929931640625 -160.9490051269531 L 166.7570037841797 -160.78900146484372 L 166.83999633789062 -160.6369934082031 L 166.9409942626953 -160.49800109863278 L 167.05999755859375 -160.37199401855466 L 167.1929931640625 -160.2619934082031 L 167.33900451660156 -160.16900634765622 L 167.4949951171875 -160.09599304199216 L 167.65899658203125 -160.04200744628903 L 167.82899475097656 -160.0099945068359 L 167.93600463867188 -160.0031585693359 M 87.94400024414062 1.8969999551773067 L 88.06400299072266 1.935666680335998 L 88.1240005493164 1.9550000429153438 L 88.30899810791016 1.9910000562667842 L 88.49700164794922 2.0030000209808345 L 88.68499755859375 1.9910000562667842 L 88.87000274658203 1.9550000429153438 L 89.04900360107422 1.8969999551773067 L 89.21900177001953 1.817000031471252 L 89.37799835205078 1.7159999608993526 L 89.52400207519531 1.595999956130981 L 89.65299987792969 1.4589999914169312 L 89.76300048828125 1.305999994277954 L 89.85399627685547 1.1410000324249268 L 89.90013122558594 1.0240000486373901 L 89.9229965209961 0.9660000205039977 L 89.97000122070312 0.7839999794960021 L 89.99400329589844 0.597000002861023 L 89.99400329589844 0.40799999237060547 L 89.97000122070312 0.22100000083446508 L 89.9229965209961 0.03900000080466281 L 89.90762329101562 1.1102230246251565e-16 L 89.85399627685547 -0.1360000073909758 L 89.76300048828125 -0.3009999990463255 L 89.65299987792969 -0.4539999961853025 L 89.52400207519531 -0.5910000205039976 L 89.37799835205078 -0.7110000252723692 L 89.21900177001953 -0.8119999766349789 L 89.04900360107422 -0.8920000195503232 L 88.87000274658203 -0.9499999880790707 L 88.68499755859375 -0.9860000014305111 L 88.49700164794922 -0.9980000257492062 L 88.30899810791016 -0.9860000014305111 L 88.1240005493164 -0.9499999880790707 L 88.06400299072266 -0.9306666851043698 L 87.94400024414062 -0.8920000195503232 L 87.77400207519531 -0.8119999766349789 L 87.61499786376953 -0.7110000252723692 L 87.47000122070312 -0.5910000205039976 L 87.34100341796875 -0.4539999961853025 L 87.2300033569336 -0.3009999990463255 L 87.13899993896484 -0.1360000073909758 L 87.08538055419922 1.1102230246251565e-16 L 87.06999969482422 0.03900000080466281 L 87.02300262451172 0.22100000083446508 L 86.9990005493164 0.40799999237060547 L 86.9990005493164 0.597000002861023 L 87.02300262451172 0.7839999794960021 L 87.06999969482422 0.9660000205039977 L 87.13899993896484 1.1410000324249268 L 87.2300033569336 1.305999994277954 L 87.34100341796875 1.4589999914169312 L 87.47000122070312 1.595999956130981 L 87.61499786376953 1.7159999608993526 L 87.77400207519531 1.817000031471252 L 87.94400024414062 1.8969999551773067 M 180.14700317382812 1.1410000324249268 L 180.2239990234375 1.2806153297424316 L 180.23800659179688 1.305999994277954 L 180.34800720214844 1.4589999914169312 L 180.4770050048828 1.595999956130981 L 180.6219940185547 1.7159999608993526 L 180.781005859375 1.817000031471252 L 180.95199584960938 1.8969999551773067 L 181.13099670410156 1.9550000429153438 L 181.3159942626953 1.9910000562667842 L 181.50399780273438 2.0030000209808345 L 181.69200134277344 1.9910000562667842 L 181.8769989013672 1.9550000429153438 L 182.05599975585938 1.8969999551773067 L 182.2270050048828 1.817000031471252 L 182.27200317382812 1.7884150743484493 L 182.38600158691406 1.7159999608993526 L 182.531005859375 1.595999956130981 L 182.66000366210938 1.4589999914169312 L 182.77099609375 1.305999994277954 L 182.86099243164062 1.1410000324249268 L 182.93099975585938 0.9660000205039977 L 182.97799682617188 0.7839999794960021 L 183.00100708007812 0.597000002861023 L 183.00100708007812 0.40799999237060547 L 182.97799682617188 0.22100000083446508 L 182.93099975585938 0.03900000080466281 L 182.9154052734375 1.1102230246251565e-16 L 182.86099243164062 -0.1360000073909758 L 182.77099609375 -0.3009999990463255 L 182.66000366210938 -0.4539999961853025 L 182.531005859375 -0.5910000205039976 L 182.38600158691406 -0.7110000252723692 L 182.27200317382812 -0.783415079116821 L 182.2270050048828 -0.8119999766349789 L 182.05599975585938 -0.8920000195503232 L 181.8769989013672 -0.9499999880790707 L 181.69200134277344 -0.9860000014305111 L 181.50399780273438 -0.9980000257492062 L 181.3159942626953 -0.9860000014305111 L 181.13099670410156 -0.9499999880790707 L 180.95199584960938 -0.8920000195503232 L 180.781005859375 -0.8119999766349789 L 180.6219940185547 -0.7110000252723692 L 180.4770050048828 -0.5910000205039976 L 180.34800720214844 -0.4539999961853025 L 180.23800659179688 -0.3009999990463255 L 180.2239990234375 -0.27561539411544783 L 180.14700317382812 -0.1360000073909758 L 180.0926055908203 1.1102230246251565e-16 L 180.07699584960938 0.03900000080466281 L 180.031005859375 0.22100000083446508 L 180.0070037841797 0.40799999237060547 L 180.0070037841797 0.597000002861023 L 180.031005859375 0.7839999794960021 L 180.07699584960938 0.9660000205039977 L 180.14700317382812 1.1410000324249268 M 245.6269989013672 -23.60799980163574 L 245.75999450683594 -23.58281326293945 L 246.05999755859375 -23.525999069213864 L 246.49899291992188 -23.497999191284176 L 246.93899536132812 -23.525999069213864 L 247.3719940185547 -23.60799980163574 L 247.7899932861328 -23.74399948120117 L 248.18899536132812 -23.93099975585937 L 248.56100463867188 -24.166999816894524 L 248.89999389648438 -24.447000503540032 L 249.02174377441406 -24.57600021362304 L 249.20199584960938 -24.76700019836425 L 249.4600067138672 -25.122999191284173 L 249.67300415039062 -25.50799942016601 L 249.8350067138672 -25.916999816894524 L 249.94400024414062 -26.34199905395507 L 250 -26.778999328613274 L 250 -27.218000411987298 L 249.94400024414062 -27.653999328613274 L 249.8350067138672 -28.079999923706048 L 249.67300415039062 -28.489000320434563 L 249.57176208496094 -28.67200088500976 L 249.4600067138672 -28.8740005493164 L 249.20199584960938 -29.229000091552727 L 248.89999389648438 -29.54999923706054 L 248.56100463867188 -29.829999923706048 L 248.18899536132812 -30.06500053405761 L 247.7899932861328 -30.253000259399407 L 247.3719940185547 -30.388000488281243 L 246.93899536132812 -30.47100067138671 L 246.49899291992188 -30.497999191284173 L 246.05999755859375 -30.47100067138671 L 245.75999450683594 -30.413494110107415 L 245.6269989013672 -30.388000488281243 L 245.20799255371094 -30.253000259399407 L 244.80999755859375 -30.06500053405761 L 244.43800354003906 -29.829999923706048 L 244.0989990234375 -29.54999923706054 L 243.7969970703125 -29.229000091552727 L 243.53799438476562 -28.8740005493164 L 243.42677307128906 -28.67200088500976 L 243.3260040283203 -28.489000320434563 L 243.16400146484375 -28.079999923706048 L 243.05499267578125 -27.653999328613274 L 242.99899291992188 -27.218000411987298 L 242.99899291992188 -26.778999328613274 L 243.05499267578125 -26.34199905395507 L 243.16400146484375 -25.916999816894524 L 243.3260040283203 -25.50799942016601 L 243.53799438476562 -25.122999191284173 L 243.7969970703125 -24.76700019836425 L 243.9772491455078 -24.57600021362304 L 244.0989990234375 -24.447000503540032 L 244.43800354003906 -24.166999816894524 L 244.80999755859375 -23.93099975585937 L 245.20799255371094 -23.74399948120117 L 245.6269989013672 -23.60799980163574 M 49.152000427246094 -117.17324066162107 L 49.28499984741211 -117.15699768066403 L 49.457000732421875 -117.15699768066403 L 49.62900161743164 -117.17800140380857 L 49.79600143432617 -117.22100067138669 L 49.95600128173828 -117.28500366210935 L 50.108001708984375 -117.36799621582028 L 50.24700164794922 -117.4690017700195 L 50.37300109863281 -117.58799743652341 L 50.483001708984375 -117.72100067138669 L 50.507843017578125 -117.76000213623044 L 50.57600021362305 -117.86699676513669 L 50.64899826049805 -118.02300262451169 L 50.702999114990234 -118.18699645996091 L 50.73500061035156 -118.35700225830075 L 50.74599838256836 -118.52899932861325 L 50.73500061035156 -118.70099639892575 L 50.71937561035156 -118.78399658203122 L 50.702999114990234 -118.8710021972656 L 50.64899826049805 -119.03500366210935 L 50.57600021362305 -119.19100189208982 L 50.483001708984375 -119.33699798583982 L 50.37300109863281 -119.4700012207031 L 50.24700164794922 -119.58799743652341 L 50.108001708984375 -119.69000244140622 L 49.95600128173828 -119.77300262451169 L 49.79600143432617 -119.83699798583982 L 49.62900161743164 -119.87999725341794 L 49.457000732421875 -119.90100097656247 L 49.28499984741211 -119.90100097656247 L 49.152000427246094 -119.88475799560544 L 49.112998962402344 -119.87999725341794 L 48.94599914550781 -119.83699798583982 L 48.78499984741211 -119.77300262451169 L 48.63399887084961 -119.69000244140622 L 48.49399948120117 -119.58799743652341 L 48.36899948120117 -119.4700012207031 L 48.257999420166016 -119.33699798583982 L 48.16600036621094 -119.19100189208982 L 48.09199905395508 -119.03500366210935 L 48.03900146484375 -118.8710021972656 L 48.02262496948242 -118.78399658203122 L 48.00699996948242 -118.70099639892575 L 47.99599838256836 -118.52899932861325 L 48.00699996948242 -118.35700225830075 L 48.03900146484375 -118.18699645996091 L 48.09199905395508 -118.02300262451169 L 48.16600036621094 -117.86699676513669 L 48.257999420166016 -117.72100067138669 L 48.36899948120117 -117.58799743652341 L 48.49399948120117 -117.4690017700195 L 48.63399887084961 -117.36799621582028 L 48.78499984741211 -117.28500366210935 L 48.94599914550781 -117.22100067138669 L 49.112998962402344 -117.17800140380857 L 49.152000427246094 -117.17324066162107 M 63.45899963378906 -168.5220031738281 L 63.487998962402344 -168.48693847656247 L 63.569000244140625 -168.38900756835935 L 63.69499969482422 -168.27099609374997 L 63.83399963378906 -168.16900634765622 L 63.986000061035156 -168.08599853515622 L 64.14600372314453 -168.02299499511716 L 64.31300354003906 -167.97999572753903 L 64.48500061035156 -167.9579925537109 L 64.65699768066406 -167.9579925537109 L 64.8290023803711 -167.97999572753903 L 64.99600219726562 -168.02299499511716 L 65.15699768066406 -168.08599853515622 L 65.30799865722656 -168.16900634765622 L 65.447998046875 -168.27099609374997 L 65.53600311279297 -168.35406494140622 L 65.572998046875 -168.38900756835935 L 65.68399810791016 -168.5220031738281 L 65.7760009765625 -168.6679992675781 L 65.8499984741211 -168.8240051269531 L 65.90299987792969 -168.98800659179685 L 65.93499755859375 -169.15800476074216 L 65.94599914550781 -169.33000183105466 L 65.93499755859375 -169.50300598144528 L 65.90299987792969 -169.67199707031247 L 65.8499984741211 -169.83700561523435 L 65.7760009765625 -169.99299621582028 L 65.68399810791016 -170.13900756835935 L 65.572998046875 -170.2720031738281 L 65.53600311279297 -170.30693054199216 L 65.447998046875 -170.3899993896484 L 65.30799865722656 -170.4909973144531 L 65.15699768066406 -170.57499694824216 L 64.99600219726562 -170.63800048828122 L 64.8290023803711 -170.68099975585935 L 64.65699768066406 -170.70300292968747 L 64.48500061035156 -170.70300292968747 L 64.31300354003906 -170.68099975585935 L 64.14600372314453 -170.63800048828122 L 63.986000061035156 -170.57499694824216 L 63.83399963378906 -170.4909973144531 L 63.69499969482422 -170.3899993896484 L 63.569000244140625 -170.2720031738281 L 63.487998962402344 -170.1740570068359 L 63.45899963378906 -170.13900756835935 L 63.36600112915039 -169.99299621582028 L 63.36178970336914 -169.9839935302734 L 63.292999267578125 -169.83700561523435 L 63.23899841308594 -169.67199707031247 L 63.207000732421875 -169.50300598144528 L 63.19599914550781 -169.33000183105466 L 63.207000732421875 -169.15800476074216 L 63.23899841308594 -168.98800659179685 L 63.292999267578125 -168.8240051269531 L 63.36600112915039 -168.6679992675781 L 63.45899963378906 -168.5220031738281 M 19.368000030517578 -49.109001159667955 L 19.50016212463379 -49.15200042724608 L 19.785999298095703 -49.24499893188475 L 20.184999465942383 -49.431999206542955 L 20.55699920654297 -49.66699981689452 L 20.895999908447266 -49.94800186157225 L 21.197999954223633 -50.26800155639647 L 21.45599937438965 -50.62400054931639 L 21.66900062561035 -51.008998870849595 L 21.83099937438965 -51.41699981689452 L 21.940000534057617 -51.84299850463866 L 21.9950008392334 -52.27899932861327 L 21.9950008392334 -52.71900177001952 L 21.940000534057617 -53.15499877929686 L 21.91620445251465 -53.2480010986328 L 21.83099937438965 -53.58100128173827 L 21.66900062561035 -53.98899841308592 L 21.45599937438965 -54.374999999999986 L 21.197999954223633 -54.729999542236314 L 20.895999908447266 -55.050998687744126 L 20.55699920654297 -55.33100128173827 L 20.479999542236328 -55.37964248657225 L 20.184999465942383 -55.56600189208983 L 19.785999298095703 -55.75299835205077 L 19.368000030517578 -55.88899993896483 L 18.934999465942383 -55.9720001220703 L 18.4950008392334 -55.99900054931639 L 18.055999755859375 -55.9720001220703 L 17.62299919128418 -55.88899993896483 L 17.20400047302246 -55.75299835205077 L 16.805999755859375 -55.56600189208983 L 16.43400001525879 -55.33100128173827 L 16.384000778198242 -55.28970336914061 L 16.094999313354492 -55.050998687744126 L 15.793000221252441 -54.729999542236314 L 15.534000396728516 -54.374999999999986 L 15.321999549865723 -53.98899841308592 L 15.15999984741211 -53.58100128173827 L 15.050999641418457 -53.15499877929686 L 14.994999885559082 -52.71900177001952 L 14.994999885559082 -52.27899932861327 L 15.050999641418457 -51.84299850463866 L 15.15999984741211 -51.41699981689452 L 15.321999549865723 -51.008998870849595 L 15.534000396728516 -50.62400054931639 L 15.793000221252441 -50.26800155639647 L 16.094999313354492 -49.94800186157225 L 16.384000778198242 -49.70844650268553 L 16.43400001525879 -49.66699981689452 L 16.805999755859375 -49.431999206542955 L 17.20400047302246 -49.24499893188475 L 17.490522384643555 -49.15200042724608 L 17.62299919128418 -49.109001159667955 L 18.055999755859375 -49.02700042724608 L 18.4950008392334 -48.99900054931639 L 18.934999465942383 -49.02700042724608 L 19.368000030517578 -49.109001159667955 M 20.468000411987305 -117.58799743652341 L 20.479999542236328 -117.5766677856445 L 20.5939998626709 -117.4690017700195 L 20.733999252319336 -117.36799621582028 L 20.885000228881836 -117.28500366210935 L 21.045000076293945 -117.22100067138669 L 21.21299934387207 -117.17800140380857 L 21.384000778198242 -117.15699768066403 L 21.55699920654297 -117.15699768066403 L 21.72800064086914 -117.17800140380857 L 21.895000457763672 -117.22100067138669 L 21.9950008392334 -117.2607498168945 L 22.055999755859375 -117.28500366210935 L 22.207000732421875 -117.36799621582028 L 22.347000122070312 -117.4690017700195 L 22.472999572753906 -117.58799743652341 L 22.527999877929688 -117.65450286865232 L 22.58300018310547 -117.72100067138669 L 22.674999237060547 -117.86699676513669 L 22.749000549316406 -118.02300262451169 L 22.802000045776367 -118.18699645996091 L 22.834999084472656 -118.35700225830075 L 22.844999313354492 -118.52899932861325 L 22.834999084472656 -118.70099639892575 L 22.81888771057129 -118.78399658203122 L 22.802000045776367 -118.8710021972656 L 22.749000549316406 -119.03500366210935 L 22.674999237060547 -119.19100189208982 L 22.58300018310547 -119.33699798583982 L 22.527999877929688 -119.40350341796872 L 22.472999572753906 -119.4700012207031 L 22.347000122070312 -119.58799743652341 L 22.207000732421875 -119.69000244140622 L 22.055999755859375 -119.77300262451169 L 21.9950008392334 -119.797248840332 L 21.895000457763672 -119.83699798583982 L 21.72800064086914 -119.87999725341794 L 21.55699920654297 -119.90100097656247 L 21.384000778198242 -119.90100097656247 L 21.21299934387207 -119.87999725341794 L 21.045000076293945 -119.83699798583982 L 20.885000228881836 -119.77300262451169 L 20.733999252319336 -119.69000244140622 L 20.5939998626709 -119.58799743652341 L 20.479999542236328 -119.48123931884763 L 20.468000411987305 -119.4700012207031 L 20.357999801635742 -119.33699798583982 L 20.264999389648438 -119.19100189208982 L 20.191999435424805 -119.03500366210935 L 20.138999938964844 -118.8710021972656 L 20.106000900268555 -118.70099639892575 L 20.094999313354492 -118.52899932861325 L 20.106000900268555 -118.35700225830075 L 20.138999938964844 -118.18699645996091 L 20.191999435424805 -118.02300262451169 L 20.264999389648438 -117.86699676513669 L 20.357999801635742 -117.72100067138669 L 20.468000411987305 -117.58799743652341 M 16.113000869750977 -169.27999877929685 L 16.284000396728516 -169.25799560546872 L 16.384000778198242 -169.25799560546872 L 16.457000732421875 -169.25799560546872 L 16.628000259399414 -169.27999877929685 L 16.795000076293945 -169.32299804687497 L 16.95599937438965 -169.38600158691403 L 17.10700035095215 -169.46899414062497 L 17.246999740600586 -169.57099914550778 L 17.37299919128418 -169.6889953613281 L 17.482999801635742 -169.8220062255859 L 17.575000762939453 -169.9680023193359 L 17.582590103149414 -169.9839935302734 L 17.64900016784668 -170.12399291992185 L 17.70199966430664 -170.28900146484372 L 17.733999252319336 -170.4579925537109 L 17.7450008392334 -170.63000488281247 L 17.733999252319336 -170.80299377441403 L 17.70199966430664 -170.97200012207028 L 17.69043731689453 -171.00799560546872 L 17.64900016784668 -171.1369934082031 L 17.575000762939453 -171.2929992675781 L 17.482999801635742 -171.4389953613281 L 17.37299919128418 -171.5720062255859 L 17.246999740600586 -171.69000244140622 L 17.10700035095215 -171.7910003662109 L 16.95599937438965 -171.87499999999997 L 16.795000076293945 -171.93800354003903 L 16.628000259399414 -171.98100280761716 L 16.457000732421875 -172.00300598144528 L 16.384000778198242 -172.00300598144528 L 16.284000396728516 -172.00300598144528 L 16.113000869750977 -171.98100280761716 L 15.944999694824219 -171.93800354003903 L 15.78499984741211 -171.87499999999997 L 15.633999824523926 -171.7910003662109 L 15.494000434875488 -171.69000244140622 L 15.368000030517578 -171.5720062255859 L 15.258000373840332 -171.4389953613281 L 15.164999961853027 -171.2929992675781 L 15.092000007629395 -171.1369934082031 L 15.049781799316406 -171.00799560546872 L 15.038000106811523 -170.97200012207028 L 15.005999565124512 -170.80299377441403 L 14.994999885559082 -170.63000488281247 L 15.005999565124512 -170.4579925537109 L 15.038000106811523 -170.28900146484372 L 15.092000007629395 -170.12399291992185 L 15.157512664794922 -169.9839935302734 L 15.164999961853027 -169.9680023193359 L 15.258000373840332 -169.8220062255859 L 15.368000030517578 -169.6889953613281 L 15.494000434875488 -169.57099914550778 L 15.633999824523926 -169.46899414062497 L 15.78499984741211 -169.38600158691403 L 15.944999694824219 -169.32299804687497 L 16.113000869750977 -169.27999877929685 M 255.2570037841797 -25.747999191284173 L 255.2570037841797 -28.247999191284173 L 253.75599670410156 -28.247999191284173 L 253.75599670410156 -25.747999191284173 L 255.2570037841797 -25.747999191284173 M 27.25200080871582 -51.24900054931639 L 27.25200080871582 -53.74900054931639 L 25.75200080871582 -53.74900054931639 L 25.75200080871582 -51.24900054931639 L 27.25200080871582 -51.24900054931639 z" fill="none" stroke="rgb(0,0,255)" stroke-width="0.1mm" />
</svg>