  0
SECTION
  2
HEADER
  9
$ACADVER
  1
AC1014
  9
$HANDSEED
  5
FFFF
  9
$INSUNITS
 70
     4
  9
$MEASUREMENT
 70
     1
  0
ENDSEC
  0
SECTION
  2
TABLES
  0
TABLE
  2
VPORT
  5
8
330
0
100
AcDbSymbolTable
 70
     4
  0
VPORT
  5
2E
330
8
100
AcDbSymbolTableRecord
100
AcDbViewportTableRecord
  2
*ACTIVE
 70
     0
 10
0.0
 20
0.0
 11
1.0
 21
1.0
 12
210.0
 22
148.5
 13
0.0
 23
0.0
 14
10.0
 24
10.0
 15
10.0
 25
10.0
 16
0.0
 26
0.0
 36
1.0
 17
0.0
 27
0.0
 37
0.0
 40
341.0
 41
1.24
 42
50.0
 43
0.0
 44
0.0
 50
0.0
 51
0.0
 71
     0
 72
   100
 73
     1
 74
     3
 75
     0
 76
     0
 77
     0
 78
     0
  0
ENDTAB
  0
TABLE
  2
LTYPE
  5
5
330
0
100
AcDbSymbolTable
 70
     1
  0
LTYPE
  5
14
330
5
100
AcDbSymbolTableRecord
100
AcDbLinetypeTableRecord
  2
BYBLOCK
 70
     0
  3

 72
    65
 73
     0
 40
0.0
  0
LTYPE
  5
15
330
5
100
AcDbSymbolTableRecord
100
AcDbLinetypeTableRecord
  2
BYLAYER
 70
     0
  3

 72
    65
 73
     0
 40
0.0
  0
LTYPE
  5
16
330
5
100
AcDbSymbolTableRecord
100
AcDbLinetypeTableRecord
  2
CONTINUOUS
 70
     0
  3
Solid line
 72
    65
 73
     0
 40
0.0
  0
ENDTAB
  0
TABLE
  2
LAYER
  5
2
100
AcDbSymbolTable
 70
1
  0
LAYER
  5
50
100
AcDbSymbolTableRecord
100
AcDbLayerTableRecord
  2
0
 70
0
  6
CONTINUOUS
  0
ENDTAB
  0
TABLE
  2
STYLE
  5
3
330
0
100
AcDbSymbolTable
 70
     1
  0
STYLE
  5
11
330
3
100
AcDbSymbolTableRecord
100
AcDbTextStyleTableRecord
  2
STANDARD
 70
     0
 40
0.0
 41
1.0
 50
0.0
 71
     0
 42
2.5
  3
txt
  4

  0
ENDTAB
  0
TABLE
  2
VIEW
  5
6
330
0
100
AcDbSymbolTable
 70
     0
  0
ENDTAB
  0
TABLE
  2
UCS
  5
7
330
0
100
AcDbSymbolTable
 70
     0
  0
ENDTAB
  0
TABLE
  2
APPID
  5
9
330
0
100
AcDbSymbolTable
 70
     2
  0
APPID
  5
12
330
9
100
AcDbSymbolTableRecord
100
AcDbRegAppTableRecord
  2
ACAD
 70
     0
  0
ENDTAB
  0
TABLE
  2
DIMSTYLE
  5
A
330
0
100
AcDbSymbolTable
 70
     1
  0
DIMSTYLE
105
27
330
A
100
AcDbSymbolTableRecord
100
AcDbDimStyleTableRecord
  2
ISO-25
 70
     0
  3

  4

  5

  6

  7

 40
1.0
 41
2.5
 42
0.625
 43
3.75
 44
1.25
 45
0.0
 46
0.0
 47
0.0
 48
0.0
140
2.5
141
2.5
142
0.0
143
0.03937007874016
144
1.0
145
0.0
146
1.0
147
0.625
 71
     0
 72
     0
 73
     0
 74
     0
 75
     0
 76
     0
 77
     1
 78
     8
170
     0
171
     3
172
     1
173
     0
174
     0
175
     0
176
     0
177
     0
178
     0
270
     2
271
     2
272
     2
273
     2
274
     3
340
11
275
     0
280
     0
281
     0
282
     0
283
     0
284
     8
285
     0
286
     0
287
     3
288
     0
  0
ENDTAB
  0
TABLE
  2
BLOCK_RECORD
  5
1
330
0
100
AcDbSymbolTable
 70
     1
  0
BLOCK_RECORD
  5
1F
330
1
100
AcDbSymbolTableRecord
100
AcDbBlockTableRecord
  2
*MODEL_SPACE
  0
BLOCK_RECORD
  5
1B
330
1
100
AcDbSymbolTableRecord
100
AcDbBlockTableRecord
  2
*PAPER_SPACE
  0
ENDTAB
  0
ENDSEC
  0
SECTION
  2
BLOCKS
  0
BLOCK
  5
20
330
1F
100
AcDbEntity
  8
0
100
AcDbBlockBegin
  2
*MODEL_SPACE
 70
     0
 10
0.0
 20
0.0
 30
0.0
  3
*MODEL_SPACE
  1

  0
ENDBLK
  5
21
330
1F
100
AcDbEntity
  8
0
100
AcDbBlockEnd
  0
BLOCK
  5
1C
330
1B
100
AcDbEntity
 67
     1
  8
0
100
AcDbBlockBegin
  2
*PAPER_SPACE
  1

  0
ENDBLK
  5
1D
330
1B
100
AcDbEntity
 67
     1
  8
0
100
AcDbBlockEnd
  0
ENDSEC
  0
SECTION
  2
ENTITIES
  0
LWPOLYLINE
  5
100
100
AcDbEntity
  8
0
 62
7
100
AcDbPolyline
 90
38
 70
1
 10
370.000000
 20
272.000000
 30
0.0
 10
263.628998
 20
272.000000
 30
0.0
 10
255.257004
 20
272.000000
 30
0.0
 10
253.755997
 20
272.000000
 30
0.0
 10
242.994995
 20
272.000000
 30
0.0
 10
214.623993
 20
272.000000
 30
0.0
 10
162.501999
 20
272.000000
 30
0.0
 10
104.498001
 20
272.000000
 30
0.0
 10
86.997002
 20
272.000000
 30
0.0
 10
27.256001
 20
272.000000
 30
0.0
 10
25.756001
 20
272.000000
 30
0.0
 10
14.995000
 20
272.000000
 30
0.0
 10
8.721000
 20
272.000000
 30
0.0
 10
3.621000
 20
272.000000
 30
0.0
 10
-28.006001
 20
272.000000
 30
0.0
 10
-100.000000
 20
272.000000
 30
0.0
 10
-100.000000
 20
642.000000
 30
0.0
 10
-28.006001
 20
642.000000
 30
0.0
 10
-12.032000
 20
642.000000
 30
0.0
 10
3.621000
 20
642.000000
 30
0.0
 10
6.371000
 20
642.000000
 30
0.0
 10
8.721000
 20
642.000000
 30
0.0
 10
11.472000
 20
642.000000
 30
0.0
 10
36.624001
 20
642.000000
 30
0.0
 10
39.375000
 20
642.000000
 30
0.0
 10
51.826000
 20
642.000000
 30
0.0
 10
54.576000
 20
642.000000
 30
0.0
 10
104.498001
 20
642.000000
 30
0.0
 10
107.498001
 20
642.000000
 30
0.0
 10
162.501999
 20
642.000000
 30
0.0
 10
165.503006
 20
642.000000
 30
0.0
 10
214.623993
 20
642.000000
 30
0.0
 10
217.373993
 20
642.000000
 30
0.0
 10
263.628998
 20
642.000000
 30
0.0
 10
266.378998
 20
642.000000
 30
0.0
 10
370.000000
 20
642.000000
 30
0.0
 10
370.000000
 20
502.873001
 30
0.0
 10
370.000000
 20
474.000000
 30
0.0
  0
LWPOLYLINE
  5
101
100
AcDbEntity
  8
0
 62
7
100
AcDbPolyline
 90
23
 70
1
 10
163.539001
 20
502.945999
 30
0.0
 10
164.001999
 20
502.873001
 30
0.0
 10
164.466003
 20
502.945999
 30
0.0
 10
164.713272
 20
503.072006
 30
0.0
 10
164.884003
 20
503.158997
 30
0.0
 10
165.216003
 20
503.492004
 30
0.0
 10
165.429001
 20
503.910995
 30
0.0
 10
165.503006
 20
504.375000
 30
0.0
 10
165.429001
 20
504.839005
 30
0.0
 10
165.216003
 20
505.257996
 30
0.0
 10
164.884003
 20
505.591003
 30
0.0
 10
164.466003
 20
505.804001
 30
0.0
 10
164.001999
 20
505.878006
 30
0.0
 10
163.839996
 20
505.852112
 30
0.0
 10
163.539001
 20
505.804001
 30
0.0
 10
163.121002
 20
505.591003
 30
0.0
 10
162.789001
 20
505.257996
 30
0.0
 10
162.576004
 20
504.839005
 30
0.0
 10
162.501999
 20
504.375000
 30
0.0
 10
162.576004
 20
503.910995
 30
0.0
 10
162.789001
 20
503.492004
 30
0.0
 10
163.121002
 20
503.158997
 30
0.0
 10
163.291733
 20
503.072006
 30
0.0
  0
LWPOLYLINE
  5
102
100
AcDbEntity
  8
0
 62
7
100
AcDbPolyline
 90
55
 70
1
 10
264.127014
 20
532.317993
 30
0.0
 10
264.191986
 20
532.270645
 30
0.0
 10
264.266998
 20
532.216003
 30
0.0
 10
264.417999
 20
532.132996
 30
0.0
 10
264.579010
 20
532.070007
 30
0.0
 10
264.746002
 20
532.026993
 30
0.0
 10
264.917999
 20
532.005005
 30
0.0
 10
265.089996
 20
532.005005
 30
0.0
 10
265.261993
 20
532.026993
 30
0.0
 10
265.428986
 20
532.070007
 30
0.0
 10
265.588989
 20
532.132996
 30
0.0
 10
265.740997
 20
532.216003
 30
0.0
 10
265.880005
 20
532.317993
 30
0.0
 10
266.006012
 20
532.436005
 30
0.0
 10
266.115997
 20
532.569000
 30
0.0
 10
266.209015
 20
532.714996
 30
0.0
 10
266.239990
 20
532.781250
 30
0.0
 10
266.282013
 20
532.871002
 30
0.0
 10
266.335999
 20
533.035004
 30
0.0
 10
266.368011
 20
533.205002
 30
0.0
 10
266.378998
 20
533.376999
 30
0.0
 10
266.368011
 20
533.550003
 30
0.0
 10
266.335999
 20
533.718994
 30
0.0
 10
266.282013
 20
533.884003
 30
0.0
 10
266.239990
 20
533.973755
 30
0.0
 10
266.209015
 20
534.039993
 30
0.0
 10
266.115997
 20
534.186005
 30
0.0
 10
266.006012
 20
534.319000
 30
0.0
 10
265.880005
 20
534.436996
 30
0.0
 10
265.740997
 20
534.537994
 30
0.0
 10
265.588989
 20
534.621994
 30
0.0
 10
265.428986
 20
534.684998
 30
0.0
 10
265.261993
 20
534.727997
 30
0.0
 10
265.089996
 20
534.750000
 30
0.0
 10
264.917999
 20
534.750000
 30
0.0
 10
264.746002
 20
534.727997
 30
0.0
 10
264.579010
 20
534.684998
 30
0.0
 10
264.417999
 20
534.621994
 30
0.0
 10
264.266998
 20
534.537994
 30
0.0
 10
264.191986
 20
534.483887
 30
0.0
 10
264.127014
 20
534.436996
 30
0.0
 10
264.001007
 20
534.319000
 30
0.0
 10
263.890991
 20
534.186005
 30
0.0
 10
263.799011
 20
534.039993
 30
0.0
 10
263.725006
 20
533.884003
 30
0.0
 10
263.695435
 20
533.792007
 30
0.0
 10
263.671997
 20
533.718994
 30
0.0
 10
263.640015
 20
533.550003
 30
0.0
 10
263.628998
 20
533.376999
 30
0.0
 10
263.640015
 20
533.205002
 30
0.0
 10
263.671997
 20
533.035004
 30
0.0
 10
263.725006
 20
532.871002
 30
0.0
 10
263.799011
 20
532.714996
 30
0.0
 10
263.890991
 20
532.569000
 30
0.0
 10
264.001007
 20
532.436005
 30
0.0
  0
LWPOLYLINE
  5
103
100
AcDbEntity
  8
0
 62
7
100
AcDbPolyline
 90
55
 70
1
 10
214.996994
 20
532.436005
 30
0.0
 10
215.039993
 20
532.395737
 30
0.0
 10
215.123001
 20
532.317993
 30
0.0
 10
215.261993
 20
532.216003
 30
0.0
 10
215.414001
 20
532.132996
 30
0.0
 10
215.574005
 20
532.070007
 30
0.0
 10
215.740997
 20
532.026993
 30
0.0
 10
215.912994
 20
532.005005
 30
0.0
 10
216.085007
 20
532.005005
 30
0.0
 10
216.257004
 20
532.026993
 30
0.0
 10
216.423996
 20
532.070007
 30
0.0
 10
216.585007
 20
532.132996
 30
0.0
 10
216.735992
 20
532.216003
 30
0.0
 10
216.876007
 20
532.317993
 30
0.0
 10
217.001999
 20
532.436005
 30
0.0
 10
217.087997
 20
532.539978
 30
0.0
 10
217.112000
 20
532.569000
 30
0.0
 10
217.203995
 20
532.714996
 30
0.0
 10
217.278000
 20
532.871002
 30
0.0
 10
217.330994
 20
533.035004
 30
0.0
 10
217.363007
 20
533.205002
 30
0.0
 10
217.373993
 20
533.376999
 30
0.0
 10
217.363007
 20
533.550003
 30
0.0
 10
217.330994
 20
533.718994
 30
0.0
 10
217.278000
 20
533.884003
 30
0.0
 10
217.203995
 20
534.039993
 30
0.0
 10
217.112000
 20
534.186005
 30
0.0
 10
217.087997
 20
534.215012
 30
0.0
 10
217.001999
 20
534.319000
 30
0.0
 10
216.876007
 20
534.436996
 30
0.0
 10
216.735992
 20
534.537994
 30
0.0
 10
216.585007
 20
534.621994
 30
0.0
 10
216.423996
 20
534.684998
 30
0.0
 10
216.257004
 20
534.727997
 30
0.0
 10
216.085007
 20
534.750000
 30
0.0
 10
215.912994
 20
534.750000
 30
0.0
 10
215.740997
 20
534.727997
 30
0.0
 10
215.574005
 20
534.684998
 30
0.0
 10
215.414001
 20
534.621994
 30
0.0
 10
215.261993
 20
534.537994
 30
0.0
 10
215.123001
 20
534.436996
 30
0.0
 10
215.039993
 20
534.359268
 30
0.0
 10
214.996994
 20
534.319000
 30
0.0
 10
214.886993
 20
534.186005
 30
0.0
 10
214.794006
 20
534.039993
 30
0.0
 10
214.720993
 20
533.884003
 30
0.0
 10
214.690887
 20
533.792007
 30
0.0
 10
214.667007
 20
533.718994
 30
0.0
 10
214.634995
 20
533.550003
 30
0.0
 10
214.623993
 20
533.376999
 30
0.0
 10
214.634995
 20
533.205002
 30
0.0
 10
214.667007
 20
533.035004
 30
0.0
 10
214.720993
 20
532.871002
 30
0.0
 10
214.794006
 20
532.714996
 30
0.0
 10
214.886993
 20
532.569000
 30
0.0
  0
LWPOLYLINE
  5
104
100
AcDbEntity
  8
0
 62
7
100
AcDbPolyline
 90
58
 70
1
 10
265.880005
 20
474.313004
 30
0.0
 10
265.972900
 20
474.400002
 30
0.0
 10
266.006012
 20
474.431000
 30
0.0
 10
266.115997
 20
474.564003
 30
0.0
 10
266.209015
 20
474.709999
 30
0.0
 10
266.239990
 20
474.776245
 30
0.0
 10
266.282013
 20
474.865997
 30
0.0
 10
266.335999
 20
475.030998
 30
0.0
 10
266.368011
 20
475.199997
 30
0.0
 10
266.378998
 20
475.373001
 30
0.0
 10
266.368011
 20
475.544998
 30
0.0
 10
266.335999
 20
475.714996
 30
0.0
 10
266.282013
 20
475.878998
 30
0.0
 10
266.239990
 20
475.968750
 30
0.0
 10
266.209015
 20
476.035004
 30
0.0
 10
266.115997
 20
476.181000
 30
0.0
 10
266.006012
 20
476.314003
 30
0.0
 10
265.880005
 20
476.431999
 30
0.0
 10
265.858185
 20
476.447998
 30
0.0
 10
265.740997
 20
476.533997
 30
0.0
 10
265.588989
 20
476.616997
 30
0.0
 10
265.428986
 20
476.680000
 30
0.0
 10
265.261993
 20
476.723000
 30
0.0
 10
265.089996
 20
476.745003
 30
0.0
 10
264.917999
 20
476.745003
 30
0.0
 10
264.746002
 20
476.723000
 30
0.0
 10
264.579010
 20
476.680000
 30
0.0
 10
264.417999
 20
476.616997
 30
0.0
 10
264.266998
 20
476.533997
 30
0.0
 10
264.191986
 20
476.479355
 30
0.0
 10
264.148956
 20
476.447998
 30
0.0
 10
264.127014
 20
476.431999
 30
0.0
 10
264.001007
 20
476.314003
 30
0.0
 10
263.890991
 20
476.181000
 30
0.0
 10
263.799011
 20
476.035004
 30
0.0
 10
263.725006
 20
475.878998
 30
0.0
 10
263.671997
 20
475.714996
 30
0.0
 10
263.640015
 20
475.544998
 30
0.0
 10
263.632263
 20
475.424004
 30
0.0
 10
263.628998
 20
475.373001
 30
0.0
 10
263.640015
 20
475.199997
 30
0.0
 10
263.671997
 20
475.030998
 30
0.0
 10
263.725006
 20
474.865997
 30
0.0
 10
263.799011
 20
474.709999
 30
0.0
 10
263.890991
 20
474.564003
 30
0.0
 10
264.001007
 20
474.431000
 30
0.0
 10
264.034088
 20
474.400002
 30
0.0
 10
264.127014
 20
474.313004
 30
0.0
 10
264.266998
 20
474.211998
 30
0.0
 10
264.417999
 20
474.127998
 30
0.0
 10
264.579010
 20
474.065002
 30
0.0
 10
264.746002
 20
474.022003
 30
0.0
 10
264.917999
 20
474.000000
 30
0.0
 10
265.089996
 20
474.000000
 30
0.0
 10
265.261993
 20
474.022003
 30
0.0
 10
265.428986
 20
474.065002
 30
0.0
 10
265.588989
 20
474.127998
 30
0.0
 10
265.740997
 20
474.211998
 30
0.0
  0
LWPOLYLINE
  5
105
100
AcDbEntity
  8
0
 62
7
100
AcDbPolyline
 90
57
 70
1
 10
216.876007
 20
474.313004
 30
0.0
 10
216.968903
 20
474.400002
 30
0.0
 10
217.001999
 20
474.431000
 30
0.0
 10
217.087997
 20
474.534981
 30
0.0
 10
217.112000
 20
474.564003
 30
0.0
 10
217.203995
 20
474.709999
 30
0.0
 10
217.278000
 20
474.865997
 30
0.0
 10
217.330994
 20
475.030998
 30
0.0
 10
217.363007
 20
475.199997
 30
0.0
 10
217.373993
 20
475.373001
 30
0.0
 10
217.363007
 20
475.544998
 30
0.0
 10
217.330994
 20
475.714996
 30
0.0
 10
217.278000
 20
475.878998
 30
0.0
 10
217.203995
 20
476.035004
 30
0.0
 10
217.112000
 20
476.181000
 30
0.0
 10
217.087997
 20
476.210022
 30
0.0
 10
217.001999
 20
476.314003
 30
0.0
 10
216.876007
 20
476.431999
 30
0.0
 10
216.854034
 20
476.447998
 30
0.0
 10
216.735992
 20
476.533997
 30
0.0
 10
216.585007
 20
476.616997
 30
0.0
 10
216.423996
 20
476.680000
 30
0.0
 10
216.257004
 20
476.723000
 30
0.0
 10
216.085007
 20
476.745003
 30
0.0
 10
215.912994
 20
476.745003
 30
0.0
 10
215.740997
 20
476.723000
 30
0.0
 10
215.574005
 20
476.680000
 30
0.0
 10
215.414001
 20
476.616997
 30
0.0
 10
215.261993
 20
476.533997
 30
0.0
 10
215.144806
 20
476.447998
 30
0.0
 10
215.123001
 20
476.431999
 30
0.0
 10
215.039993
 20
476.354271
 30
0.0
 10
214.996994
 20
476.314003
 30
0.0
 10
214.886993
 20
476.181000
 30
0.0
 10
214.794006
 20
476.035004
 30
0.0
 10
214.720993
 20
475.878998
 30
0.0
 10
214.667007
 20
475.714996
 30
0.0
 10
214.634995
 20
475.544998
 30
0.0
 10
214.623993
 20
475.373001
 30
0.0
 10
214.634995
 20
475.199997
 30
0.0
 10
214.667007
 20
475.030998
 30
0.0
 10
214.720993
 20
474.865997
 30
0.0
 10
214.794006
 20
474.709999
 30
0.0
 10
214.886993
 20
474.564003
 30
0.0
 10
214.996994
 20
474.431000
 30
0.0
 10
215.030106
 20
474.400002
 30
0.0
 10
215.123001
 20
474.313004
 30
0.0
 10
215.261993
 20
474.211998
 30
0.0
 10
215.414001
 20
474.127998
 30
0.0
 10
215.574005
 20
474.065002
 30
0.0
 10
215.740997
 20
474.022003
 30
0.0
 10
215.912994
 20
474.000000
 30
0.0
 10
216.085007
 20
474.000000
 30
0.0
 10
216.257004
 20
474.022003
 30
0.0
 10
216.423996
 20
474.065002
 30
0.0
 10
216.585007
 20
474.127998
 30
0.0
 10
216.735992
 20
474.211998
 30
0.0
  0
LWPOLYLINE
  5
106
100
AcDbEntity
  8
0
 62
7
100
AcDbPolyline
 90
55
 70
1
 10
248.897995
 20
396.447001
 30
0.0
 10
249.019348
 20
396.576000
 30
0.0
 10
249.199005
 20
396.767000
 30
0.0
 10
249.457993
 20
397.122999
 30
0.0
 10
249.669998
 20
397.509001
 30
0.0
 10
249.832993
 20
397.917999
 30
0.0
 10
249.942001
 20
398.344000
 30
0.0
 10
249.996994
 20
398.780001
 30
0.0
 10
249.996994
 20
399.219999
 30
0.0
 10
249.942001
 20
399.656000
 30
0.0
 10
249.832993
 20
400.082001
 30
0.0
 10
249.669998
 20
400.490999
 30
0.0
 10
249.570587
 20
400.672001
 30
0.0
 10
249.457993
 20
400.877001
 30
0.0
 10
249.199005
 20
401.233000
 30
0.0
 10
248.897995
 20
401.552999
 30
0.0
 10
248.557999
 20
401.834000
 30
0.0
 10
248.186005
 20
402.069000
 30
0.0
 10
247.787994
 20
402.257000
 30
0.0
 10
247.369003
 20
402.392000
 30
0.0
 10
246.936005
 20
402.475000
 30
0.0
 10
246.496002
 20
402.503000
 30
0.0
 10
246.056000
 20
402.475000
 30
0.0
 10
245.759995
 20
402.418129
 30
0.0
 10
245.623993
 20
402.392000
 30
0.0
 10
245.205002
 20
402.257000
 30
0.0
 10
244.806000
 20
402.069000
 30
0.0
 10
244.434006
 20
401.834000
 30
0.0
 10
244.093994
 20
401.552999
 30
0.0
 10
243.792999
 20
401.233000
 30
0.0
 10
243.533997
 20
400.877001
 30
0.0
 10
243.421402
 20
400.672001
 30
0.0
 10
243.322006
 20
400.490999
 30
0.0
 10
243.158997
 20
400.082001
 30
0.0
 10
243.050003
 20
399.656000
 30
0.0
 10
242.994995
 20
399.219999
 30
0.0
 10
242.994995
 20
398.780001
 30
0.0
 10
243.050003
 20
398.344000
 30
0.0
 10
243.158997
 20
397.917999
 30
0.0
 10
243.322006
 20
397.509001
 30
0.0
 10
243.533997
 20
397.122999
 30
0.0
 10
243.792999
 20
396.767000
 30
0.0
 10
243.972656
 20
396.576000
 30
0.0
 10
244.093994
 20
396.447001
 30
0.0
 10
244.434006
 20
396.166000
 30
0.0
 10
244.806000
 20
395.931000
 30
0.0
 10
245.205002
 20
395.743000
 30
0.0
 10
245.623993
 20
395.608000
 30
0.0
 10
246.056000
 20
395.525000
 30
0.0
 10
246.496002
 20
395.497999
 30
0.0
 10
246.936005
 20
395.525000
 30
0.0
 10
247.369003
 20
395.608000
 30
0.0
 10
247.787994
 20
395.743000
 30
0.0
 10
248.186005
 20
395.931000
 30
0.0
 10
248.557999
 20
396.166000
 30
0.0
  0
LWPOLYLINE
  5
107
100
AcDbEntity
  8
0
 62
7
100
AcDbPolyline
 90
57
 70
1
 10
181.317001
 20
425.014000
 30
0.0
 10
181.505005
 20
425.001999
 30
0.0
 10
181.692993
 20
425.014000
 30
0.0
 10
181.878006
 20
425.049000
 30
0.0
 10
182.057999
 20
425.108002
 30
0.0
 10
182.227997
 20
425.188000
 30
0.0
 10
182.322449
 20
425.248001
 30
0.0
 10
182.386993
 20
425.289001
 30
0.0
 10
182.531998
 20
425.409000
 30
0.0
 10
182.660995
 20
425.546001
 30
0.0
 10
182.772003
 20
425.699001
 30
0.0
 10
182.863007
 20
425.863998
 30
0.0
 10
182.932007
 20
426.039001
 30
0.0
 10
182.979004
 20
426.221001
 30
0.0
 10
183.003006
 20
426.408001
 30
0.0
 10
183.003006
 20
426.597000
 30
0.0
 10
182.979004
 20
426.783001
 30
0.0
 10
182.932007
 20
426.966000
 30
0.0
 10
182.863007
 20
427.140999
 30
0.0
 10
182.777512
 20
427.296001
 30
0.0
 10
182.772003
 20
427.306000
 30
0.0
 10
182.660995
 20
427.459000
 30
0.0
 10
182.531998
 20
427.596001
 30
0.0
 10
182.386993
 20
427.716000
 30
0.0
 10
182.272003
 20
427.789051
 30
0.0
 10
182.227997
 20
427.817001
 30
0.0
 10
182.057999
 20
427.896999
 30
0.0
 10
181.878006
 20
427.955002
 30
0.0
 10
181.692993
 20
427.991001
 30
0.0
 10
181.505005
 20
428.002998
 30
0.0
 10
181.317001
 20
427.991001
 30
0.0
 10
181.132004
 20
427.955002
 30
0.0
 10
180.953003
 20
427.896999
 30
0.0
 10
180.783005
 20
427.817001
 30
0.0
 10
180.623993
 20
427.716000
 30
0.0
 10
180.477997
 20
427.596001
 30
0.0
 10
180.348999
 20
427.459000
 30
0.0
 10
180.238998
 20
427.306000
 30
0.0
 10
180.233490
 20
427.296001
 30
0.0
 10
180.223999
 20
427.278801
 30
0.0
 10
180.147995
 20
427.140999
 30
0.0
 10
180.078995
 20
426.966000
 30
0.0
 10
180.031998
 20
426.783001
 30
0.0
 10
180.007996
 20
426.597000
 30
0.0
 10
180.007996
 20
426.408001
 30
0.0
 10
180.031998
 20
426.221001
 30
0.0
 10
180.078995
 20
426.039001
 30
0.0
 10
180.147995
 20
425.863998
 30
0.0
 10
180.223999
 20
425.726196
 30
0.0
 10
180.238998
 20
425.699001
 30
0.0
 10
180.348999
 20
425.546001
 30
0.0
 10
180.477997
 20
425.409000
 30
0.0
 10
180.623993
 20
425.289001
 30
0.0
 10
180.688538
 20
425.248001
 30
0.0
 10
180.783005
 20
425.188000
 30
0.0
 10
180.953003
 20
425.108002
 30
0.0
 10
181.132004
 20
425.049000
 30
0.0
  0
LWPOLYLINE
  5
108
100
AcDbEntity
  8
0
 62
7
100
AcDbPolyline
 90
56
 70
1
 10
180.147995
 20
370.859000
 30
0.0
 10
180.223999
 20
370.721198
 30
0.0
 10
180.238998
 20
370.694000
 30
0.0
 10
180.348999
 20
370.541000
 30
0.0
 10
180.477997
 20
370.404000
 30
0.0
 10
180.623993
 20
370.284000
 30
0.0
 10
180.783005
 20
370.183000
 30
0.0
 10
180.953003
 20
370.103000
 30
0.0
 10
181.132004
 20
370.045000
 30
0.0
 10
181.317001
 20
370.009000
 30
0.0
 10
181.505005
 20
369.997000
 30
0.0
 10
181.692993
 20
370.009000
 30
0.0
 10
181.878006
 20
370.045000
 30
0.0
 10
182.057999
 20
370.103000
 30
0.0
 10
182.227997
 20
370.183000
 30
0.0
 10
182.272003
 20
370.210950
 30
0.0
 10
182.386993
 20
370.284000
 30
0.0
 10
182.531998
 20
370.404000
 30
0.0
 10
182.660995
 20
370.541000
 30
0.0
 10
182.772003
 20
370.694000
 30
0.0
 10
182.863007
 20
370.859000
 30
0.0
 10
182.932007
 20
371.034000
 30
0.0
 10
182.979004
 20
371.217000
 30
0.0
 10
183.003006
 20
371.403000
 30
0.0
 10
183.003006
 20
371.592000
 30
0.0
 10
182.979004
 20
371.779000
 30
0.0
 10
182.932007
 20
371.961000
 30
0.0
 10
182.916626
 20
372.000000
 30
0.0
 10
182.863007
 20
372.136000
 30
0.0
 10
182.772003
 20
372.301000
 30
0.0
 10
182.660995
 20
372.454000
 30
0.0
 10
182.531998
 20
372.591000
 30
0.0
 10
182.386993
 20
372.711000
 30
0.0
 10
182.272003
 20
372.784050
 30
0.0
 10
182.227997
 20
372.812000
 30
0.0
 10
182.057999
 20
372.892000
 30
0.0
 10
181.878006
 20
372.951000
 30
0.0
 10
181.692993
 20
372.986000
 30
0.0
 10
181.505005
 20
372.998000
 30
0.0
 10
181.317001
 20
372.986000
 30
0.0
 10
181.132004
 20
372.951000
 30
0.0
 10
180.953003
 20
372.892000
 30
0.0
 10
180.783005
 20
372.812000
 30
0.0
 10
180.623993
 20
372.711000
 30
0.0
 10
180.477997
 20
372.591000
 30
0.0
 10
180.348999
 20
372.454000
 30
0.0
 10
180.238998
 20
372.301000
 30
0.0
 10
180.223999
 20
372.273802
 30
0.0
 10
180.147995
 20
372.136000
 30
0.0
 10
180.094376
 20
372.000000
 30
0.0
 10
180.078995
 20
371.961000
 30
0.0
 10
180.031998
 20
371.779000
 30
0.0
 10
180.007996
 20
371.592000
 30
0.0
 10
180.007996
 20
371.403000
 30
0.0
 10
180.031998
 20
371.217000
 30
0.0
 10
180.078995
 20
371.034000
 30
0.0
  0
LWPOLYLINE
  5
109
100
AcDbEntity
  8
0
 62
7
100
AcDbPolyline
 90
23
 70
1
 10
106.460999
 20
502.945999
 30
0.0
 10
106.708267
 20
503.072006
 30
0.0
 10
106.878998
 20
503.158997
 30
0.0
 10
107.210999
 20
503.492004
 30
0.0
 10
107.424004
 20
503.910995
 30
0.0
 10
107.498001
 20
504.375000
 30
0.0
 10
107.424004
 20
504.839005
 30
0.0
 10
107.210999
 20
505.257996
 30
0.0
 10
106.878998
 20
505.591003
 30
0.0
 10
106.496002
 20
505.786163
 30
0.0
 10
106.460999
 20
505.804001
 30
0.0
 10
105.998001
 20
505.878006
 30
0.0
 10
105.533997
 20
505.804001
 30
0.0
 10
105.115997
 20
505.591003
 30
0.0
 10
104.783997
 20
505.257996
 30
0.0
 10
104.570999
 20
504.839005
 30
0.0
 10
104.498001
 20
504.375000
 30
0.0
 10
104.570999
 20
503.910995
 30
0.0
 10
104.783997
 20
503.492004
 30
0.0
 10
105.115997
 20
503.158997
 30
0.0
 10
105.286736
 20
503.072006
 30
0.0
 10
105.533997
 20
502.945999
 30
0.0
 10
105.998001
 20
502.873001
 30
0.0
  0
LWPOLYLINE
  5
10a
100
AcDbEntity
  8
0
 62
7
100
AcDbPolyline
 90
55
 70
1
 10
9.839000
 20
489.175003
 30
0.0
 10
10.010000
 20
489.153000
 30
0.0
 10
10.183000
 20
489.153000
 30
0.0
 10
10.240000
 20
489.160332
 30
0.0
 10
10.354000
 20
489.175003
 30
0.0
 10
10.522000
 20
489.218002
 30
0.0
 10
10.682000
 20
489.280998
 30
0.0
 10
10.833000
 20
489.364998
 30
0.0
 10
10.973000
 20
489.466003
 30
0.0
 10
11.099000
 20
489.584000
 30
0.0
 10
11.209000
 20
489.717003
 30
0.0
 10
11.302000
 20
489.862999
 30
0.0
 10
11.375000
 20
490.018997
 30
0.0
 10
11.429000
 20
490.183998
 30
0.0
 10
11.461000
 20
490.352997
 30
0.0
 10
11.472000
 20
490.526001
 30
0.0
 10
11.461000
 20
490.697998
 30
0.0
 10
11.444812
 20
490.783997
 30
0.0
 10
11.429000
 20
490.867996
 30
0.0
 10
11.375000
 20
491.031998
 30
0.0
 10
11.302000
 20
491.188004
 30
0.0
 10
11.209000
 20
491.334000
 30
0.0
 10
11.099000
 20
491.467003
 30
0.0
 10
10.973000
 20
491.584999
 30
0.0
 10
10.833000
 20
491.686996
 30
0.0
 10
10.682000
 20
491.769997
 30
0.0
 10
10.522000
 20
491.833000
 30
0.0
 10
10.354000
 20
491.875999
 30
0.0
 10
10.240000
 20
491.890663
 30
0.0
 10
10.183000
 20
491.898003
 30
0.0
 10
10.010000
 20
491.898003
 30
0.0
 10
9.839000
 20
491.875999
 30
0.0
 10
9.672000
 20
491.833000
 30
0.0
 10
9.511000
 20
491.769997
 30
0.0
 10
9.360000
 20
491.686996
 30
0.0
 10
9.220000
 20
491.584999
 30
0.0
 10
9.094000
 20
491.467003
 30
0.0
 10
8.984000
 20
491.334000
 30
0.0
 10
8.892000
 20
491.188004
 30
0.0
 10
8.818000
 20
491.031998
 30
0.0
 10
8.765000
 20
490.867996
 30
0.0
 10
8.748694
 20
490.783997
 30
0.0
 10
8.732000
 20
490.697998
 30
0.0
 10
8.721000
 20
490.526001
 30
0.0
 10
8.732000
 20
490.352997
 30
0.0
 10
8.765000
 20
490.183998
 30
0.0
 10
8.818000
 20
490.018997
 30
0.0
 10
8.892000
 20
489.862999
 30
0.0
 10
8.956904
 20
489.760002
 30
0.0
 10
8.984000
 20
489.717003
 30
0.0
 10
9.094000
 20
489.584000
 30
0.0
 10
9.220000
 20
489.466003
 30
0.0
 10
9.360000
 20
489.364998
 30
0.0
 10
9.511000
 20
489.280998
 30
0.0
 10
9.672000
 20
489.218002
 30
0.0
  0
LWPOLYLINE
  5
10b
100
AcDbEntity
  8
0
 62
7
100
AcDbPolyline
 90
55
 70
1
 10
36.793999
 20
489.862999
 30
0.0
 10
36.863998
 20
489.753105
 30
0.0
 10
36.887001
 20
489.717003
 30
0.0
 10
36.997002
 20
489.584000
 30
0.0
 10
37.123001
 20
489.466003
 30
0.0
 10
37.263000
 20
489.364998
 30
0.0
 10
37.414001
 20
489.280998
 30
0.0
 10
37.574001
 20
489.218002
 30
0.0
 10
37.742001
 20
489.175003
 30
0.0
 10
37.912998
 20
489.153000
 30
0.0
 10
38.085999
 20
489.153000
 30
0.0
 10
38.257000
 20
489.175003
 30
0.0
 10
38.424000
 20
489.218002
 30
0.0
 10
38.584999
 20
489.280998
 30
0.0
 10
38.736000
 20
489.364998
 30
0.0
 10
38.875999
 20
489.466003
 30
0.0
 10
38.911999
 20
489.499718
 30
0.0
 10
39.001999
 20
489.584000
 30
0.0
 10
39.112000
 20
489.717003
 30
0.0
 10
39.203999
 20
489.862999
 30
0.0
 10
39.278000
 20
490.018997
 30
0.0
 10
39.331001
 20
490.183998
 30
0.0
 10
39.363998
 20
490.352997
 30
0.0
 10
39.375000
 20
490.526001
 30
0.0
 10
39.363998
 20
490.697998
 30
0.0
 10
39.347305
 20
490.783997
 30
0.0
 10
39.331001
 20
490.867996
 30
0.0
 10
39.278000
 20
491.031998
 30
0.0
 10
39.203999
 20
491.188004
 30
0.0
 10
39.112000
 20
491.334000
 30
0.0
 10
39.001999
 20
491.467003
 30
0.0
 10
38.911999
 20
491.551285
 30
0.0
 10
38.875999
 20
491.584999
 30
0.0
 10
38.736000
 20
491.686996
 30
0.0
 10
38.584999
 20
491.769997
 30
0.0
 10
38.424000
 20
491.833000
 30
0.0
 10
38.257000
 20
491.875999
 30
0.0
 10
38.085999
 20
491.898003
 30
0.0
 10
37.912998
 20
491.898003
 30
0.0
 10
37.742001
 20
491.875999
 30
0.0
 10
37.574001
 20
491.833000
 30
0.0
 10
37.414001
 20
491.769997
 30
0.0
 10
37.263000
 20
491.686996
 30
0.0
 10
37.123001
 20
491.584999
 30
0.0
 10
36.997002
 20
491.467003
 30
0.0
 10
36.887001
 20
491.334000
 30
0.0
 10
36.863998
 20
491.297890
 30
0.0
 10
36.793999
 20
491.188004
 30
0.0
 10
36.721001
 20
491.031998
 30
0.0
 10
36.667000
 20
490.867996
 30
0.0
 10
36.634998
 20
490.697998
 30
0.0
 10
36.624001
 20
490.526001
 30
0.0
 10
36.634998
 20
490.352997
 30
0.0
 10
36.667000
 20
490.183998
 30
0.0
 10
36.721001
 20
490.018997
 30
0.0
  0
LWPOLYLINE
  5
10c
100
AcDbEntity
  8
0
 62
7
100
AcDbPolyline
 90
56
 70
1
 10
52.943001
 20
539.979996
 30
0.0
 10
53.115002
 20
539.957993
 30
0.0
 10
53.248001
 20
539.957993
 30
0.0
 10
53.286999
 20
539.957993
 30
0.0
 10
53.459000
 20
539.979996
 30
0.0
 10
53.625999
 20
540.022003
 30
0.0
 10
53.785999
 20
540.085999
 30
0.0
 10
53.938000
 20
540.169006
 30
0.0
 10
54.077000
 20
540.270996
 30
0.0
 10
54.202999
 20
540.389008
 30
0.0
 10
54.313000
 20
540.522003
 30
0.0
 10
54.405998
 20
540.667999
 30
0.0
 10
54.479000
 20
540.824005
 30
0.0
 10
54.523781
 20
540.960007
 30
0.0
 10
54.533001
 20
540.988007
 30
0.0
 10
54.564999
 20
541.158005
 30
0.0
 10
54.576000
 20
541.330002
 30
0.0
 10
54.564999
 20
541.503006
 30
0.0
 10
54.533001
 20
541.671997
 30
0.0
 10
54.479000
 20
541.835999
 30
0.0
 10
54.410183
 20
541.983994
 30
0.0
 10
54.405998
 20
541.992996
 30
0.0
 10
54.313000
 20
542.139008
 30
0.0
 10
54.202999
 20
542.272003
 30
0.0
 10
54.077000
 20
542.389999
 30
0.0
 10
53.938000
 20
542.490997
 30
0.0
 10
53.785999
 20
542.574997
 30
0.0
 10
53.625999
 20
542.638000
 30
0.0
 10
53.459000
 20
542.681000
 30
0.0
 10
53.286999
 20
542.703003
 30
0.0
 10
53.248001
 20
542.703003
 30
0.0
 10
53.115002
 20
542.703003
 30
0.0
 10
52.943001
 20
542.681000
 30
0.0
 10
52.776001
 20
542.638000
 30
0.0
 10
52.615002
 20
542.574997
 30
0.0
 10
52.464001
 20
542.490997
 30
0.0
 10
52.324001
 20
542.389999
 30
0.0
 10
52.198002
 20
542.272003
 30
0.0
 10
52.088001
 20
542.139008
 30
0.0
 10
51.995998
 20
541.992996
 30
0.0
 10
51.991756
 20
541.983994
 30
0.0
 10
51.922001
 20
541.835999
 30
0.0
 10
51.868999
 20
541.671997
 30
0.0
 10
51.837002
 20
541.503006
 30
0.0
 10
51.826000
 20
541.330002
 30
0.0
 10
51.837002
 20
541.158005
 30
0.0
 10
51.868999
 20
540.988007
 30
0.0
 10
51.878048
 20
540.960007
 30
0.0
 10
51.922001
 20
540.824005
 30
0.0
 10
51.995998
 20
540.667999
 30
0.0
 10
52.088001
 20
540.522003
 30
0.0
 10
52.198002
 20
540.389008
 30
0.0
 10
52.324001
 20
540.270996
 30
0.0
 10
52.464001
 20
540.169006
 30
0.0
 10
52.615002
 20
540.085999
 30
0.0
 10
52.776001
 20
540.022003
 30
0.0
  0
LWPOLYLINE
  5
10d
100
AcDbEntity
  8
0
 62
7
100
AcDbPolyline
 90
55
 70
1
 10
88.306999
 20
425.014000
 30
0.0
 10
88.495003
 20
425.001999
 30
0.0
 10
88.682999
 20
425.014000
 30
0.0
 10
88.867996
 20
425.049000
 30
0.0
 10
89.046997
 20
425.108002
 30
0.0
 10
89.217003
 20
425.188000
 30
0.0
 10
89.311455
 20
425.248001
 30
0.0
 10
89.375999
 20
425.289001
 30
0.0
 10
89.522003
 20
425.409000
 30
0.0
 10
89.651001
 20
425.546001
 30
0.0
 10
89.761002
 20
425.699001
 30
0.0
 10
89.851997
 20
425.863998
 30
0.0
 10
89.920998
 20
426.039001
 30
0.0
 10
89.968002
 20
426.221001
 30
0.0
 10
89.991997
 20
426.408001
 30
0.0
 10
89.991997
 20
426.597000
 30
0.0
 10
89.968002
 20
426.783001
 30
0.0
 10
89.920998
 20
426.966000
 30
0.0
 10
89.851997
 20
427.140999
 30
0.0
 10
89.766518
 20
427.296001
 30
0.0
 10
89.761002
 20
427.306000
 30
0.0
 10
89.651001
 20
427.459000
 30
0.0
 10
89.522003
 20
427.596001
 30
0.0
 10
89.375999
 20
427.716000
 30
0.0
 10
89.217003
 20
427.817001
 30
0.0
 10
89.046997
 20
427.896999
 30
0.0
 10
88.867996
 20
427.955002
 30
0.0
 10
88.682999
 20
427.991001
 30
0.0
 10
88.495003
 20
428.002998
 30
0.0
 10
88.306999
 20
427.991001
 30
0.0
 10
88.122002
 20
427.955002
 30
0.0
 10
88.064003
 20
427.936310
 30
0.0
 10
87.942001
 20
427.896999
 30
0.0
 10
87.772003
 20
427.817001
 30
0.0
 10
87.612999
 20
427.716000
 30
0.0
 10
87.468002
 20
427.596001
 30
0.0
 10
87.338997
 20
427.459000
 30
0.0
 10
87.227997
 20
427.306000
 30
0.0
 10
87.222488
 20
427.296001
 30
0.0
 10
87.137001
 20
427.140999
 30
0.0
 10
87.068001
 20
426.966000
 30
0.0
 10
87.021004
 20
426.783001
 30
0.0
 10
86.997002
 20
426.597000
 30
0.0
 10
86.997002
 20
426.408001
 30
0.0
 10
87.021004
 20
426.221001
 30
0.0
 10
87.068001
 20
426.039001
 30
0.0
 10
87.137001
 20
425.863998
 30
0.0
 10
87.227997
 20
425.699001
 30
0.0
 10
87.338997
 20
425.546001
 30
0.0
 10
87.468002
 20
425.409000
 30
0.0
 10
87.612999
 20
425.289001
 30
0.0
 10
87.677544
 20
425.248001
 30
0.0
 10
87.772003
 20
425.188000
 30
0.0
 10
87.942001
 20
425.108002
 30
0.0
 10
88.122002
 20
425.049000
 30
0.0
  0
LWPOLYLINE
  5
10e
100
AcDbEntity
  8
0
 62
7
100
AcDbPolyline
 90
55
 70
1
 10
87.942001
 20
370.103000
 30
0.0
 10
88.064003
 20
370.063689
 30
0.0
 10
88.122002
 20
370.045000
 30
0.0
 10
88.306999
 20
370.009000
 30
0.0
 10
88.495003
 20
369.997000
 30
0.0
 10
88.682999
 20
370.009000
 30
0.0
 10
88.867996
 20
370.045000
 30
0.0
 10
89.046997
 20
370.103000
 30
0.0
 10
89.217003
 20
370.183000
 30
0.0
 10
89.375999
 20
370.284000
 30
0.0
 10
89.522003
 20
370.404000
 30
0.0
 10
89.651001
 20
370.541000
 30
0.0
 10
89.761002
 20
370.694000
 30
0.0
 10
89.851997
 20
370.859000
 30
0.0
 10
89.898132
 20
370.976000
 30
0.0
 10
89.920998
 20
371.034000
 30
0.0
 10
89.968002
 20
371.217000
 30
0.0
 10
89.991997
 20
371.403000
 30
0.0
 10
89.991997
 20
371.592000
 30
0.0
 10
89.968002
 20
371.779000
 30
0.0
 10
89.920998
 20
371.961000
 30
0.0
 10
89.905624
 20
372.000000
 30
0.0
 10
89.851997
 20
372.136000
 30
0.0
 10
89.761002
 20
372.301000
 30
0.0
 10
89.651001
 20
372.454000
 30
0.0
 10
89.522003
 20
372.591000
 30
0.0
 10
89.375999
 20
372.711000
 30
0.0
 10
89.217003
 20
372.812000
 30
0.0
 10
89.046997
 20
372.892000
 30
0.0
 10
88.867996
 20
372.951000
 30
0.0
 10
88.682999
 20
372.986000
 30
0.0
 10
88.495003
 20
372.998000
 30
0.0
 10
88.306999
 20
372.986000
 30
0.0
 10
88.122002
 20
372.951000
 30
0.0
 10
88.064003
 20
372.931989
 30
0.0
 10
87.942001
 20
372.892000
 30
0.0
 10
87.772003
 20
372.812000
 30
0.0
 10
87.612999
 20
372.711000
 30
0.0
 10
87.468002
 20
372.591000
 30
0.0
 10
87.338997
 20
372.454000
 30
0.0
 10
87.227997
 20
372.301000
 30
0.0
 10
87.137001
 20
372.136000
 30
0.0
 10
87.083374
 20
372.000000
 30
0.0
 10
87.068001
 20
371.961000
 30
0.0
 10
87.021004
 20
371.779000
 30
0.0
 10
86.997002
 20
371.592000
 30
0.0
 10
86.997002
 20
371.403000
 30
0.0
 10
87.021004
 20
371.217000
 30
0.0
 10
87.068001
 20
371.034000
 30
0.0
 10
87.137001
 20
370.859000
 30
0.0
 10
87.227997
 20
370.694000
 30
0.0
 10
87.338997
 20
370.541000
 30
0.0
 10
87.468002
 20
370.404000
 30
0.0
 10
87.612999
 20
370.284000
 30
0.0
 10
87.772003
 20
370.183000
 30
0.0
  0
LWPOLYLINE
  5
10f
100
AcDbEntity
  8
0
 62
7
100
AcDbPolyline
 90
56
 70
1
 10
19.368999
 20
421.108002
 30
0.0
 10
19.505564
 20
421.152000
 30
0.0
 10
19.788000
 20
421.243000
 30
0.0
 10
20.186001
 20
421.431000
 30
0.0
 10
20.558001
 20
421.666000
 30
0.0
 10
20.898001
 20
421.946999
 30
0.0
 10
21.198999
 20
422.266998
 30
0.0
 10
21.458000
 20
422.623001
 30
0.0
 10
21.670000
 20
423.008999
 30
0.0
 10
21.833000
 20
423.417999
 30
0.0
 10
21.941999
 20
423.844002
 30
0.0
 10
21.997000
 20
424.279999
 30
0.0
 10
21.997000
 20
424.720001
 30
0.0
 10
21.941999
 20
425.155998
 30
0.0
 10
21.918461
 20
425.248001
 30
0.0
 10
21.833000
 20
425.582001
 30
0.0
 10
21.670000
 20
425.991001
 30
0.0
 10
21.458000
 20
426.376999
 30
0.0
 10
21.198999
 20
426.733002
 30
0.0
 10
20.898001
 20
427.053001
 30
0.0
 10
20.558001
 20
427.334000
 30
0.0
 10
20.480000
 20
427.383274
 30
0.0
 10
20.186001
 20
427.569000
 30
0.0
 10
19.788000
 20
427.757000
 30
0.0
 10
19.368999
 20
427.891998
 30
0.0
 10
18.936001
 20
427.974998
 30
0.0
 10
18.496000
 20
428.002998
 30
0.0
 10
18.056000
 20
427.974998
 30
0.0
 10
17.624001
 20
427.891998
 30
0.0
 10
17.205000
 20
427.757000
 30
0.0
 10
16.806000
 20
427.569000
 30
0.0
 10
16.434000
 20
427.334000
 30
0.0
 10
16.384001
 20
427.292675
 30
0.0
 10
16.094000
 20
427.053001
 30
0.0
 10
15.793000
 20
426.733002
 30
0.0
 10
15.534000
 20
426.376999
 30
0.0
 10
15.322000
 20
425.991001
 30
0.0
 10
15.159000
 20
425.582001
 30
0.0
 10
15.050000
 20
425.155998
 30
0.0
 10
14.995000
 20
424.720001
 30
0.0
 10
14.995000
 20
424.279999
 30
0.0
 10
15.050000
 20
423.844002
 30
0.0
 10
15.159000
 20
423.417999
 30
0.0
 10
15.322000
 20
423.008999
 30
0.0
 10
15.534000
 20
422.623001
 30
0.0
 10
15.793000
 20
422.266998
 30
0.0
 10
16.094000
 20
421.946999
 30
0.0
 10
16.384001
 20
421.707325
 30
0.0
 10
16.434000
 20
421.666000
 30
0.0
 10
16.806000
 20
421.431000
 30
0.0
 10
17.205000
 20
421.243000
 30
0.0
 10
17.487436
 20
421.152000
 30
0.0
 10
17.624001
 20
421.108002
 30
0.0
 10
18.056000
 20
421.025002
 30
0.0
 10
18.496000
 20
420.998001
 30
0.0
 10
18.936001
 20
421.025002
 30
0.0
  0
LWPOLYLINE
  5
110
100
AcDbEntity
  8
0
 62
7
100
AcDbPolyline
 90
55
 70
1
 10
3.994000
 20
541.688995
 30
0.0
 10
4.096000
 20
541.593475
 30
0.0
 10
4.120000
 20
541.570999
 30
0.0
 10
4.259000
 20
541.468994
 30
0.0
 10
4.411000
 20
541.386002
 30
0.0
 10
4.571000
 20
541.322998
 30
0.0
 10
4.738000
 20
541.279999
 30
0.0
 10
4.910000
 20
541.257996
 30
0.0
 10
5.082000
 20
541.257996
 30
0.0
 10
5.254000
 20
541.279999
 30
0.0
 10
5.421000
 20
541.322998
 30
0.0
 10
5.582000
 20
541.386002
 30
0.0
 10
5.733000
 20
541.468994
 30
0.0
 10
5.873000
 20
541.570999
 30
0.0
 10
5.999000
 20
541.688995
 30
0.0
 10
6.109000
 20
541.822006
 30
0.0
 10
6.144000
 20
541.877548
 30
0.0
 10
6.201000
 20
541.968002
 30
0.0
 10
6.208590
 20
541.983994
 30
0.0
 10
6.275000
 20
542.123993
 30
0.0
 10
6.328000
 20
542.287994
 30
0.0
 10
6.360000
 20
542.457993
 30
0.0
 10
6.371000
 20
542.630005
 30
0.0
 10
6.360000
 20
542.802994
 30
0.0
 10
6.328000
 20
542.972000
 30
0.0
 10
6.275000
 20
543.136993
 30
0.0
 10
6.201000
 20
543.292999
 30
0.0
 10
6.144000
 20
543.383453
 30
0.0
 10
6.109000
 20
543.438995
 30
0.0
 10
5.999000
 20
543.572006
 30
0.0
 10
5.873000
 20
543.690002
 30
0.0
 10
5.733000
 20
543.791000
 30
0.0
 10
5.582000
 20
543.875000
 30
0.0
 10
5.421000
 20
543.938004
 30
0.0
 10
5.254000
 20
543.981003
 30
0.0
 10
5.082000
 20
544.003006
 30
0.0
 10
4.910000
 20
544.003006
 30
0.0
 10
4.738000
 20
543.981003
 30
0.0
 10
4.571000
 20
543.938004
 30
0.0
 10
4.411000
 20
543.875000
 30
0.0
 10
4.259000
 20
543.791000
 30
0.0
 10
4.120000
 20
543.690002
 30
0.0
 10
4.096000
 20
543.667526
 30
0.0
 10
3.994000
 20
543.572006
 30
0.0
 10
3.884000
 20
543.438995
 30
0.0
 10
3.791000
 20
543.292999
 30
0.0
 10
3.718000
 20
543.136993
 30
0.0
 10
3.664000
 20
542.972000
 30
0.0
 10
3.632000
 20
542.802994
 30
0.0
 10
3.621000
 20
542.630005
 30
0.0
 10
3.632000
 20
542.457993
 30
0.0
 10
3.664000
 20
542.287994
 30
0.0
 10
3.718000
 20
542.123993
 30
0.0
 10
3.791000
 20
541.968002
 30
0.0
 10
3.884000
 20
541.822006
 30
0.0
  0
LWPOLYLINE
  5
111
100
AcDbEntity
  8
0
 62
7
100
AcDbPolyline
 90
54
 70
1
 10
-21.021999
 20
370.061000
 30
0.0
 10
-20.018999
 20
369.997000
 30
0.0
 10
-19.016001
 20
370.061000
 30
0.0
 10
-18.028999
 20
370.249000
 30
0.0
 10
-17.073000
 20
370.559000
 30
0.0
 10
-16.164000
 20
370.987000
 30
0.0
 10
-15.315000
 20
371.526000
 30
0.0
 10
-14.741756
 20
372.000000
 30
0.0
 10
-14.541000
 20
372.166000
 30
0.0
 10
-13.853000
 20
372.899000
 30
0.0
 10
-13.262000
 20
373.712000
 30
0.0
 10
-12.778000
 20
374.593000
 30
0.0
 10
-12.408000
 20
375.527000
 30
0.0
 10
-12.158000
 20
376.500000
 30
0.0
 10
-12.032000
 20
377.498000
 30
0.0
 10
-12.032000
 20
378.502000
 30
0.0
 10
-12.158000
 20
379.500000
 30
0.0
 10
-12.408000
 20
380.473000
 30
0.0
 10
-12.778000
 20
381.407000
 30
0.0
 10
-13.262000
 20
382.288000
 30
0.0
 10
-13.853000
 20
383.101000
 30
0.0
 10
-14.541000
 20
383.834000
 30
0.0
 10
-15.315000
 20
384.474000
 30
0.0
 10
-16.164000
 20
385.013000
 30
0.0
 10
-16.384001
 20
385.116587
 30
0.0
 10
-17.073000
 20
385.441000
 30
0.0
 10
-18.028999
 20
385.751000
 30
0.0
 10
-19.016001
 20
385.939000
 30
0.0
 10
-20.018999
 20
386.003000
 30
0.0
 10
-21.021999
 20
385.939000
 30
0.0
 10
-22.009001
 20
385.751000
 30
0.0
 10
-22.965000
 20
385.441000
 30
0.0
 10
-23.874001
 20
385.013000
 30
0.0
 10
-24.723000
 20
384.474000
 30
0.0
 10
-25.497000
 20
383.834000
 30
0.0
 10
-26.184999
 20
383.101000
 30
0.0
 10
-26.775999
 20
382.288000
 30
0.0
 10
-27.260000
 20
381.407000
 30
0.0
 10
-27.629999
 20
380.473000
 30
0.0
 10
-27.702200
 20
380.192000
 30
0.0
 10
-27.879999
 20
379.500000
 30
0.0
 10
-28.006001
 20
378.502000
 30
0.0
 10
-28.006001
 20
377.498000
 30
0.0
 10
-27.879999
 20
376.500000
 30
0.0
 10
-27.629999
 20
375.527000
 30
0.0
 10
-27.260000
 20
374.593000
 30
0.0
 10
-26.775999
 20
373.712000
 30
0.0
 10
-26.184999
 20
372.899000
 30
0.0
 10
-25.497000
 20
372.166000
 30
0.0
 10
-25.296244
 20
372.000000
 30
0.0
 10
-24.723000
 20
371.526000
 30
0.0
 10
-23.874001
 20
370.987000
 30
0.0
 10
-22.965000
 20
370.559000
 30
0.0
 10
-22.009001
 20
370.249000
 30
0.0
  0
LWPOLYLINE
  5
112
100
AcDbEntity
  8
0
 62
7
100
AcDbPolyline
 90
4
 70
1
 10
255.257004
 20
397.749001
 30
0.0
 10
255.257004
 20
400.250999
 30
0.0
 10
253.755997
 20
400.250999
 30
0.0
 10
253.755997
 20
397.749001
 30
0.0
  0
LWPOLYLINE
  5
113
100
AcDbEntity
  8
0
 62
7
100
AcDbPolyline
 90
5
 70
1
 10
27.256001
 20
423.249001
 30
0.0
 10
27.256001
 20
425.750999
 30
0.0
 10
25.756001
 20
425.750999
 30
0.0
 10
25.756001
 20
423.249001
 30
0.0
 10
27.256001
 20
423.249001
 30
0.0
  0
ENDSEC
  0
SECTION
  2
OBJECTS
  0
DICTIONARY
  5
C
330
0
100
AcDbDictionary
  3
ACAD_GROUP
350
D
  3
ACAD_MLINESTYLE
350
17
  0
DICTIONARY
  5
D
330
C
100
AcDbDictionary
  0
DICTIONARY
  5
1A
330
C
100
AcDbDictionary
  0
DICTIONARY
  5
17
330
C
100
AcDbDictionary
  3
STANDARD
350
18
  0
DICTIONARY
  5
19
330
C
100
AcDbDictionary
  0
ENDSEC
  0
EOF
