<?xml version="1.0" standalone="no"?>
<!DOCTYPE svg PUBLIC "-//W3C//DTD SVG 1.1//EN"
  "http://www.w3.org/Graphics/SVG/1.1/DTD/svg11.dtd">
<svg width="63mm" height="5mm" viewBox="-101 95.99999999999997 63 5" xmlns="http://www.w3.org/2000/svg" version="1.1">
	<title>svgOutput</title>
	<desc>made with tinkercad</desc>
<path d="M -97.072998046875 98.03600311279294 L -97.03083801269531 98.30400085449216 L -97 98.49999999999997 L -97.072998046875 98.963996887207 L -97.28600311279297 99.38200378417966 L -97.61799621582031 99.713996887207 L -98.03600311279297 99.92700195312497 L -98.5 99.99999999999997 L -98.96399688720703 99.92700195312497 L -99.38200378417969 99.713996887207 L -99.71399688720703 99.38200378417966 L -99.927001953125 98.963996887207 L -100 98.49999999999997 L -99.96916198730469 98.30400085449216 L -99.927001953125 98.03600311279294 L -99.71399688720703 97.61799621582028 L -99.38200378417969 97.28600311279294 L -98.96399688720703 97.07299804687497 L -98.5 96.99999999999997 L -98.03600311279297 97.07299804687497 L -97.61799621582031 97.28600311279294 L -97.28600311279297 97.61799621582028 L -97.072998046875 98.03600311279294 M -39.073001861572266 98.03600311279294 L -39.03083801269531 98.30400085449216 L -39 98.49999999999997 L -39.073001861572266 98.963996887207 L -39.2859992980957 99.38200378417966 L -39.61800003051758 99.713996887207 L -40.0359992980957 99.92700195312497 L -40.5 99.99999999999997 L -40.9640007019043 99.92700195312497 L -41.38199996948242 99.713996887207 L -41.7140007019043 99.38200378417966 L -41.926998138427734 98.963996887207 L -42 98.49999999999997 L -41.96916198730469 98.30400085449216 L -41.926998138427734 98.03600311279294 L -41.7140007019043 97.61799621582028 L -41.38199996948242 97.28600311279294 L -40.9640007019043 97.07299804687497 L -40.5 96.99999999999997 L -40.0359992980957 97.07299804687497 L -39.61800003051758 97.28600311279294 L -39.2859992980957 97.61799621582028 L -39.073001861572266 98.03600311279294 z" fill="none" stroke="rgb(255,0,0)" stroke-width="0.1mm" />
</svg>